# Object Export From Tinkercad Server 2015

mtllib obj.mtl

o obj_0
v 57.9024 		4.6024 		0
v 57.9024 		-0.4024 		0
v 58.5 		-12.15 		4.48
v 58.291 		-12.164 		4.48
v 58.086 		-12.205 		4.48
v 57.888 		-12.272 		4.48
v 59.112 		-12.272 		4.48
v 58.914 		-12.205 		4.48
v 58.709 		-12.164 		4.48
v 60.1 		-13.75 		4.48
v 60.086 		-13.541 		4.48
v 60.045 		-13.336 		4.48
v 59.978 		-13.138 		4.48
v 59.886 		-12.95 		4.48
v 59.769 		-12.776 		4.48
v 59.631 		-12.619 		4.48
v 59.474 		-12.481 		4.48
v 59.3 		-12.364 		4.48
v 57.7 		-12.364 		4.48
v 57.526 		-12.481 		4.48
v 57.369 		-12.619 		4.48
v 60.045 		-14.164 		4.48
v 60.086 		-13.959 		4.48
v 59.769 		-14.724 		4.48
v 59.886 		-14.55 		4.48
v 59.978 		-14.362 		4.48
v 59.474 		-15.019 		4.48
v 59.631 		-14.881 		4.48
v 58.291 		-15.336 		4.48
v 58.5 		-15.35 		4.48
v 58.709 		-15.336 		4.48
v 58.914 		-15.295 		4.48
v 59.112 		-15.228 		4.48
v 59.3 		-15.136 		4.48
v 57.369 		-14.881 		4.48
v 57.526 		-15.019 		4.48
v 57.7 		-15.136 		4.48
v 57.888 		-15.228 		4.48
v 58.086 		-15.295 		4.48
v 56.955 		-14.164 		4.48
v 57.022 		-14.362 		4.48
v 57.114 		-14.55 		4.48
v 57.231 		-14.724 		4.48
v 57.231 		-12.776 		4.48
v 57.114 		-12.95 		4.48
v 57.022 		-13.138 		4.48
v 56.955 		-13.336 		4.48
v 56.914 		-13.541 		4.48
v 56.9 		-13.75 		4.48
v 56.914 		-13.959 		4.48
v 18.4 		13 		4.8
v 18.4 		13 		0
v 20.198 		12.202 		4.8
v 20.198 		11.197 		4.8
v 19.998 		10.403 		4.8
v 20.3 		8.15 		0
v 20.198 		12.202 		2.798
v 20.198 		11.197 		2.798
v 20.3 		8.15 		1.261
v 19.998 		10.403 		1.261
v 18.4 		3.202 		4.8
v 18.4 		-8.803 		4.8
v 18.4 		-18.6 		4.8
v 18.4 		3.202 		0
v 18.4 		-8.803 		0
v 18.4 		-18.6 		0
v 19.998 		-16.003 		4.8
v 19.998 		-16.798 		4.8
v 19.998 		-17.803 		4.8
v 19.998 		3.202 		4.8
v 19.998 		-8.803 		4.8
v 20.3 		-13.75 		0
v 20.3 		-13.75 		1.261
v 19.998 		-16.003 		1.261
v 19.998 		-16.798 		2.798
v 19.998 		-17.803 		2.798
v 19.998 		3.202 		1.261
v 19.998 		-8.803 		1.261
v 21.9 		-15.35 		0
v 31.797 		-15.35 		0
v 52.3727 		-16.003 		1.261
v 30.903 		-15.35 		1.261
v 21.9 		-15.35 		1.261
v 31.797 		5.5 		0
v 23.5 		-13.75 		0
v 31.81 		2.398 		0
v 31.797 		2.202 		0
v 31.849 		2.59 		0
v 31.912 		2.776 		0
v 31.999 		2.952 		0
v 32.108 		3.115 		0
v 32.238 		3.263 		0
v 32.385 		3.392 		0
v 32.549 		3.501 		0
v 32.725 		3.588 		0
v 32.911 		3.651 		0
v 33.104 		3.69 		0
v 33.3 		3.702 		0
v 33.496 		3.69 		0
v 33.689 		3.651 		0
v 33.875 		3.588 		0
v 34.051 		3.501 		0
v 34.215 		3.392 		0
v 34.362 		3.263 		0
v 34.492 		3.115 		0
v 34.601 		2.952 		0
v 22.7 		-15.136 		1.261
v 22.874 		-15.019 		1.261
v 34.688 		2.776 		0
v 23.031 		-14.881 		1.261
v 34.751 		2.59 		0
v 34.79 		2.398 		0
v 34.802 		2.202 		0
v 32.725 		-9.188 		0
v 32.549 		-9.101 		0
v 32.385 		-8.992 		0
v 32.238 		-8.863 		0
v 32.108 		-8.715 		0
v 31.999 		-8.552 		0
v 31.912 		-8.376 		0
v 31.849 		-8.19 		0
v 31.81 		-7.998 		0
v 31.797 		-7.802 		0
v 33.104 		-9.29 		0
v 33.3 		-9.303 		0
v 32.911 		-9.251 		0
v 34.688 		-8.376 		0
v 34.601 		-8.552 		0
v 34.492 		-8.715 		0
v 34.362 		-8.863 		0
v 34.215 		-8.992 		0
v 34.051 		-9.101 		0
v 33.875 		-9.188 		0
v 33.689 		-9.251 		0
v 33.496 		-9.29 		0
v 34.79 		-7.998 		0
v 34.802 		-7.802 		0
v 34.751 		-8.19 		0
v 56.9 		-13.75 		0
v 52.8986 		-0.4024 		0
v 52.8986 		4.6024 		0
v 21.9 		6.55 		0
v 22.403 		3.202 		0
v 22.403 		-8.803 		0
v 21.9 		-12.15 		0
v 22.5447 		-12.288 		0
v 22.512 		-12.272 		0
v 22.314 		-12.205 		0
v 22.109 		-12.164 		0
v 21.691 		-12.164 		0
v 21.486 		-12.205 		0
v 21.288 		-12.272 		0
v 21.2553 		-12.288 		0
v 23.3868 		-14.336 		0
v 23.445 		-14.164 		0
v 23.486 		-13.959 		0
v 23.486 		-13.541 		0
v 23.445 		-13.336 		0
v 23.378 		-13.138 		0
v 23.286 		-12.95 		0
v 23.169 		-12.776 		0
v 23.031 		-12.619 		0
v 22.874 		-12.481 		0
v 22.7 		-12.364 		0
v 21.1 		-12.364 		0
v 20.926 		-12.481 		0
v 20.769 		-12.619 		0
v 20.631 		-12.776 		0
v 20.514 		-12.95 		0
v 20.48 		-13.0195 		0
v 22.528 		-15.2202 		0
v 22.7 		-15.136 		0
v 22.874 		-15.019 		0
v 23.031 		-14.881 		0
v 23.169 		-14.724 		0
v 23.286 		-14.55 		0
v 23.378 		-14.362 		0
v 22.109 		-15.336 		0
v 22.314 		-15.295 		0
v 22.512 		-15.228 		0
v 20.48 		-14.4805 		0
v 20.514 		-14.55 		0
v 20.631 		-14.724 		0
v 20.769 		-14.881 		0
v 20.926 		-15.019 		0
v 21.1 		-15.136 		0
v 21.288 		-15.228 		0
v 21.486 		-15.295 		0
v 21.691 		-15.336 		0
v 20.422 		-13.138 		0
v 20.355 		-13.336 		0
v 20.314 		-13.541 		0
v 20.314 		-13.959 		0
v 20.355 		-14.164 		0
v 20.422 		-14.362 		0
v 30.903 		5.1273 		1.261
v 52.3727 		5.1273 		1.261
v 53.3593 		4.1407 		4.599
v 30.903 		3.202 		1.261
v 30.903 		-8.803 		1.261
v 23.5 		-13.75 		1.261
v 31.797 		2.202 		1.261
v 31.81 		2.398 		1.261
v 31.849 		2.59 		1.261
v 31.912 		2.776 		1.261
v 31.999 		2.952 		1.261
v 32.108 		3.115 		1.261
v 32.238 		3.263 		1.261
v 32.385 		3.392 		1.261
v 32.549 		3.501 		1.261
v 32.725 		3.588 		1.261
v 32.911 		3.651 		1.261
v 33.104 		3.69 		1.261
v 33.3 		3.702 		1.261
v 33.496 		3.69 		1.261
v 33.689 		3.651 		1.261
v 33.875 		3.588 		1.261
v 34.051 		3.501 		1.261
v 34.215 		3.392 		1.261
v 34.362 		3.263 		1.261
v 34.492 		3.115 		1.261
v 34.601 		2.952 		1.261
v 34.688 		2.776 		1.261
v 34.751 		2.59 		1.261
v 34.79 		2.398 		1.261
v 34.802 		2.202 		1.261
v 32.725 		-9.188 		1.261
v 32.549 		-9.101 		1.261
v 32.385 		-8.992 		1.261
v 32.238 		-8.863 		1.261
v 32.108 		-8.715 		1.261
v 31.999 		-8.552 		1.261
v 31.912 		-8.376 		1.261
v 31.849 		-8.19 		1.261
v 31.81 		-7.998 		1.261
v 31.797 		-7.802 		1.261
v 33.3 		-9.303 		1.261
v 33.104 		-9.29 		1.261
v 32.911 		-9.251 		1.261
v 34.688 		-8.376 		1.261
v 34.601 		-8.552 		1.261
v 34.492 		-8.715 		1.261
v 34.362 		-8.863 		1.261
v 34.215 		-8.992 		1.261
v 34.051 		-9.101 		1.261
v 33.875 		-9.188 		1.261
v 33.689 		-9.251 		1.261
v 23.169 		-14.724 		1.261
v 23.286 		-14.55 		1.261
v 23.378 		-14.362 		1.261
v 23.3868 		-14.336 		1.261
v 22.109 		-15.336 		1.261
v 22.314 		-15.295 		1.261
v 22.512 		-15.228 		1.261
v 22.528 		-15.2202 		1.261
v 20.514 		-14.55 		1.261
v 20.48 		-14.4805 		1.261
v 20.631 		-14.724 		1.261
v 20.769 		-14.881 		1.261
v 20.926 		-15.019 		1.261
v 21.1 		-15.136 		1.261
v 33.496 		-9.29 		1.261
v 34.802 		-7.802 		1.261
v 21.288 		-15.228 		1.261
v 34.79 		-7.998 		1.261
v 34.751 		-8.19 		1.261
v 21.486 		-15.295 		1.261
v 21.691 		-15.336 		1.261
v 52.3727 		-0.9273 		1.261
v 30.903 		3.202 		0.478
v 30.903 		-8.803 		0.478
v 20.422 		-13.138 		1.261
v 20.48 		-13.0195 		1.261
v 20.355 		-13.336 		1.261
v 20.314 		-13.541 		1.261
v 20.314 		-13.959 		1.261
v 20.355 		-14.164 		1.261
v 20.422 		-14.362 		1.261
v 23.5 		13 		0
v 56.9 		8.15 		0
v 23.5 		8.15 		0
v 21.9 		9.75 		0
v 23.4972 		8.192 		0
v 23.486 		8.359 		0
v 23.445 		8.564 		0
v 23.378 		8.762 		0
v 23.286 		8.95 		0
v 23.169 		9.124 		0
v 23.031 		9.281 		0
v 22.874 		9.419 		0
v 22.7 		9.536 		0
v 22.528 		9.6202 		0
v 22.512 		9.628 		0
v 22.314 		9.695 		0
v 22.109 		9.736 		0
v 21.691 		9.736 		0
v 21.486 		9.695 		0
v 21.288 		9.628 		0
v 21.1 		9.536 		0
v 20.926 		9.419 		0
v 20.769 		9.281 		0
v 20.631 		9.124 		0
v 20.514 		8.95 		0
v 20.48 		8.8805 		0
v 20.422 		8.762 		0
v 20.355 		8.564 		0
v 20.314 		8.359 		0
v 20.3028 		8.192 		0
v 22.528 		6.6798 		0
v 22.7 		6.764 		0
v 22.874 		6.881 		0
v 23.031 		7.019 		0
v 23.169 		7.176 		0
v 23.286 		7.35 		0
v 23.378 		7.538 		0
v 23.445 		7.736 		0
v 23.486 		7.941 		0
v 22.109 		6.564 		0
v 22.314 		6.605 		0
v 22.512 		6.672 		0
v 20.48 		7.4195 		0
v 20.514 		7.35 		0
v 20.631 		7.176 		0
v 20.769 		7.019 		0
v 20.926 		6.881 		0
v 21.1 		6.764 		0
v 21.288 		6.672 		0
v 21.486 		6.605 		0
v 21.691 		6.564 		0
v 53.3593 		0.0593 		4.599
v 20.314 		7.941 		0
v 20.355 		7.736 		0
v 20.422 		7.538 		0
v 56.9 		-13.75 		1.261
v 56.9 		10.403 		1.261
v 23.5 		8.15 		1.261
v 53.8568 		0.5562 		4.599
v 56.9 		8.15 		1.261
v 53.8568 		3.6438 		4.599
v 21.9 		9.75 		1.261
v 95.591 		0.375 		3.575
v 95.492 		0.342 		3.541
v 23.031 		9.281 		4.48
v 22.874 		9.419 		4.48
v 22.7 		9.536 		4.48
v 23.486 		8.359 		4.48
v 23.445 		8.564 		4.48
v 23.378 		8.762 		4.48
v 23.286 		8.95 		4.48
v 23.169 		9.124 		4.48
v 21.9 		9.75 		4.48
v 21.691 		9.736 		4.48
v 21.486 		9.695 		4.48
v 21.288 		9.628 		4.48
v 21.1 		9.536 		4.48
v 20.926 		9.419 		4.48
v 20.769 		9.281 		4.48
v 20.631 		9.124 		4.48
v 20.514 		8.95 		4.48
v 22.512 		9.628 		4.48
v 22.314 		9.695 		4.48
v 22.109 		9.736 		4.48
v 20.422 		8.762 		4.48
v 20.355 		8.564 		4.48
v 20.314 		8.359 		4.48
v 99.601 		0.402 		3.603
v 60.4 		-6.3 		0
v 62.8 		-6.3 		0
v 62 		-8.2 		0
v 23.5 		8.15 		4.48
v 22.7 		6.764 		4.48
v 22.874 		6.881 		4.48
v 23.031 		7.019 		4.48
v 23.169 		7.176 		4.48
v 23.286 		7.35 		4.48
v 23.378 		7.538 		4.48
v 23.445 		7.736 		4.48
v 23.486 		7.941 		4.48
v 21.691 		6.564 		4.48
v 21.9 		6.55 		4.48
v 22.109 		6.564 		4.48
v 22.314 		6.605 		4.48
v 22.512 		6.672 		4.48
v 20.514 		7.35 		4.48
v 20.631 		7.176 		4.48
v 20.769 		7.019 		4.48
v 20.926 		6.881 		4.48
v 21.1 		6.764 		4.48
v 21.288 		6.672 		4.48
v 21.486 		6.605 		4.48
v 20.314 		7.941 		4.48
v 20.355 		7.736 		4.48
v 20.422 		7.538 		4.48
v 20.3 		8.15 		4.48
v 99.601 		2.566 		3.603
v 101.009 		-5.975 		2.025
v 100.906 		-5.996 		2.004
v 100.802 		-6.003 		1.998
v 101.368 		-5.768 		2.233
v 95.025 		-2.593 		1.261
v 95.058 		-2.494 		1.261
v 95.105 		-2.4 		1.261
v 95.163 		-2.313 		1.261
v 95.232 		-2.234 		1.261
v 95.311 		-2.165 		1.261
v 95.398 		-2.107 		1.261
v 95.492 		-2.06 		1.261
v 95.591 		-2.027 		1.261
v 95.694 		-2.006 		1.261
v 95.798 		-1.999 		1.261
v 95.232 		-0.964 		1.261
v 95.163 		-0.886 		1.261
v 59.112 		-12.272 		1.261
v 59.1447 		-12.288 		1.261
v 95.105 		-0.798 		1.261
v 95.058 		-0.705 		1.261
v 58.914 		-12.205 		1.261
v 95.025 		-0.605 		1.261
v 95.004 		-0.503 		1.261
v 58.709 		-12.164 		1.261
v 94.998 		-0.398 		1.261
v 95.004 		-0.294 		1.261
v 58.5 		-12.15 		1.261
v 95.025 		-0.191 		1.261
v 58.4273 		-12.1549 		1.261
v 95.0563 		-0.097 		1.261
v 58.291 		-12.164 		1.261
v 95.798 		-1.199 		1.261
v 95.694 		-1.192 		1.261
v 95.591 		-1.171 		1.261
v 58.086 		-12.205 		1.261
v 95.492 		-1.138 		1.261
v 95.398 		-1.091 		1.261
v 57.888 		-12.272 		1.261
v 95.311 		-1.033 		1.261
v 57.8553 		-12.288 		1.261
v 60.045 		-14.164 		1.261
v 59.9868 		-14.336 		1.261
v 95.798 		-3.601 		1.261
v 60.086 		-13.959 		1.261
v 95.798 		-4.401 		1.261
v 60.1 		-13.75 		1.261
v 94.998 		-5.202 		1.261
v 94.998 		-2.8 		1.261
v 60.086 		-13.541 		1.261
v 101.603 		-5.202 		1.261
v 60.045 		-13.336 		1.261
v 101.596 		-5.306 		1.261
v 101.575 		-5.409 		1.261
v 59.978 		-13.138 		1.261
v 101.5437 		-5.503 		1.261
v 59.886 		-12.95 		1.261
v 101.603 		-5.503 		1.261
v 59.769 		-12.776 		1.261
v 100.802 		-4.401 		1.261
v 100.906 		-4.408 		1.261
v 101.009 		-4.429 		1.261
v 59.631 		-12.619 		1.261
v 101.108 		-4.462 		1.261
v 101.202 		-4.509 		1.261
v 101.289 		-4.567 		1.261
v 59.474 		-12.481 		1.261
v 101.368 		-4.636 		1.261
v 59.392 		-12.4259 		1.261
v 101.437 		-4.714 		1.261
v 101.495 		-4.802 		1.261
v 59.3 		-12.364 		1.261
v 101.542 		-4.895 		1.261
v 101.575 		-4.995 		1.261
v 101.596 		-5.097 		1.261
v 62 		2.6 		0
v 101.368 		-3.366 		1.261
v 101.289 		-3.435 		1.261
v 62.8 		0.7 		0
v 60.4 		0.7 		0
v 101.202 		-3.493 		1.261
v 64.6 		-6.3 		0
v 67 		-6.3 		0
v 101.108 		-3.54 		1.261
v 67 		0.7 		0
v 64.6 		0.7 		0
v 101.009 		-3.573 		1.261
v 68.8 		-6.3 		0
v 71.2 		-6.3 		0
v 100.906 		-3.594 		1.261
v 71.2 		0.7 		0
v 68.8 		0.7 		0
v 100.802 		-3.601 		1.261
v 101.542 		-3.106 		1.261
v 75.4 		-6.3 		0
v 73 		-6.3 		0
v 101.495 		-3.2 		1.261
v 75.4 		0.7 		0
v 73 		0.7 		0
v 101.437 		-3.287 		1.261
v 77.2 		-6.3 		0
v 79.6 		-6.3 		0
v 79.6 		0.7 		0
v 77.2 		0.7 		0
v 101.603 		-3.601 		1.261
v 101.108 		-2.06 		1.261
v 101.202 		-2.107 		1.261
v 101.289 		-2.165 		1.261
v 101.368 		-2.234 		1.261
v 101.437 		-2.313 		1.261
v 58.5 		6.55 		0
v 101.495 		-2.4 		1.261
v 58.5 		-12.15 		0
v 101.542 		-2.494 		1.261
v 101.575 		-2.593 		1.261
v 101.596 		-2.695 		1.261
v 101.603 		-2.8 		1.261
v 101.596 		-2.905 		1.261
v 59.1447 		-12.288 		0
v 59.112 		-12.272 		0
v 101.575 		-3.007 		1.261
v 58.914 		-12.205 		0
v 100.802 		-1.999 		1.261
v 100.906 		-2.006 		1.261
v 58.8 		-12.1822 		0
v 101.009 		-2.027 		1.261
v 58.709 		-12.164 		0
v 58.291 		-12.164 		0
v 58.086 		-12.205 		0
v 101.368 		-0.964 		1.261
v 57.888 		-12.272 		0
v 57.8553 		-12.288 		0
v 101.289 		-1.033 		1.261
v 101.202 		-1.091 		1.261
v 101.108 		-1.138 		1.261
v 59.9868 		-14.336 		0
v 60.045 		-14.164 		0
v 101.009 		-1.171 		1.261
v 60.086 		-13.959 		0
v 100.906 		-1.192 		1.261
v 60.1 		-13.75 		0
v 100.802 		-1.199 		1.261
v 60.086 		-13.541 		0
v 60.045 		-13.336 		0
v 101.5437 		-0.097 		1.261
v 101.575 		-0.191 		1.261
v 101.596 		-0.294 		1.261
v 101.603 		-0.398 		1.261
v 101.603 		-0.097 		1.261
v 101.596 		-0.503 		1.261
v 101.575 		-0.605 		1.261
v 101.542 		-0.705 		1.261
v 101.495 		-0.798 		1.261
v 101.437 		-0.886 		1.261
v 101.603 		-1.199 		1.261
v 101.289 		-5.837 		2.163
v 95.798 		-4.401 		0
v 100.802 		-4.401 		0
v 95.798 		-1.999 		0
v 100.802 		-1.999 		0
v 95.798 		0.402 		0
v 100.802 		0.402 		0
v 100.802 		-1.199 		0
v 95.798 		-1.199 		0
v 100.802 		-3.601 		0
v 95.798 		-3.601 		0
v 100.802 		-6.003 		0
v 95.798 		-6.003 		0
v 101.202 		-5.895 		2.105
v 95.163 		-5.689 		0
v 95.232 		-5.768 		0
v 95.105 		-5.602 		0
v 95.058 		-5.508 		0
v 95.025 		-5.409 		0
v 95.004 		-5.306 		0
v 94.998 		-5.202 		0
v 95.694 		-5.996 		0
v 95.591 		-5.975 		0
v 95.492 		-5.942 		0
v 59.978 		-13.138 		0
v 95.398 		-5.895 		0
v 59.886 		-12.95 		0
v 95.311 		-5.837 		0
v 59.769 		-12.776 		0
v 95.004 		-5.097 		0
v 59.631 		-12.619 		0
v 95.025 		-4.995 		0
v 59.474 		-12.481 		0
v 59.392 		-12.4259 		0
v 95.058 		-4.895 		0
v 95.105 		-4.802 		0
v 95.163 		-4.714 		0
v 95.232 		-4.636 		0
v 59.3 		-12.364 		0
v 95.311 		-4.567 		0
v 57.7 		-12.364 		0
v 57.526 		-12.481 		0
v 95.398 		-4.509 		0
v 57.369 		-12.619 		0
v 95.492 		-4.462 		0
v 57.344 		-12.6474 		0
v 95.591 		-4.429 		0
v 95.694 		-4.408 		0
v 59.392 		-15.0741 		0
v 59.474 		-15.019 		0
v 59.631 		-14.881 		0
v 59.769 		-14.724 		0
v 59.886 		-14.55 		0
v 59.978 		-14.362 		0
v 95.025 		-5.409 		1.261
v 95.0563 		-5.503 		1.261
v 58.5 		-15.35 		0
v 58.709 		-15.336 		0
v 95.004 		-5.306 		1.261
v 58.8 		-15.3178 		0
v 58.914 		-15.295 		0
v 59.112 		-15.228 		0
v 59.3 		-15.136 		0
v 57.344 		-14.8526 		0
v 57.369 		-14.881 		0
v 57.526 		-15.019 		0
v 57.7 		-15.136 		0
v 57.888 		-15.228 		0
v 58.086 		-15.295 		0
v 58.291 		-15.336 		0
v 95.004 		-5.097 		1.261
v 95.025 		-4.995 		1.261
v 95.058 		-4.895 		1.261
v 57.7 		-12.364 		1.261
v 95.105 		-4.802 		1.261
v 57.526 		-12.481 		1.261
v 95.163 		-4.714 		1.261
v 57.369 		-12.619 		1.261
v 95.232 		-4.636 		1.261
v 95.311 		-4.567 		1.261
v 57.344 		-12.6474 		1.261
v 95.398 		-4.509 		1.261
v 95.492 		-4.462 		1.261
v 59.474 		-15.019 		1.261
v 59.392 		-15.0741 		1.261
v 95.591 		-4.429 		1.261
v 95.694 		-4.408 		1.261
v 59.631 		-14.881 		1.261
v 95.163 		-3.287 		0
v 59.769 		-14.724 		1.261
v 95.232 		-3.366 		0
v 95.105 		-3.2 		0
v 59.886 		-14.55 		1.261
v 95.058 		-3.106 		0
v 59.978 		-14.362 		1.261
v 95.694 		-3.594 		0
v 95.591 		-3.573 		0
v 58.709 		-15.336 		1.261
v 58.5 		-15.35 		1.261
v 95.492 		-3.54 		0
v 95.398 		-3.493 		0
v 58.914 		-15.295 		1.261
v 95.311 		-3.435 		0
v 59.112 		-15.228 		1.261
v 95.025 		-3.007 		0
v 59.3 		-15.136 		1.261
v 95.004 		-2.905 		0
v 94.998 		-2.8 		0
v 95.004 		-2.695 		0
v 57.369 		-14.881 		1.261
v 57.344 		-14.8526 		1.261
v 95.025 		-2.593 		0
v 57.526 		-15.019 		1.261
v 95.058 		-2.494 		0
v 95.105 		-2.4 		0
v 57.7 		-15.136 		1.261
v 95.163 		-2.313 		0
v 57.888 		-15.228 		1.261
v 95.232 		-2.234 		0
v 58.086 		-15.295 		1.261
v 95.311 		-2.165 		0
v 95.398 		-2.107 		0
v 58.291 		-15.336 		1.261
v 95.492 		-2.06 		0
v 95.591 		-2.027 		0
v 58.4273 		-15.3451 		1.261
v 95.694 		-2.006 		0
v 95.163 		-3.287 		1.261
v 95.232 		-3.366 		1.261
v 57.231 		-12.776 		1.261
v 95.105 		-3.2 		1.261
v 95.058 		-3.106 		1.261
v 57.114 		-12.95 		1.261
v 57.022 		-13.138 		1.261
v 95.694 		-3.594 		1.261
v 56.955 		-13.336 		1.261
v 95.591 		-3.573 		1.261
v 95.492 		-3.54 		1.261
v 56.914 		-13.541 		1.261
v 56.914 		-13.959 		1.261
v 56.955 		-14.164 		1.261
v 57.022 		-14.362 		1.261
v 57.114 		-14.55 		1.261
v 57.231 		-14.724 		1.261
v 60.1 		8.15 		0
v 62 		13 		0
v 58.5 		9.75 		0
v 60.0972 		8.192 		0
v 60.086 		8.359 		0
v 60.045 		8.564 		0
v 59.978 		8.762 		0
v 59.886 		8.95 		0
v 59.769 		9.124 		0
v 59.631 		9.281 		0
v 59.474 		9.419 		0
v 59.392 		9.4741 		0
v 59.3 		9.536 		0
v 59.112 		9.628 		0
v 58.914 		9.695 		0
v 58.709 		9.736 		0
v 58.291 		9.736 		0
v 58.086 		9.695 		0
v 57.888 		9.628 		0
v 57.7 		9.536 		0
v 57.526 		9.419 		0
v 57.369 		9.281 		0
v 57.344 		9.2526 		0
v 57.231 		9.124 		0
v 57.114 		8.95 		0
v 57.022 		8.762 		0
v 56.955 		8.564 		0
v 56.914 		8.359 		0
v 56.9028 		8.192 		0
v 59.392 		6.8259 		0
v 59.474 		6.881 		0
v 59.631 		7.019 		0
v 59.769 		7.176 		0
v 59.886 		7.35 		0
v 59.978 		7.538 		0
v 60.045 		7.736 		0
v 60.086 		7.941 		0
v 58.709 		6.564 		0
v 58.8 		6.5822 		0
v 58.914 		6.605 		0
v 59.112 		6.672 		0
v 59.3 		6.764 		0
v 57.344 		7.0474 		0
v 57.369 		7.019 		0
v 57.526 		6.881 		0
v 57.7 		6.764 		0
v 57.888 		6.672 		0
v 58.086 		6.605 		0
v 58.291 		6.564 		0
v 56.914 		7.941 		0
v 56.955 		7.736 		0
v 57.022 		7.538 		0
v 57.114 		7.35 		0
v 57.231 		7.176 		0
v 60.1 		8.15 		1.261
v 60.603 		12.202 		4.8
v 60.403 		10.403 		4.8
v 60.603 		11.197 		4.8
v 62 		13 		4.8
v 60.603 		12.202 		2.798
v 60.603 		11.197 		2.798
v 60.403 		10.403 		1.261
v 58.5 		9.75 		1.261
v 59.886 		8.95 		4.48
v 59.769 		9.124 		4.48
v 59.631 		9.281 		4.48
v 59.474 		9.419 		4.48
v 60.086 		8.359 		4.48
v 60.045 		8.564 		4.48
v 59.978 		8.762 		4.48
v 58.5 		9.75 		4.48
v 58.291 		9.736 		4.48
v 58.086 		9.695 		4.48
v 57.888 		9.628 		4.48
v 57.7 		9.536 		4.48
v 57.526 		9.419 		4.48
v 57.369 		9.281 		4.48
v 59.3 		9.536 		4.48
v 59.112 		9.628 		4.48
v 58.914 		9.695 		4.48
v 58.709 		9.736 		4.48
v 57.231 		9.124 		4.48
v 57.114 		8.95 		4.48
v 57.022 		8.762 		4.48
v 56.955 		8.564 		4.48
v 56.914 		8.359 		4.48
v 60.1 		8.15 		4.48
v 59.474 		6.881 		4.48
v 59.631 		7.019 		4.48
v 59.769 		7.176 		4.48
v 59.886 		7.35 		4.48
v 59.978 		7.538 		4.48
v 60.045 		7.736 		4.48
v 60.086 		7.941 		4.48
v 58.291 		6.564 		4.48
v 58.5 		6.55 		4.48
v 58.709 		6.564 		4.48
v 58.914 		6.605 		4.48
v 59.112 		6.672 		4.48
v 59.3 		6.764 		4.48
v 57.369 		7.019 		4.48
v 57.526 		6.881 		4.48
v 57.7 		6.764 		4.48
v 57.888 		6.672 		4.48
v 58.086 		6.605 		4.48
v 56.955 		7.736 		4.48
v 57.022 		7.538 		4.48
v 57.114 		7.35 		4.48
v 57.231 		7.176 		4.48
v 56.9 		8.15 		4.48
v 56.914 		7.941 		4.48
v 101.108 		-5.942 		2.059
v 21.9 		6.55 		1.261
v 21.9 		-12.15 		1.261
v 22.403 		3.202 		0.478
v 22.403 		-8.803 		0.478
v 21.9 		-12.15 		4.48
v 21.691 		-12.164 		4.48
v 21.486 		-12.205 		4.48
v 21.288 		-12.272 		4.48
v 22.512 		-12.272 		4.48
v 22.314 		-12.205 		4.48
v 22.109 		-12.164 		4.48
v 23.5 		-13.75 		4.48
v 23.486 		-13.541 		4.48
v 23.445 		-13.336 		4.48
v 23.378 		-13.138 		4.48
v 23.286 		-12.95 		4.48
v 23.169 		-12.776 		4.48
v 23.031 		-12.619 		4.48
v 22.874 		-12.481 		4.48
v 22.7 		-12.364 		4.48
v 23.445 		-14.164 		4.48
v 23.486 		-13.959 		4.48
v 21.1 		-12.364 		4.48
v 20.926 		-12.481 		4.48
v 20.769 		-12.619 		4.48
v 20.631 		-12.776 		4.48
v 20.514 		-12.95 		4.48
v 23.169 		-14.724 		4.48
v 23.286 		-14.55 		4.48
v 23.378 		-14.362 		4.48
v 101.575 		-5.503 		3.008
v 22.7 		-15.136 		4.48
v 22.874 		-15.019 		4.48
v 23.031 		-14.881 		4.48
v 101.596 		-5.503 		2.905
v 21.691 		-15.336 		4.48
v 21.9 		-15.35 		4.48
v 22.109 		-15.336 		4.48
v 22.314 		-15.295 		4.48
v 22.512 		-15.228 		4.48
v 20.514 		-14.55 		4.48
v 20.631 		-14.724 		4.48
v 20.769 		-14.881 		4.48
v 20.926 		-15.019 		4.48
v 21.1 		-15.136 		4.48
v 21.288 		-15.228 		4.48
v 21.486 		-15.295 		4.48
v 20.314 		-13.959 		4.48
v 20.355 		-14.164 		4.48
v 20.422 		-14.362 		4.48
v 20.422 		-13.138 		4.48
v 20.355 		-13.336 		4.48
v 20.314 		-13.541 		4.48
v 20.3 		-13.75 		4.48
v 57.231 		-12.776 		0
v 57.114 		-12.95 		0
v 57.022 		-13.138 		0
v 56.955 		-13.336 		0
v 56.914 		-13.541 		0
v 56.914 		-13.959 		0
v 56.955 		-14.164 		0
v 57.022 		-14.362 		0
v 57.114 		-14.55 		0
v 57.231 		-14.724 		0
v 102.4 		2.6 		0
v 102.4 		2.6 		4.8
v 102.4 		-8.2 		4.8
v 102.4 		-8.2 		0
v 94.403 		1.802 		4.8
v 79.6 		-0.097 		4.8
v 94.403 		0.797 		4.8
v 79.6 		0.7 		4.8
v 94.403 		-6.398 		4.8
v 79.6 		-5.503 		4.8
v 79.6 		-6.3 		4.8
v 94.403 		-7.403 		4.8
v 95.798 		0.402 		4.8
v 95.0563 		-0.097 		4.8
v 95.058 		-0.092 		4.8
v 95.105 		0.002 		4.8
v 95.163 		0.089 		4.8
v 95.232 		0.168 		4.8
v 95.311 		0.237 		4.8
v 95.398 		0.295 		4.8
v 95.492 		0.342 		4.8
v 95.591 		0.375 		4.8
v 95.694 		0.396 		4.8
v 100.802 		0.402 		4.8
v 101.542 		-0.092 		4.8
v 101.5437 		-0.097 		4.8
v 101.603 		-0.097 		4.8
v 100.906 		0.396 		4.8
v 101.009 		0.375 		4.8
v 101.108 		0.342 		4.8
v 101.202 		0.295 		4.8
v 101.289 		0.237 		4.8
v 101.368 		0.168 		4.8
v 101.437 		0.089 		4.8
v 101.495 		0.002 		4.8
v 95.798 		-6.003 		4.8
v 95.232 		-5.768 		4.8
v 95.163 		-5.689 		4.8
v 95.105 		-5.602 		4.8
v 95.058 		-5.508 		4.8
v 95.0563 		-5.503 		4.8
v 95.694 		-5.996 		4.8
v 95.591 		-5.975 		4.8
v 95.492 		-5.942 		4.8
v 95.398 		-5.895 		4.8
v 95.311 		-5.837 		4.8
v 100.802 		-6.003 		4.8
v 101.368 		-5.768 		4.8
v 101.289 		-5.837 		4.8
v 101.202 		-5.895 		4.8
v 101.108 		-5.942 		4.8
v 101.009 		-5.975 		4.8
v 100.906 		-5.996 		4.8
v 101.5437 		-5.503 		4.8
v 101.542 		-5.508 		4.8
v 101.495 		-5.602 		4.8
v 101.437 		-5.689 		4.8
v 101.603 		-5.503 		4.8
v 97.8 		-8.2 		4.8
v 95.798 		-8.2 		3.603
v 96.999 		-8.2 		3.603
v 96.999 		-8.2 		1.998
v 95.798 		-8.2 		1.998
v 95.694 		-8.2 		2.004
v 95.591 		-8.2 		2.025
v 95.492 		-8.2 		2.059
v 95.398 		-8.2 		2.105
v 95.311 		-8.2 		2.163
v 95.232 		-8.2 		2.233
v 95.163 		-8.2 		2.311
v 95.105 		-8.2 		2.399
v 95.058 		-8.2 		2.493
v 95.025 		-8.2 		2.592
v 95.004 		-8.2 		2.695
v 94.998 		-8.2 		2.8
v 95.004 		-8.2 		2.905
v 95.025 		-8.2 		3.008
v 95.058 		-8.2 		3.107
v 95.105 		-8.2 		3.201
v 95.163 		-8.2 		3.289
v 95.232 		-8.2 		3.367
v 95.311 		-8.2 		3.437
v 95.398 		-8.2 		3.495
v 95.492 		-8.2 		3.541
v 95.591 		-8.2 		3.575
v 95.694 		-8.2 		3.596
v 101.009 		-8.2 		2.025
v 95.694 		0.396 		3.596
v 100.906 		-8.2 		2.004
v 100.802 		-8.2 		1.998
v 101.575 		-8.2 		3.008
v 101.596 		-8.2 		2.905
v 101.603 		-8.2 		2.8
v 101.596 		-8.2 		2.695
v 101.575 		-8.2 		2.592
v 101.542 		-8.2 		2.493
v 101.495 		-8.2 		2.399
v 101.603 		-5.503 		2.8
v 22.512 		-12.272 		1.261
v 22.5447 		-12.288 		1.261
v 101.596 		-5.503 		2.695
v 101.575 		-5.503 		2.592
v 95.798 		0.402 		3.603
v 22.314 		-12.205 		1.261
v 101.5437 		-5.503 		2.498
v 101.542 		-5.508 		2.493
v 22.109 		-12.164 		1.261
v 21.691 		-12.164 		1.261
v 21.486 		-12.205 		1.261
v 101.495 		-5.602 		2.399
v 21.288 		-12.272 		1.261
v 21.2553 		-12.288 		1.261
v 23.445 		-14.164 		1.261
v 23.486 		-13.959 		1.261
v 101.437 		-5.689 		2.311
v 23.486 		-13.541 		1.261
v 23.445 		-13.336 		1.261
v 23.378 		-13.138 		1.261
v 23.286 		-12.95 		1.261
v 23.169 		-12.776 		1.261
v 23.031 		-12.619 		1.261
v 22.874 		-12.481 		1.261
v 22.7 		-12.364 		1.261
v 21.1 		-12.364 		1.261
v 20.926 		-12.481 		1.261
v 20.769 		-12.619 		1.261
v 20.631 		-12.776 		1.261
v 20.514 		-12.95 		1.261
v 100.802 		-6.003 		3.603
v 100.906 		-5.996 		3.596
v 95.798 		2.566 		1.998
v 95.694 		2.566 		2.004
v 95.591 		2.566 		2.025
v 101.009 		-5.975 		3.575
v 95.492 		2.566 		2.059
v 95.398 		2.566 		2.105
v 95.311 		2.566 		2.163
v 95.232 		2.566 		2.233
v 101.108 		-5.942 		3.541
v 95.163 		2.566 		2.311
v 95.105 		2.566 		2.399
v 95.058 		2.566 		2.493
v 95.025 		2.566 		2.592
v 95.004 		2.566 		2.695
v 101.202 		-5.895 		3.495
v 94.998 		2.566 		2.8
v 95.004 		2.566 		2.905
v 95.025 		2.566 		3.008
v 95.058 		2.566 		3.107
v 95.105 		2.566 		3.201
v 95.163 		2.566 		3.289
v 101.289 		-5.837 		3.437
v 95.232 		2.566 		3.367
v 95.311 		2.566 		3.437
v 95.398 		2.566 		3.495
v 95.492 		2.566 		3.541
v 95.591 		2.566 		3.575
v 95.694 		2.566 		3.596
v 95.798 		2.566 		3.603
v 101.368 		-5.768 		3.367
v 101.437 		-5.689 		3.289
v 101.495 		-5.602 		3.201
v 101.542 		-5.508 		3.107
v 60.086 		8.359 		1.261
v 60.0972 		8.192 		1.261
v 99.394 		2.566 		2.025
v 99.496 		2.566 		2.004
v 99.601 		2.566 		1.998
v 60.045 		8.564 		1.261
v 101.5437 		-5.503 		3.102
v 59.978 		8.762 		1.261
v 59.886 		8.95 		1.261
v 59.769 		9.124 		1.261
v 59.631 		9.281 		1.261
v 98.828 		2.566 		3.008
v 98.807 		2.566 		2.905
v 98.8 		2.566 		2.8
v 98.807 		2.566 		2.695
v 59.474 		9.419 		1.261
v 98.828 		2.566 		2.592
v 98.861 		2.566 		2.493
v 98.908 		2.566 		2.399
v 98.966 		2.566 		2.311
v 99.035 		2.566 		2.233
v 99.114 		2.566 		2.163
v 99.201 		2.566 		2.105
v 99.295 		2.566 		2.059
v 59.392 		9.4741 		1.261
v 59.3 		9.536 		1.261
v 59.112 		9.628 		1.261
v 58.914 		9.695 		1.261
v 100.802 		-8.2 		3.603
v 99.295 		2.566 		3.541
v 99.201 		2.566 		3.495
v 99.114 		2.566 		3.437
v 99.035 		2.566 		3.367
v 58.709 		9.736 		1.261
v 98.966 		2.566 		3.289
v 98.908 		2.566 		3.201
v 98.861 		2.566 		3.107
v 58.4273 		9.7451 		1.261
v 99.496 		2.566 		3.596
v 99.394 		2.566 		3.575
v 58.291 		9.736 		1.261
v 58.086 		9.695 		1.261
v 57.888 		9.628 		1.261
v 57.7 		9.536 		1.261
v 57.526 		9.419 		1.261
v 99.601 		0.402 		1.998
v 57.369 		9.281 		1.261
v 57.344 		9.2526 		1.261
v 98.8 		0.402 		1.998
v 57.231 		9.124 		1.261
v 97.206 		0.402 		2.025
v 57.114 		8.95 		1.261
v 97.104 		0.402 		2.004
v 57.022 		8.762 		1.261
v 56.955 		8.564 		1.261
v 96.999 		0.402 		1.998
v 56.914 		8.359 		1.261
v 56.9028 		8.192 		1.261
v 59.474 		6.881 		1.261
v 59.392 		6.8259 		1.261
v 97.772 		0.402 		3.008
v 59.631 		7.019 		1.261
v 59.769 		7.176 		1.261
v 97.793 		0.402 		2.905
v 59.886 		7.35 		1.261
v 59.978 		7.538 		1.261
v 97.8 		0.402 		2.8
v 60.045 		7.736 		1.261
v 60.086 		7.941 		1.261
v 97.793 		0.402 		2.695
v 97.772 		0.402 		2.592
v 58.709 		6.564 		1.261
v 58.5 		6.55 		1.261
v 97.739 		0.402 		2.493
v 58.914 		6.605 		1.261
v 59.112 		6.672 		1.261
v 97.692 		0.402 		2.399
v 59.3 		6.764 		1.261
v 97.634 		0.402 		2.311
v 57.369 		7.019 		1.261
v 57.344 		7.0474 		1.261
v 97.565 		0.402 		2.233
v 57.526 		6.881 		1.261
v 57.7 		6.764 		1.261
v 97.486 		0.402 		2.163
v 57.888 		6.672 		1.261
v 97.399 		0.402 		2.105
v 58.086 		6.605 		1.261
v 58.291 		6.564 		1.261
v 97.305 		0.402 		2.059
v 58.4273 		6.5549 		1.261
v 97.104 		0.402 		3.596
v 96.999 		0.402 		3.603
v 56.914 		7.941 		1.261
v 97.206 		0.402 		3.575
v 99.601 		-8.2 		1.998
v 56.955 		7.736 		1.261
v 99.496 		-8.2 		2.004
v 99.394 		-8.2 		2.025
v 57.022 		7.538 		1.261
v 57.114 		7.35 		1.261
v 99.295 		-8.2 		2.059
v 57.231 		7.176 		1.261
v 97.305 		0.402 		3.541
v 99.201 		-8.2 		2.105
v 99.114 		-8.2 		2.163
v 97.399 		0.402 		3.495
v 99.035 		-8.2 		2.233
v 98.966 		-8.2 		2.311
v 97.486 		0.402 		3.437
v 98.908 		-8.2 		2.399
v 98.861 		-8.2 		2.493
v 97.565 		0.402 		3.367
v 98.828 		-8.2 		2.592
v 98.807 		-8.2 		2.695
v 97.634 		0.402 		3.289
v 98.8 		-8.2 		2.8
v 97.692 		0.402 		3.201
v 98.807 		-8.2 		2.905
v 98.828 		-8.2 		3.008
v 97.739 		0.402 		3.107
v 98.861 		-8.2 		3.107
v 98.908 		-8.2 		3.201
v 98.966 		-8.2 		3.289
v 97.8 		0.402 		3.603
v 99.035 		-8.2 		3.367
v 99.114 		-8.2 		3.437
v 99.201 		-8.2 		3.495
v 99.295 		-8.2 		3.541
v 99.394 		-8.2 		3.575
v 99.496 		-8.2 		3.596
v 99.601 		-8.2 		3.603
v 23.486 		8.359 		1.261
v 23.4972 		8.192 		1.261
v 23.445 		8.564 		1.261
v 23.378 		8.762 		1.261
v 23.286 		8.95 		1.261
v 23.169 		9.124 		1.261
v 23.031 		9.281 		1.261
v 22.874 		9.419 		1.261
v 22.7 		9.536 		1.261
v 22.528 		9.6202 		1.261
v 22.512 		9.628 		1.261
v 22.314 		9.695 		1.261
v 22.109 		9.736 		1.261
v 21.691 		9.736 		1.261
v 21.486 		9.695 		1.261
v 21.288 		9.628 		1.261
v 21.1 		9.536 		1.261
v 20.926 		9.419 		1.261
v 101.437 		-8.2 		2.311
v 20.769 		9.281 		1.261
v 101.368 		-8.2 		2.233
v 101.289 		-8.2 		2.163
v 20.631 		9.124 		1.261
v 101.202 		-8.2 		2.105
v 101.108 		-8.2 		2.059
v 20.514 		8.95 		1.261
v 100.906 		-8.2 		3.596
v 20.48 		8.8805 		1.261
v 101.009 		-8.2 		3.575
v 101.108 		-8.2 		3.541
v 20.422 		8.762 		1.261
v 101.202 		-8.2 		3.495
v 101.289 		-8.2 		3.437
v 101.368 		-8.2 		3.367
v 20.355 		8.564 		1.261
v 101.437 		-8.2 		3.289
v 20.314 		8.359 		1.261
v 101.495 		-8.2 		3.201
v 101.542 		-8.2 		3.107
v 20.3028 		8.192 		1.261
v 22.7 		6.764 		1.261
v 22.528 		6.6798 		1.261
v 22.874 		6.881 		1.261
v 23.031 		7.019 		1.261
v 23.169 		7.176 		1.261
v 23.286 		7.35 		1.261
v 98.8 		-8.2 		1.998
v 23.378 		7.538 		1.261
v 23.445 		7.736 		1.261
v 23.486 		7.941 		1.261
v 22.109 		6.564 		1.261
v 22.314 		6.605 		1.261
v 22.512 		6.672 		1.261
v 20.514 		7.35 		1.261
v 20.48 		7.4195 		1.261
v 20.631 		7.176 		1.261
v 20.769 		7.019 		1.261
v 20.926 		6.881 		1.261
v 21.1 		6.764 		1.261
v 21.288 		6.672 		1.261
v 97.206 		-8.2 		2.025
v 21.486 		6.605 		1.261
v 97.104 		-8.2 		2.004
v 21.691 		6.564 		1.261
v 97.772 		-8.2 		3.008
v 97.793 		-8.2 		2.905
v 97.8 		-8.2 		2.8
v 97.793 		-8.2 		2.695
v 20.314 		7.941 		1.261
v 97.772 		-8.2 		2.592
v 97.739 		-8.2 		2.493
v 20.355 		7.736 		1.261
v 97.692 		-8.2 		2.399
v 20.422 		7.538 		1.261
v 97.634 		-8.2 		2.311
v 97.565 		-8.2 		2.233
v 97.486 		-8.2 		2.163
v 97.399 		-8.2 		2.105
v 97.305 		-8.2 		2.059
v 97.104 		-8.2 		3.596
v 97.206 		-8.2 		3.575
v 60.403 		-16.798 		4.8
v 60.403 		-16.003 		4.8
v 60.403 		-17.803 		4.8
v 62 		-18.6 		4.8
v 62 		-18.6 		0
v 60.403 		-16.798 		2.798
v 60.403 		-17.803 		2.798
v 60.403 		-16.003 		1.261
v 95.798 		0.402 		1.998
v 101.575 		-0.097 		3.008
v 101.596 		-0.097 		2.905
v 101.603 		-0.097 		2.8
v 101.596 		-0.097 		2.695
v 101.575 		-0.097 		2.592
v 101.542 		-0.092 		2.493
v 101.5437 		-0.097 		2.498
v 95.798 		-8.2 		0
v 101.542 		-0.092 		3.107
v 101.5437 		-0.097 		3.102
v 101.009 		0.375 		2.025
v 100.906 		0.396 		2.004
v 100.802 		0.402 		1.998
v 101.368 		0.168 		2.233
v 101.289 		0.237 		2.163
v 101.202 		0.295 		2.105
v 101.108 		0.342 		2.059
v 101.495 		0.002 		2.399
v 101.437 		0.089 		2.311
v 100.906 		0.396 		3.596
v 100.802 		0.402 		3.603
v 101.009 		0.375 		3.575
v 101.108 		0.342 		3.541
v 101.202 		0.295 		3.495
v 101.289 		0.237 		3.437
v 101.368 		0.168 		3.367
v 101.437 		0.089 		3.289
v 101.495 		0.002 		3.201
v 97.206 		2.566 		2.025
v 97.104 		2.566 		2.004
v 96.999 		2.566 		1.998
v 97.772 		2.566 		3.008
v 97.793 		2.566 		2.905
v 97.8 		2.566 		2.8
v 97.793 		2.566 		2.695
v 97.772 		2.566 		2.592
v 97.739 		2.566 		2.493
v 97.692 		2.566 		2.399
v 97.634 		2.566 		2.311
v 97.565 		2.566 		2.233
v 97.486 		2.566 		2.163
v 97.399 		2.566 		2.105
v 97.305 		2.566 		2.059
v 97.104 		2.566 		3.596
v 96.999 		2.566 		3.603
v 97.206 		2.566 		3.575
v 97.305 		2.566 		3.541
v 97.399 		2.566 		3.495
v 97.486 		2.566 		3.437
v 97.565 		2.566 		3.367
v 97.634 		2.566 		3.289
v 97.692 		2.566 		3.201
v 97.739 		2.566 		3.107
v 98.8 		0.402 		2.8
v 97.305 		-8.2 		3.541
v 97.399 		-8.2 		3.495
v 95.0563 		-5.503 		2.498
v 97.486 		-8.2 		3.437
v 95.025 		-5.503 		2.592
v 97.565 		-8.2 		3.367
v 97.634 		-8.2 		3.289
v 97.692 		-8.2 		3.201
v 95.004 		-5.503 		2.695
v 97.739 		-8.2 		3.107
v 94.998 		-5.503 		2.8
v 95.004 		-5.503 		2.905
v 95.025 		-5.503 		3.008
v 95.0563 		-5.503 		3.102
v 95.398 		-3.493 		1.261
v 95.311 		-3.435 		1.261
v 95.025 		-3.007 		1.261
v 95.004 		-2.905 		1.261
v 95.004 		-2.695 		1.261
v 94.403 		1.802 		2.798
v 94.403 		0.797 		2.798
v 94.403 		-6.398 		2.798
v 94.403 		-7.403 		2.798
v 95.163 		-0.886 		0
v 95.232 		-0.964 		0
v 95.105 		-0.798 		0
v 95.058 		-0.705 		0
v 95.025 		-0.605 		0
v 95.004 		-0.503 		0
v 94.998 		-0.398 		0
v 95.004 		-0.294 		0
v 95.025 		-0.191 		0
v 95.058 		-0.092 		0
v 95.694 		-1.192 		0
v 95.591 		-1.171 		0
v 95.492 		-1.138 		0
v 95.398 		-1.091 		0
v 95.311 		-1.033 		0
v 95.105 		0.002 		0
v 95.163 		0.089 		0
v 95.232 		0.168 		0
v 95.311 		0.237 		0
v 95.398 		0.295 		0
v 95.492 		0.342 		0
v 95.591 		0.375 		0
v 95.694 		0.396 		0
v 95.798 		-6.003 		3.603
v 96.999 		-6.003 		3.603
v 96.999 		-6.003 		1.998
v 95.798 		-6.003 		1.998
v 101.368 		-5.768 		0
v 101.289 		-5.837 		0
v 101.202 		-5.895 		0
v 101.108 		-5.942 		0
v 101.009 		-5.975 		0
v 100.906 		-5.996 		0
v 101.603 		-5.202 		0
v 101.596 		-5.306 		0
v 101.575 		-5.409 		0
v 101.542 		-5.508 		0
v 101.495 		-5.602 		0
v 101.437 		-5.689 		0
v 100.906 		-4.408 		0
v 101.009 		-4.429 		0
v 101.108 		-4.462 		0
v 101.202 		-4.509 		0
v 101.289 		-4.567 		0
v 101.368 		-4.636 		0
v 99.601 		-6.003 		1.998
v 99.496 		-6.003 		2.004
v 101.437 		-4.714 		0
v 101.495 		-4.802 		0
v 99.394 		-6.003 		2.025
v 101.542 		-4.895 		0
v 101.575 		-4.995 		0
v 101.596 		-5.097 		0
v 99.295 		-6.003 		2.059
v 99.201 		-6.003 		2.105
v 99.114 		-6.003 		2.163
v 99.035 		-6.003 		2.233
v 98.966 		-6.003 		2.311
v 98.908 		-6.003 		2.399
v 98.861 		-6.003 		2.493
v 98.828 		-6.003 		2.592
v 98.807 		-6.003 		2.695
v 98.8 		-6.003 		2.8
v 98.807 		-6.003 		2.905
v 98.828 		-6.003 		3.008
v 101.368 		-3.366 		0
v 101.289 		-3.435 		0
v 101.202 		-3.493 		0
v 101.108 		-3.54 		0
v 98.861 		-6.003 		3.107
v 101.009 		-3.573 		0
v 100.906 		-3.594 		0
v 98.908 		-6.003 		3.201
v 79.6 		-0.097 		1.261
v 79.6 		-5.503 		1.261
v 98.966 		-6.003 		3.289
v 99.035 		-6.003 		3.367
v 99.114 		-6.003 		3.437
v 95.0563 		-0.097 		2.498
v 95.025 		-0.097 		2.592
v 99.201 		-6.003 		3.495
v 95.004 		-0.097 		2.695
v 99.295 		-6.003 		3.541
v 94.998 		-0.097 		2.8
v 95.004 		-0.097 		2.905
v 95.025 		-0.097 		3.008
v 95.0563 		-0.097 		3.102
v 99.394 		-6.003 		3.575
v 99.496 		-6.003 		3.596
v 99.601 		-6.003 		3.603
v 95.058 		-0.092 		2.493
v 95.058 		-0.092 		3.107
v 95.694 		0.396 		2.004
v 95.591 		0.375 		2.025
v 97.206 		-6.003 		2.025
v 97.104 		-6.003 		2.004
v 97.772 		-6.003 		3.008
v 97.793 		-6.003 		2.905
v 97.8 		-6.003 		2.8
v 97.793 		-6.003 		2.695
v 97.772 		-6.003 		2.592
v 97.739 		-6.003 		2.493
v 97.692 		-6.003 		2.399
v 97.634 		-6.003 		2.311
v 97.565 		-6.003 		2.233
v 97.486 		-6.003 		2.163
v 97.399 		-6.003 		2.105
v 97.305 		-6.003 		2.059
v 97.104 		-6.003 		3.596
v 97.206 		-6.003 		3.575
v 97.305 		-6.003 		3.541
v 97.399 		-6.003 		3.495
v 97.486 		-6.003 		3.437
v 97.565 		-6.003 		3.367
v 97.634 		-6.003 		3.289
v 97.692 		-6.003 		3.201
v 97.739 		-6.003 		3.107
v 95.694 		-5.996 		2.004
v 95.591 		-5.975 		2.025
v 95.232 		-5.768 		2.233
v 95.163 		-5.689 		2.311
v 95.105 		-5.602 		2.399
v 95.058 		-5.508 		2.493
v 95.163 		0.089 		2.311
v 95.232 		0.168 		2.233
v 95.105 		0.002 		2.399
v 95.492 		0.342 		2.059
v 95.398 		0.295 		2.105
v 95.311 		0.237 		2.163
v 95.105 		0.002 		3.201
v 101.542 		-3.106 		0
v 101.495 		-3.2 		0
v 101.437 		-3.287 		0
v 101.108 		-2.06 		0
v 101.202 		-2.107 		0
v 101.289 		-2.165 		0
v 101.368 		-2.234 		0
v 101.437 		-2.313 		0
v 101.495 		-2.4 		0
v 101.542 		-2.494 		0
v 101.575 		-2.593 		0
v 101.596 		-2.695 		0
v 101.603 		-2.8 		0
v 101.596 		-2.905 		0
v 101.575 		-3.007 		0
v 100.906 		-2.006 		0
v 101.009 		-2.027 		0
v 101.368 		-0.964 		0
v 101.289 		-1.033 		0
v 101.202 		-1.091 		0
v 101.108 		-1.138 		0
v 101.009 		-1.171 		0
v 100.906 		-1.192 		0
v 101.542 		-0.092 		0
v 101.575 		-0.191 		0
v 101.596 		-0.294 		0
v 101.603 		-0.398 		0
v 101.596 		-0.503 		0
v 101.575 		-0.605 		0
v 101.542 		-0.705 		0
v 101.495 		-0.798 		0
v 101.437 		-0.886 		0
v 100.906 		0.396 		0
v 101.009 		0.375 		0
v 101.108 		0.342 		0
v 101.202 		0.295 		0
v 101.289 		0.237 		0
v 101.368 		0.168 		0
v 101.437 		0.089 		0
v 101.495 		0.002 		0
v 101.009 		2.566 		2.025
v 100.906 		2.566 		2.004
v 100.802 		2.566 		1.998
v 101.575 		2.566 		3.008
v 101.596 		2.566 		2.905
v 101.603 		2.566 		2.8
v 101.596 		2.566 		2.695
v 101.575 		2.566 		2.592
v 101.542 		2.566 		2.493
v 101.495 		2.566 		2.399
v 101.437 		2.566 		2.311
v 101.368 		2.566 		2.233
v 101.289 		2.566 		2.163
v 101.202 		2.566 		2.105
v 101.108 		2.566 		2.059
v 100.906 		2.566 		3.596
v 100.802 		2.566 		3.603
v 101.009 		2.566 		3.575
v 101.108 		2.566 		3.541
v 101.202 		2.566 		3.495
v 101.289 		2.566 		3.437
v 101.368 		2.566 		3.367
v 101.437 		2.566 		3.289
v 101.495 		2.566 		3.201
v 101.542 		2.566 		3.107
v 95.492 		-5.942 		2.059
v 95.398 		-5.895 		2.105
v 95.311 		-5.837 		2.163
v 95.058 		-5.508 		3.107
v 95.105 		-5.602 		3.201
v 95.163 		-5.689 		3.289
v 95.232 		-5.768 		3.367
v 95.311 		-5.837 		3.437
v 95.398 		-5.895 		3.495
v 95.492 		-5.942 		3.541
v 95.591 		-5.975 		3.575
v 95.694 		-5.996 		3.596
v 101.603 		-4.401 		0
v 95.163 		0.089 		3.289
v 95.232 		0.168 		3.367
v 95.311 		0.237 		3.437
v 95.398 		0.295 		3.495
v 75.4 		-0.097 		4.8
v 77.2 		-0.097 		4.8
v 77.2 		0.7 		4.8
v 75.4 		0.7 		4.8
v 77.2 		-6.3 		4.8
v 77.2 		-5.503 		4.8
v 75.4 		-5.503 		4.8
v 75.4 		-6.3 		4.8
v 99.496 		0.402 		2.004
v 99.394 		0.402 		2.025
v 99.295 		0.402 		2.059
v 99.201 		0.402 		2.105
v 99.114 		0.402 		2.163
v 99.035 		0.402 		2.233
v 98.966 		0.402 		2.311
v 98.908 		0.402 		2.399
v 98.861 		0.402 		2.493
v 98.828 		0.402 		2.592
v 98.807 		0.402 		2.695
v 98.807 		0.402 		2.905
v 98.828 		0.402 		3.008
v 98.861 		0.402 		3.107
v 98.908 		0.402 		3.201
v 98.966 		0.402 		3.289
v 99.035 		0.402 		3.367
v 99.114 		0.402 		3.437
v 99.201 		0.402 		3.495
v 99.295 		0.402 		3.541
v 99.394 		0.402 		3.575
v 99.496 		0.402 		3.596
v 101.603 		-2.048 		0
v 75.4 		-0.097 		1.261
v 77.2 		-0.097 		1.261
v 77.2 		-5.503 		1.261
v 75.4 		-5.503 		1.261
v 71.2 		-0.097 		4.8
v 73 		-0.097 		4.8
v 73 		0.7 		4.8
v 71.2 		0.7 		4.8
v 73 		-6.3 		4.8
v 73 		-5.503 		4.8
v 71.2 		-5.503 		4.8
v 71.2 		-6.3 		4.8
v 71.2 		-0.097 		1.261
v 73 		-0.097 		1.261
v 73 		-5.503 		1.261
v 71.2 		-5.503 		1.261
v 67 		-0.097 		4.8
v 68.8 		-0.097 		4.8
v 68.8 		0.7 		4.8
v 67 		0.7 		4.8
v 68.8 		-6.3 		4.8
v 68.8 		-5.503 		4.8
v 67 		-5.503 		4.8
v 67 		-6.3 		4.8
v 67 		-0.097 		1.261
v 68.8 		-0.097 		1.261
v 68.8 		-5.503 		1.261
v 67 		-5.503 		1.261
v 62.8 		-0.097 		4.8
v 64.6 		-0.097 		4.8
v 64.6 		0.7 		4.8
v 62.8 		0.7 		4.8
v 64.6 		-6.3 		4.8
v 64.6 		-5.503 		4.8
v 62.8 		-5.503 		4.8
v 62.8 		-6.3 		4.8
v 62.8 		-0.097 		1.261
v 64.6 		-0.097 		1.261
v 64.6 		-5.503 		1.261
v 62.8 		-5.503 		1.261
v 60.4 		-8.2 		1.261
v 60.4 		-6.3 		1.261
v 60.4 		0.7 		1.261
v 60.4 		2.6 		1.261
v 60.4 		-6.3 		4.8
v 60.4 		-8.2 		4.8
v 60.4 		2.6 		4.8
v 60.4 		0.7 		4.8
v 60.403 		-8.2 		4.8
v 62 		-8.2 		4.8
v 60.403 		2.6 		4.8
v 62 		2.6 		4.8
v 60.403 		-8.2 		1.261
v 60.403 		2.6 		1.261
v 73.998 		-6.398 		4.8
v 73.998 		-7.403 		4.8
v 73.998 		1.802 		4.8
v 73.998 		0.797 		4.8
v 73.998 		-6.398 		2.798
v 73.998 		-7.403 		2.798
v 73.998 		1.802 		2.798
v 73.998 		0.797 		2.798
v 58.4273 		5.1273 		1.261
v 58.4273 		-0.9273 		1.261
v 57.4407 		4.1407 		4.599
v 57.4407 		0.0593 		4.599
v 56.9438 		0.5562 		4.599
v 56.9438 		3.6438 		4.599
# 1643 vertices

g group_0_15277357

usemtl color_15277357
s 0

f 475 	474 	368
f 475 	368 	367
f 481 	480 	478
f 481 	478 	477
f 487 	486 	484
f 487 	484 	483
f 490 	491 	493
f 494 	493 	491
f 499 	498 	497
f 499 	497 	496
f 876 	880 	1407
f 1407 	1406 	876
f 1545 	1551 	1576
f 1551 	1579 	1576
f 1580 	1586 	1591
f 1580 	1591 	1588
f 1592 	1598 	1603
f 1592 	1603 	1600
f 1604 	1610 	1615
f 1604 	1615 	1612
f 1623 	1618 	1620
f 1618 	1617 	1620
f 1620 	1610 	1623
f 1611 	1610 	1620
f 1610 	1604 	1623
f 1607 	1623 	1604
f 1609 	1605 	1613
f 1609 	1613 	1614
f 1595 	1606 	1605
f 1609 	1598 	1605
f 1608 	1599 	1609
f 1599 	1598 	1609
f 1598 	1592 	1605
f 1595 	1605 	1592
f 1597 	1593 	1601
f 1597 	1601 	1602
f 1583 	1594 	1593
f 1597 	1586 	1593
f 1596 	1587 	1597
f 1587 	1586 	1597
f 1586 	1580 	1593
f 1583 	1593 	1580
f 1585 	1581 	1589
f 1585 	1589 	1590
f 1548 	1582 	1581
f 1585 	1551 	1581
f 1584 	1552 	1585
f 1552 	1551 	1585
f 1551 	1545 	1581
f 1548 	1581 	1545
f 1550 	1546 	1578
f 1546 	1577 	1578
f 878 	1547 	1546
f 1550 	880 	1546
f 1549 	881 	1550
f 881 	880 	1550
f 880 	876 	1546
f 878 	1546 	876
# 58 faces

g group_0_16089887

usemtl color_16089887
s 0

f 5 	10 	4
f 6 	10 	5
f 8 	9 	10
f 9 	3 	10
f 4 	10 	3
f 10 	11 	12
f 10 	12 	13
f 10 	13 	14
f 10 	14 	15
f 10 	15 	16
f 10 	16 	17
f 10 	17 	18
f 10 	18 	7
f 7 	8 	10
f 10 	6 	19
f 10 	19 	20
f 21 	23 	20
f 22 	23 	21
f 10 	20 	23
f 26 	21 	25
f 22 	21 	26
f 24 	25 	21
f 27 	28 	21
f 24 	21 	28
f 31 	21 	30
f 32 	21 	31
f 33 	21 	32
f 34 	21 	33
f 27 	21 	34
f 29 	30 	21
f 40 	41 	21
f 35 	36 	21
f 36 	37 	21
f 37 	38 	21
f 38 	39 	21
f 29 	21 	39
f 43 	21 	42
f 41 	42 	21
f 35 	21 	43
f 40 	21 	44
f 40 	44 	45
f 40 	45 	46
f 40 	46 	47
f 40 	47 	48
f 49 	50 	48
f 40 	48 	50
f 628 	631 	21
f 26 	438 	22
f 680 	45 	44
f 149 	155 	145
f 150 	145 	155
f 148 	155 	149
f 151 	150 	155
f 152 	151 	155
f 147 	155 	148
f 146 	155 	147
f 153 	152 	155
f 146 	164 	163
f 146 	163 	162
f 146 	162 	161
f 146 	161 	160
f 146 	160 	159
f 146 	159 	158
f 146 	158 	157
f 146 	157 	85
f 146 	85 	156
f 154 	170 	155
f 146 	156 	155
f 169 	155 	170
f 155 	169 	168
f 155 	168 	167
f 155 	167 	166
f 155 	166 	165
f 155 	165 	153
f 176 	175 	177
f 175 	174 	177
f 154 	177 	174
f 154 	174 	173
f 154 	173 	172
f 171 	154 	172
f 188 	154 	189
f 187 	154 	188
f 186 	154 	187
f 185 	154 	186
f 184 	154 	185
f 183 	154 	184
f 182 	154 	183
f 181 	154 	182
f 181 	195 	154
f 79 	189 	154
f 171 	180 	154
f 180 	179 	154
f 179 	178 	154
f 79 	154 	178
f 192 	154 	72
f 193 	72 	154
f 194 	193 	154
f 195 	194 	154
f 190 	154 	191
f 170 	154 	190
f 191 	154 	192
f 261 	264 	852
f 264 	267 	852
f 858 	857 	274
f 274 	275 	858
f 854 	73 	276
f 277 	855 	276
f 291 	290 	308
f 290 	289 	308
f 289 	288 	308
f 288 	287 	308
f 286 	308 	287
f 283 	311 	284
f 285 	284 	311
f 303 	302 	304
f 301 	304 	302
f 298 	308 	299
f 300 	299 	308
f 297 	308 	298
f 296 	308 	297
f 282 	308 	296
f 295 	308 	282
f 294 	308 	295
f 293 	308 	294
f 291 	308 	292
f 292 	308 	293
f 306 	301 	307
f 305 	301 	306
f 304 	301 	305
f 308 	307 	301
f 283 	281 	317
f 283 	317 	316
f 283 	316 	315
f 283 	315 	314
f 283 	314 	313
f 283 	313 	312
f 283 	312 	311
f 310 	286 	311
f 309 	286 	310
f 286 	285 	311
f 328 	286 	329
f 327 	286 	328
f 326 	286 	327
f 325 	286 	326
f 324 	286 	325
f 323 	286 	324
f 322 	286 	323
f 321 	286 	322
f 321 	333 	286
f 142 	329 	286
f 309 	320 	286
f 320 	319 	286
f 319 	318 	286
f 142 	286 	318
f 56 	286 	331
f 332 	331 	286
f 333 	332 	286
f 301 	300 	308
f 56 	308 	286
f 345 	389 	344
f 348 	349 	373
f 372 	373 	344
f 350 	343 	373
f 350 	373 	349
f 343 	344 	373
f 353 	354 	360
f 354 	355 	360
f 355 	356 	360
f 356 	357 	360
f 357 	358 	360
f 358 	359 	360
f 359 	363 	360
f 363 	364 	360
f 360 	361 	353
f 361 	362 	352
f 352 	353 	361
f 351 	352 	362
f 414 	413 	7
f 413 	417 	7
f 365 	394 	360
f 364 	365 	360
f 394 	391 	360
f 9 	8 	420
f 420 	3 	9
f 3 	425 	4
f 5 	4 	431
f 427 	431 	4
f 431 	6 	5
f 624 	19 	436
f 437 	440 	22
f 23 	22 	440
f 23 	440 	10
f 442 	10 	440
f 347 	348 	373
f 372 	344 	371
f 346 	347 	373
f 373 	374 	346
f 370 	346 	374
f 370 	374 	375
f 370 	375 	376
f 370 	376 	377
f 370 	377 	378
f 10 	442 	11
f 445 	11 	442
f 445 	447 	11
f 12 	11 	447
f 450 	13 	12
f 450 	12 	447
f 381 	344 	380
f 382 	344 	381
f 383 	344 	382
f 371 	344 	383
f 380 	344 	379
f 391 	392 	360
f 384 	385 	345
f 385 	386 	345
f 386 	387 	345
f 387 	388 	345
f 388 	389 	345
f 390 	344 	389
f 379 	344 	390
f 13 	450 	14
f 452 	14 	450
f 345 	360 	393
f 384 	345 	393
f 392 	393 	360
f 14 	452 	15
f 454 	15 	452
f 16 	15 	454
f 467 	18 	464
f 7 	18 	414
f 344 	1174 	345
f 6 	436 	19
f 1174 	1175 	345
f 624 	20 	19
f 20 	628 	21
f 34 	635 	27
f 634 	638 	27
f 28 	27 	638
f 28 	638 	24
f 640 	24 	638
f 25 	24 	640
f 437 	22 	438
f 30 	649 	31
f 648 	31 	649
f 32 	31 	648
f 654 	33 	32
f 34 	33 	654
f 35 	660 	36
f 663 	36 	660
f 37 	36 	663
f 668 	38 	37
f 39 	38 	668
f 1210 	375 	374
f 673 	676 	29
f 44 	21 	631
f 370 	1167 	346
f 41 	40 	692
f 692 	42 	41
f 43 	661 	35
f 8 	7 	417
f 417 	420 	8
f 3 	420 	423
f 423 	425 	3
f 427 	4 	425
f 6 	431 	434
f 434 	436 	6
f 458 	16 	454
f 458 	462 	17
f 458 	17 	16
f 462 	464 	17
f 17 	464 	18
f 522 	531 	508
f 520 	531 	522
f 523 	508 	531
f 524 	523 	531
f 526 	524 	531
f 517 	531 	520
f 515 	531 	517
f 514 	531 	515
f 584 	583 	581
f 584 	581 	579
f 584 	579 	577
f 584 	577 	575
f 584 	575 	539
f 584 	539 	538
f 584 	538 	536
f 584 	536 	534
f 584 	534 	532
f 584 	532 	531
f 584 	531 	589
f 514 	589 	531
f 596 	594 	531
f 594 	592 	531
f 592 	591 	531
f 591 	527 	531
f 527 	526 	531
f 602 	862 	603
f 601 	862 	602
f 604 	603 	862
f 600 	862 	601
f 599 	862 	600
f 467 	414 	18
f 624 	626 	20
f 626 	628 	20
f 634 	27 	635
f 643 	25 	640
f 645 	26 	25
f 645 	25 	643
f 438 	26 	645
f 652 	32 	648
f 654 	32 	652
f 656 	34 	654
f 656 	635 	34
f 663 	666 	37
f 666 	668 	37
f 668 	670 	39
f 39 	673 	29
f 670 	673 	39
f 649 	30 	676
f 30 	29 	676
f 680 	44 	631
f 680 	683 	45
f 46 	45 	684
f 683 	684 	45
f 684 	686 	47
f 684 	47 	46
f 48 	47 	689
f 686 	689 	47
f 48 	689 	49
f 334 	49 	689
f 50 	49 	690
f 334 	690 	49
f 40 	50 	691
f 690 	691 	50
f 691 	692 	40
f 42 	692 	693
f 693 	694 	43
f 693 	43 	42
f 660 	35 	661
f 694 	661 	43
f 346 	1166 	347
f 1168 	347 	1166
f 347 	1168 	348
f 1169 	348 	1168
f 1170 	349 	348
f 1170 	348 	1169
f 349 	1170 	350
f 1171 	350 	1170
f 717 	705 	704
f 717 	704 	703
f 717 	703 	702
f 717 	702 	701
f 717 	701 	700
f 717 	700 	699
f 717 	699 	698
f 1172 	343 	350
f 1172 	350 	1171
f 1172 	344 	343
f 345 	1175 	360
f 1176 	1177 	360
f 361 	1178 	362
f 362 	1178 	351
f 340 	351 	1178
f 714 	713 	715
f 716 	715 	713
f 713 	712 	716
f 712 	711 	716
f 711 	697 	716
f 697 	710 	716
f 710 	709 	716
f 709 	708 	716
f 717 	716 	708
f 717 	708 	707
f 717 	707 	706
f 706 	705 	717
f 340 	352 	351
f 1180 	353 	352
f 354 	353 	1181
f 1180 	1181 	353
f 1181 	1182 	355
f 1181 	355 	354
f 1182 	356 	355
f 723 	722 	721
f 723 	721 	720
f 723 	720 	719
f 717 	723 	718
f 719 	718 	723
f 731 	717 	695
f 730 	717 	731
f 729 	717 	730
f 728 	717 	729
f 727 	717 	728
f 726 	717 	727
f 725 	717 	726
f 724 	717 	725
f 698 	695 	717
f 742 	717 	743
f 741 	717 	742
f 740 	717 	741
f 739 	717 	740
f 738 	717 	739
f 737 	717 	738
f 506 	743 	717
f 724 	736 	717
f 736 	735 	717
f 735 	734 	717
f 733 	717 	734
f 733 	732 	717
f 506 	717 	732
f 746 	717 	747
f 748 	747 	717
f 745 	717 	746
f 744 	717 	745
f 280 	717 	744
f 723 	717 	280
f 737 	748 	717
f 760 	782 	759
f 761 	782 	760
f 763 	764 	783
f 759 	782 	758
f 782 	783 	764
f 758 	782 	764
f 767 	761 	766
f 768 	761 	767
f 769 	761 	768
f 770 	761 	769
f 771 	761 	770
f 776 	761 	771
f 765 	766 	761
f 765 	761 	772
f 765 	772 	773
f 765 	773 	774
f 765 	774 	775
f 778 	761 	777
f 779 	761 	778
f 780 	761 	779
f 762 	763 	783
f 783 	784 	762
f 781 	762 	784
f 781 	784 	785
f 781 	785 	786
f 781 	786 	787
f 781 	787 	788
f 791 	761 	790
f 792 	761 	791
f 793 	761 	792
f 794 	761 	793
f 782 	761 	794
f 789 	790 	761
f 776 	777 	761
f 795 	796 	761
f 796 	797 	761
f 797 	798 	761
f 798 	799 	761
f 789 	761 	799
f 803 	761 	802
f 801 	802 	761
f 795 	761 	803
f 801 	761 	800
f 804 	761 	780
f 805 	761 	804
f 800 	761 	805
f 815 	816 	813
f 814 	815 	813
f 825 	826 	814
f 812 	813 	816
f 816 	817 	812
f 811 	812 	817
f 818 	819 	820
f 818 	820 	821
f 818 	821 	822
f 818 	822 	823
f 824 	828 	823
f 825 	836 	824
f 815 	814 	826
f 828 	824 	827
f 818 	823 	828
f 825 	814 	829
f 825 	829 	830
f 825 	830 	831
f 825 	831 	832
f 825 	832 	833
f 825 	833 	857
f 857 	858 	825
f 836 	825 	835
f 827 	824 	836
f 834 	835 	825
f 838 	839 	825
f 840 	825 	839
f 834 	825 	840
f 844 	825 	843
f 845 	825 	844
f 846 	825 	845
f 838 	825 	846
f 842 	843 	825
f 856 	847 	825
f 847 	848 	825
f 848 	849 	825
f 849 	850 	825
f 850 	851 	825
f 851 	852 	825
f 852 	853 	825
f 842 	825 	853
f 619 	862 	620
f 618 	862 	619
f 617 	862 	618
f 616 	862 	617
f 615 	862 	616
f 614 	862 	615
f 607 	620 	862
f 531 	604 	862
f 613 	862 	599
f 613 	612 	862
f 612 	611 	862
f 610 	862 	611
f 610 	608 	862
f 607 	862 	608
f 856 	825 	855
f 854 	855 	825
f 858 	859 	825
f 859 	860 	825
f 854 	825 	860
f 869 	868 	870
f 614 	870 	868
f 614 	868 	867
f 614 	867 	866
f 614 	866 	139
f 614 	139 	865
f 614 	865 	864
f 614 	864 	863
f 861 	531 	862
f 596 	531 	861
f 614 	863 	862
f 856 	257 	847
f 970 	969 	815
f 969 	816 	815
f 977 	817 	816
f 817 	977 	811
f 808 	811 	977
f 812 	811 	978
f 808 	978 	811
f 978 	979 	813
f 978 	813 	812
f 814 	813 	981
f 979 	981 	813
f 981 	982 	814
f 829 	814 	982
f 836 	251 	827
f 984 	828 	827
f 984 	827 	983
f 828 	984 	818
f 201 	818 	984
f 201 	986 	818
f 987 	820 	819
f 987 	821 	820
f 989 	822 	821
f 822 	989 	823
f 990 	823 	989
f 990 	991 	823
f 824 	823 	991
f 991 	825 	824
f 815 	826 	970
f 995 	830 	829
f 831 	830 	996
f 995 	996 	830
f 996 	832 	831
f 832 	998 	833
f 857 	833 	273
f 838 	846 	255
f 838 	107 	839
f 108 	839 	107
f 110 	840 	839
f 110 	839 	108
f 110 	248 	840
f 834 	840 	248
f 249 	835 	834
f 249 	834 	248
f 835 	249 	836
f 250 	836 	249
f 250 	251 	836
f 843 	83 	844
f 252 	844 	83
f 253 	845 	844
f 253 	844 	252
f 845 	253 	846
f 254 	846 	253
f 254 	255 	846
f 848 	847 	258
f 256 	258 	847
f 258 	259 	849
f 258 	849 	848
f 849 	259 	850
f 260 	850 	259
f 260 	261 	850
f 851 	850 	261
f 852 	851 	261
f 267 	853 	852
f 268 	842 	853
f 268 	853 	267
f 842 	268 	843
f 83 	843 	268
f 998 	273 	833
f 272 	274 	857
f 858 	275 	859
f 860 	859 	73
f 275 	73 	859
f 860 	73 	854
f 854 	276 	855
f 856 	855 	278
f 277 	278 	855
f 256 	847 	257
f 278 	257 	856
f 969 	974 	816
f 974 	977 	816
f 983 	827 	251
f 819 	818 	986
f 819 	986 	987
f 988 	821 	987
f 989 	821 	988
f 991 	992 	825
f 826 	825 	993
f 992 	993 	825
f 993 	970 	826
f 761 	1058 	772
f 982 	994 	829
f 1059 	773 	772
f 994 	995 	829
f 832 	996 	997
f 997 	998 	832
f 272 	857 	273
f 107 	838 	255
f 1083 	777 	776
f 802 	1136 	803
f 1136 	1114 	803
f 1034 	1039 	762
f 763 	762 	1039
f 763 	1039 	764
f 1041 	764 	1039
f 758 	764 	1041
f 1044 	760 	759
f 1044 	761 	760
f 1059 	772 	1058
f 1059 	1060 	773
f 774 	773 	1061
f 1060 	1061 	773
f 1061 	775 	774
f 1074 	766 	765
f 767 	1074 	1075
f 766 	1074 	767
f 1075 	768 	767
f 769 	768 	1077
f 1077 	770 	769
f 771 	1081 	776
f 777 	1083 	1085
f 778 	777 	1087
f 1085 	1087 	777
f 778 	1087 	779
f 1088 	779 	1087
f 780 	779 	1090
f 1088 	1090 	779
f 794 	1093 	782
f 1095 	783 	1092
f 782 	1092 	783
f 1095 	1096 	783
f 784 	783 	1096
f 785 	784 	1096
f 1099 	786 	785
f 787 	786 	1099
f 1102 	788 	787
f 788 	1102 	781
f 1105 	791 	790
f 791 	1105 	792
f 1108 	792 	1105
f 793 	792 	1108
f 1111 	794 	793
f 1116 	796 	795
f 1117 	797 	796
f 1117 	796 	1116
f 797 	1117 	798
f 1119 	798 	1117
f 798 	1119 	799
f 1121 	799 	1119
f 1121 	789 	799
f 1090 	1091 	780
f 805 	1130 	800
f 1130 	801 	800
f 802 	1134 	1136
f 1035 	1034 	762
f 1041 	1042 	758
f 758 	1042 	759
f 1043 	759 	1042
f 1044 	759 	1043
f 761 	1044 	1049
f 1049 	1058 	761
f 1061 	1067 	775
f 775 	1067 	765
f 757 	765 	1067
f 757 	1071 	1074
f 765 	757 	1074
f 1075 	1076 	768
f 1076 	1077 	768
f 770 	1077 	1078
f 1078 	1080 	771
f 1078 	771 	770
f 1080 	1081 	771
f 1083 	776 	1081
f 338 	804 	1091
f 1092 	782 	1093
f 1096 	1098 	785
f 1098 	1099 	785
f 1099 	1101 	787
f 1101 	1102 	787
f 1102 	749 	781
f 749 	1035 	781
f 762 	781 	1035
f 1105 	790 	1106
f 1109 	793 	1108
f 1111 	793 	1109
f 794 	1111 	1093
f 1114 	1113 	795
f 1113 	1116 	795
f 1121 	1122 	789
f 1106 	790 	1124
f 789 	1124 	790
f 1122 	1124 	789
f 804 	780 	1091
f 805 	804 	1127
f 338 	1127 	804
f 1127 	1130 	805
f 1130 	1133 	801
f 802 	801 	1134
f 1133 	1134 	801
f 795 	803 	1114
f 356 	1185 	357
f 358 	357 	1188
f 1185 	1188 	357
f 1188 	359 	358
f 363 	359 	1193
f 1193 	1196 	363
f 1196 	1200 	363
f 364 	1200 	365
f 1202 	1205 	365
f 1210 	374 	373
f 1213 	376 	375
f 377 	376 	1213
f 378 	1215 	370
f 1166 	346 	1167
f 1216 	381 	380
f 382 	381 	1216
f 1220 	1219 	384
f 385 	384 	1221
f 1219 	1221 	384
f 1221 	386 	385
f 386 	1222 	387
f 1223 	1224 	387
f 388 	387 	1224
f 389 	388 	1224
f 1227 	390 	389
f 379 	390 	1227
f 394 	365 	1205
f 59 	1234 	394
f 392 	391 	1237
f 1237 	393 	392
f 384 	393 	1220
f 344 	1172 	1173
f 1173 	1174 	344
f 1176 	360 	1175
f 361 	360 	1177
f 1177 	1178 	361
f 340 	1179 	352
f 1179 	1180 	352
f 1182 	1183 	356
f 1183 	1185 	356
f 359 	1188 	1191
f 1191 	1193 	359
f 364 	363 	1200
f 1202 	365 	1200
f 1207 	1206 	371
f 372 	371 	1208
f 1206 	1208 	371
f 373 	372 	1209
f 1208 	1209 	372
f 1209 	1210 	373
f 1210 	1211 	375
f 1211 	1213 	375
f 1213 	1214 	377
f 378 	377 	1215
f 1214 	1215 	377
f 1215 	336 	370
f 1167 	370 	336
f 1216 	380 	807
f 1217 	382 	1216
f 382 	1217 	383
f 1218 	383 	1217
f 1218 	1207 	383
f 371 	383 	1207
f 386 	1221 	1222
f 1223 	387 	1222
f 1224 	1225 	389
f 1225 	1227 	389
f 1227 	1229 	379
f 380 	379 	807
f 1229 	807 	379
f 59 	394 	1205
f 391 	394 	1234
f 1234 	1237 	391
f 393 	1237 	1239
f 1239 	1220 	393
# 809 faces

g group_0_16768282

usemtl color_16768282
s 0

f 52 	61 	51
f 53 	51 	54
f 55 	54 	51
f 51 	61 	55
f 331 	64 	56
f 57 	53 	54
f 57 	54 	58
f 77 	59 	60
f 60 	55 	77
f 61 	52 	64
f 66 	63 	65
f 62 	65 	63
f 61 	70 	55
f 63 	69 	68
f 63 	68 	67
f 71 	62 	67
f 63 	67 	62
f 66 	65 	72
f 72 	193 	66
f 52 	56 	64
f 78 	74 	73
f 810 	144 	78
f 65 	78 	144
f 55 	70 	77
f 74 	78 	67
f 78 	71 	67
f 69 	76 	75
f 69 	75 	68
f 61 	64 	77
f 61 	77 	70
f 71 	78 	62
f 62 	78 	65
f 186 	187 	66
f 188 	189 	66
f 79 	66 	189
f 79 	178 	66
f 74 	67 	81
f 74 	81 	82
f 82 	252 	74
f 74 	83 	268
f 268 	267 	74
f 261 	74 	264
f 260 	74 	261
f 278 	277 	74
f 1247 	67 	68
f 63 	1250 	69
f 616 	617 	80
f 66 	1251 	63
f 68 	75 	1247
f 690 	334 	81
f 160 	161 	120
f 88 	143 	89
f 89 	143 	90
f 90 	143 	91
f 92 	91 	84
f 93 	92 	84
f 94 	84 	95
f 94 	93 	84
f 97 	96 	84
f 141 	101 	84
f 723 	141 	84
f 100 	84 	101
f 102 	101 	141
f 103 	102 	141
f 104 	141 	105
f 108 	82 	110
f 111 	109 	141
f 112 	111 	141
f 109 	106 	141
f 106 	105 	141
f 104 	103 	141
f 98 	84 	99
f 98 	97 	84
f 96 	95 	84
f 99 	84 	100
f 176 	177 	80
f 177 	154 	80
f 156 	85 	80
f 115 	80 	116
f 85 	157 	80
f 116 	80 	157
f 124 	80 	126
f 862 	863 	137
f 863 	864 	136
f 138 	136 	864
f 865 	139 	127
f 132 	80 	133
f 134 	80 	135
f 137 	113 	140
f 861 	862 	137
f 155 	156 	80
f 154 	155 	80
f 80 	115 	114
f 114 	126 	80
f 80 	124 	125
f 135 	80 	125
f 159 	160 	119
f 120 	119 	160
f 117 	116 	157
f 134 	133 	80
f 128 	127 	139
f 864 	865 	138
f 140 	861 	137
f 141 	140 	113
f 113 	112 	141
f 127 	138 	865
f 129 	128 	139
f 131 	130 	139
f 132 	131 	139
f 745 	746 	141
f 329 	143 	328
f 142 	318 	143
f 148 	149 	144
f 149 	145 	144
f 64 	328 	143
f 84 	91 	143
f 148 	144 	147
f 147 	144 	146
f 145 	150 	144
f 150 	151 	144
f 152 	65 	151
f 153 	65 	152
f 119 	118 	159
f 121 	120 	161
f 161 	162 	121
f 162 	163 	121
f 122 	121 	144
f 123 	122 	144
f 144 	143 	123
f 87 	123 	143
f 86 	87 	143
f 88 	86 	143
f 163 	164 	121
f 144 	121 	164
f 146 	144 	164
f 166 	65 	165
f 165 	65 	153
f 168 	65 	167
f 172 	80 	171
f 173 	80 	172
f 173 	174 	80
f 174 	175 	80
f 175 	176 	80
f 157 	158 	117
f 118 	117 	158
f 158 	159 	118
f 179 	180 	66
f 178 	179 	66
f 80 	66 	180
f 171 	80 	180
f 181 	182 	66
f 182 	183 	66
f 183 	184 	66
f 184 	185 	66
f 185 	186 	66
f 188 	66 	187
f 167 	65 	166
f 144 	151 	65
f 65 	168 	169
f 190 	65 	170
f 169 	170 	65
f 190 	191 	65
f 65 	191 	192
f 65 	192 	72
f 193 	194 	66
f 194 	195 	66
f 66 	195 	181
f 984 	82 	201
f 204 	205 	199
f 210 	196 	209
f 212 	196 	211
f 208 	196 	207
f 214 	215 	196
f 218 	219 	335
f 222 	197 	221
f 221 	197 	220
f 224 	197 	223
f 222 	223 	197
f 197 	224 	225
f 212 	213 	196
f 213 	214 	196
f 216 	335 	215
f 216 	217 	335
f 217 	218 	335
f 197 	335 	219
f 219 	220 	197
f 229 	82 	228
f 230 	82 	229
f 231 	82 	230
f 232 	200 	231
f 233 	200 	232
f 234 	200 	233
f 235 	200 	234
f 227 	228 	82
f 239 	227 	82
f 242 	81 	241
f 243 	81 	242
f 244 	81 	243
f 245 	81 	244
f 82 	81 	246
f 110 	82 	248
f 249 	248 	82
f 250 	249 	82
f 83 	74 	252
f 252 	82 	253
f 253 	82 	254
f 257 	74 	256
f 259 	258 	74
f 256 	74 	258
f 259 	74 	260
f 247 	82 	246
f 262 	82 	247
f 237 	82 	262
f 264 	74 	267
f 266 	81 	265
f 265 	81 	263
f 240 	81 	266
f 238 	82 	237
f 238 	239 	82
f 245 	246 	81
f 82 	231 	200
f 199 	200 	236
f 236 	200 	235
f 236 	202 	199
f 202 	203 	199
f 204 	199 	203
f 205 	206 	199
f 206 	207 	199
f 196 	199 	207
f 208 	209 	196
f 210 	211 	196
f 197 	225 	226
f 263 	269 	226
f 241 	81 	240
f 269 	263 	680
f 683 	263 	684
f 197 	226 	269
f 199 	270 	271
f 199 	271 	200
f 86 	203 	202
f 86 	202 	87
f 88 	204 	203
f 88 	203 	86
f 89 	205 	204
f 89 	204 	88
f 90 	206 	205
f 90 	205 	89
f 273 	78 	272
f 91 	207 	206
f 91 	206 	90
f 92 	208 	207
f 92 	207 	91
f 272 	78 	274
f 93 	209 	208
f 93 	208 	92
f 274 	78 	275
f 73 	275 	78
f 94 	210 	209
f 94 	209 	93
f 95 	211 	210
f 95 	210 	94
f 95 	96 	211
f 73 	74 	276
f 276 	74 	277
f 278 	74 	257
f 102 	218 	101
f 103 	218 	102
f 721 	84 	720
f 722 	84 	721
f 723 	84 	722
f 280 	141 	723
f 280 	744 	141
f 315 	316 	84
f 281 	283 	84
f 283 	284 	84
f 284 	285 	84
f 285 	286 	84
f 279 	719 	84
f 289 	290 	279
f 294 	295 	279
f 282 	296 	279
f 52 	279 	296
f 105 	106 	222
f 288 	279 	287
f 286 	287 	84
f 222 	106 	109
f 84 	287 	279
f 289 	279 	288
f 111 	112 	225
f 290 	291 	279
f 225 	112 	113
f 212 	211 	96
f 212 	96 	213
f 97 	213 	96
f 98 	214 	97
f 213 	97 	214
f 99 	215 	214
f 99 	214 	98
f 291 	292 	279
f 215 	99 	216
f 100 	216 	99
f 101 	216 	100
f 216 	101 	217
f 294 	279 	293
f 292 	293 	279
f 218 	217 	101
f 295 	282 	279
f 103 	219 	218
f 297 	52 	296
f 104 	220 	219
f 104 	219 	103
f 299 	52 	298
f 105 	221 	104
f 220 	104 	221
f 301 	52 	300
f 221 	105 	222
f 222 	109 	223
f 301 	302 	52
f 302 	303 	52
f 111 	224 	109
f 223 	109 	224
f 304 	52 	303
f 224 	111 	225
f 113 	226 	225
f 227 	114 	115
f 227 	115 	228
f 228 	115 	116
f 228 	116 	229
f 229 	116 	117
f 229 	117 	230
f 297 	298 	52
f 299 	300 	52
f 305 	52 	304
f 118 	231 	230
f 118 	230 	117
f 52 	305 	306
f 119 	232 	231
f 119 	231 	118
f 52 	306 	307
f 120 	233 	232
f 120 	232 	119
f 52 	307 	308
f 121 	234 	233
f 121 	233 	120
f 309 	310 	143
f 84 	143 	311
f 310 	311 	143
f 122 	235 	234
f 122 	234 	121
f 311 	312 	84
f 312 	313 	84
f 235 	122 	123
f 235 	123 	236
f 315 	84 	314
f 125 	124 	238
f 125 	238 	237
f 313 	314 	84
f 238 	124 	126
f 238 	126 	239
f 317 	84 	316
f 114 	227 	126
f 239 	126 	227
f 281 	84 	317
f 240 	266 	127
f 240 	127 	128
f 240 	128 	241
f 241 	128 	129
f 241 	129 	242
f 242 	129 	130
f 242 	130 	243
f 243 	130 	131
f 243 	131 	244
f 318 	319 	143
f 244 	131 	132
f 244 	132 	245
f 245 	132 	133
f 245 	133 	246
f 309 	143 	320
f 319 	320 	143
f 246 	133 	134
f 246 	134 	247
f 321 	322 	64
f 322 	323 	64
f 323 	324 	64
f 247 	134 	135
f 247 	135 	262
f 324 	325 	64
f 262 	135 	125
f 262 	125 	237
f 326 	64 	325
f 265 	137 	136
f 138 	266 	136
f 265 	136 	266
f 326 	327 	64
f 64 	327 	328
f 266 	138 	127
f 137 	265 	263
f 143 	329 	142
f 236 	123 	87
f 236 	87 	202
f 226 	113 	137
f 226 	137 	263
f 52 	308 	56
f 331 	332 	64
f 330 	198 	197
f 332 	333 	64
f 333 	321 	64
f 269 	330 	197
f 686 	263 	689
f 684 	263 	686
f 81 	689 	263
f 683 	680 	263
f 330 	269 	1641
f 339 	330 	337
f 1641 	337 	330
f 336 	196 	1167
f 1215 	196 	336
f 1214 	196 	1215
f 1211 	196 	1213
f 1210 	199 	1211
f 1170 	196 	335
f 338 	1091 	197
f 335 	197 	1087
f 1088 	1087 	197
f 335 	1087 	1085
f 752 	54 	751
f 52 	51 	279
f 335 	55 	60
f 1183 	1182 	60
f 340 	1178 	60
f 1177 	335 	1178
f 60 	1178 	335
f 1173 	1172 	335
f 1172 	1171 	335
f 1169 	196 	1170
f 367 	368 	369
f 401 	1406 	400
f 402 	1406 	401
f 403 	1406 	402
f 404 	1406 	403
f 406 	407 	433
f 405 	411 	404
f 429 	430 	408
f 409 	410 	429
f 408 	409 	429
f 428 	429 	410
f 411 	412 	1406
f 1616 	1617 	269
f 415 	1406 	412
f 416 	1406 	415
f 414 	1616 	413
f 421 	1406 	419
f 426 	1406 	424
f 1616 	269 	423
f 425 	423 	269
f 680 	631 	269
f 427 	425 	269
f 431 	427 	269
f 435 	411 	405
f 1406 	404 	411
f 434 	431 	269
f 432 	433 	407
f 405 	406 	433
f 433 	435 	405
f 418 	1406 	416
f 430 	432 	407
f 407 	408 	430
f 645 	1254 	438
f 439 	637 	441
f 437 	1254 	440
f 442 	440 	1254
f 1254 	1628 	442
f 443 	621 	1407
f 1407 	622 	623
f 623 	625 	1407
f 1326 	1327 	1407
f 419 	1406 	418
f 422 	1406 	421
f 424 	1406 	422
f 445 	1628 	447
f 446 	448 	453
f 449 	453 	448
f 447 	1628 	450
f 452 	1628 	454
f 451 	453 	449
f 450 	1628 	452
f 454 	1628 	458
f 500 	476 	459
f 458 	1628 	462
f 463 	500 	461
f 466 	500 	465
f 465 	500 	463
f 462 	1628 	464
f 464 	1628 	467
f 467 	1616 	414
f 468 	500 	466
f 470 	500 	469
f 500 	470 	446
f 474 	475 	471
f 477 	478 	369
f 472 	473 	500
f 471 	480 	481
f 500 	473 	476
f 456 	457 	485
f 487 	471 	486
f 491 	490 	369
f 492 	500 	489
f 471 	493 	494
f 495 	500 	492
f 472 	500 	495
f 479 	482 	457
f 482 	485 	457
f 726 	471 	725
f 503 	550 	502
f 504 	550 	503
f 501 	502 	550
f 1 	742 	743
f 1 	743 	506
f 475 	367 	2
f 2 	367 	140
f 505 	550 	504
f 524 	140 	523
f 509 	550 	507
f 511 	550 	510
f 523 	140 	508
f 550 	511 	512
f 1 	475 	2
f 516 	500 	513
f 512 	513 	500
f 517 	520 	367
f 367 	369 	515
f 489 	500 	516
f 522 	508 	367
f 520 	522 	367
f 367 	508 	140
f 550 	529 	501
f 507 	550 	505
f 510 	550 	509
f 524 	526 	140
f 526 	527 	140
f 527 	591 	140
f 1251 	532 	534
f 519 	521 	535
f 1251 	534 	536
f 577 	579 	369
f 542 	544 	541
f 540 	541 	544
f 543 	544 	542
f 546 	550 	545
f 543 	545 	550
f 547 	550 	546
f 548 	550 	547
f 549 	550 	548
f 528 	550 	525
f 549 	525 	550
f 529 	550 	528
f 530 	533 	521
f 533 	535 	521
f 537 	518 	535
f 518 	519 	535
f 521 	501 	530
f 529 	530 	501
f 488 	455 	485
f 455 	456 	485
f 457 	459 	479
f 476 	479 	459
f 459 	460 	500
f 461 	500 	460
f 469 	500 	468
f 441 	552 	553
f 441 	553 	455
f 410 	554 	555
f 410 	555 	518
f 537 	558 	559
f 537 	559 	428
f 488 	560 	561
f 488 	561 	439
f 1189 	1187 	564
f 579 	581 	369
f 581 	583 	369
f 583 	584 	369
f 584 	589 	369
f 589 	514 	369
f 588 	629 	587
f 514 	515 	369
f 590 	629 	588
f 591 	592 	140
f 594 	140 	592
f 597 	636 	595
f 636 	597 	637
f 598 	637 	597
f 601 	1251 	600
f 552 	637 	598
f 601 	602 	1251
f 602 	603 	1251
f 603 	604 	1251
f 531 	1251 	604
f 532 	1251 	531
f 569 	605 	606
f 569 	606 	568
f 610 	1251 	608
f 605 	569 	609
f 570 	609 	569
f 613 	1251 	612
f 611 	612 	1251
f 609 	570 	571
f 609 	571 	443
f 600 	1251 	599
f 613 	599 	1251
f 615 	616 	80
f 617 	618 	80
f 1251 	620 	607
f 571 	580 	443
f 621 	443 	580
f 582 	622 	621
f 582 	621 	580
f 622 	582 	623
f 585 	623 	582
f 628 	626 	269
f 436 	434 	269
f 586 	625 	623
f 586 	623 	585
f 624 	269 	626
f 625 	586 	627
f 587 	627 	586
f 629 	627 	587
f 590 	630 	629
f 593 	632 	630
f 593 	630 	590
f 632 	593 	633
f 595 	633 	593
f 636 	633 	595
f 638 	634 	1254
f 635 	1254 	634
f 638 	1254 	640
f 552 	441 	637
f 640 	1254 	643
f 437 	438 	1254
f 649 	1254 	648
f 648 	1254 	652
f 652 	1254 	654
f 656 	1254 	635
f 654 	1254 	656
f 81 	663 	660
f 663 	81 	666
f 669 	404 	667
f 671 	404 	669
f 677 	409 	675
f 673 	1254 	676
f 554 	409 	677
f 679 	641 	678
f 639 	678 	641
f 631 	628 	269
f 642 	681 	678
f 642 	678 	639
f 681 	642 	682
f 644 	682 	642
f 685 	439 	646
f 561 	646 	439
f 647 	687 	646
f 685 	646 	687
f 687 	647 	650
f 687 	650 	688
f 334 	689 	81
f 691 	81 	692
f 692 	81 	693
f 660 	661 	81
f 693 	81 	694
f 694 	81 	661
f 729 	471 	728
f 727 	471 	726
f 696 	471 	695
f 731 	695 	471
f 696 	695 	698
f 696 	698 	699
f 731 	471 	730
f 475 	735 	471
f 699 	700 	696
f 707 	708 	696
f 708 	709 	696
f 710 	697 	696
f 697 	711 	696
f 711 	712 	696
f 700 	701 	696
f 701 	702 	696
f 696 	702 	703
f 704 	705 	696
f 703 	704 	696
f 706 	696 	705
f 696 	706 	707
f 710 	696 	709
f 714 	279 	713
f 713 	279 	712
f 696 	712 	279
f 716 	279 	715
f 714 	715 	279
f 279 	716 	717
f 279 	717 	718
f 718 	719 	279
f 720 	84 	719
f 725 	471 	724
f 724 	471 	736
f 1 	733 	475
f 728 	471 	727
f 730 	471 	729
f 734 	475 	733
f 733 	1 	732
f 506 	732 	1
f 736 	471 	735
f 735 	475 	734
f 739 	740 	141
f 141 	740 	1
f 741 	1 	740
f 742 	1 	741
f 744 	745 	141
f 746 	747 	141
f 747 	748 	141
f 748 	737 	141
f 738 	739 	141
f 738 	141 	737
f 756 	1035 	749
f 1102 	1629 	749
f 1629 	756 	749
f 1627 	751 	1626
f 753 	750 	752
f 751 	1627 	752
f 753 	471 	696
f 1629 	1626 	751
f 751 	756 	1629
f 750 	754 	755
f 750 	755 	752
f 53 	750 	753
f 750 	53 	754
f 57 	754 	53
f 54 	752 	58
f 335 	756 	751
f 57 	58 	754
f 1043 	1042 	756
f 757 	1067 	756
f 51 	53 	753
f 55 	751 	54
f 696 	279 	753
f 279 	51 	753
f 755 	58 	752
f 755 	754 	58
f 751 	55 	335
f 1085 	1083 	335
f 1075 	1074 	335
f 1643 	1640 	339
f 330 	339 	198
f 1 	1643 	141
f 339 	141 	1643
f 140 	141 	337
f 339 	337 	141
f 1190 	1189 	806
f 564 	806 	1189
f 196 	215 	335
f 1229 	77 	807
f 199 	1217 	77
f 1219 	1220 	77
f 196 	1211 	199
f 977 	974 	78
f 200 	78 	974
f 808 	977 	78
f 270 	199 	809
f 77 	809 	199
f 78 	200 	810
f 271 	810 	200
f 810 	271 	809
f 270 	809 	271
f 809 	77 	143
f 64 	143 	77
f 809 	143 	144
f 809 	144 	810
f 957 	1190 	396
f 985 	1371 	399
f 1361 	551 	1360
f 399 	1360 	551
f 551 	1361 	564
f 1362 	564 	1361
f 1363 	806 	1362
f 564 	1362 	806
f 1364 	396 	1363
f 594 	596 	140
f 596 	861 	140
f 136 	137 	863
f 130 	129 	139
f 80 	132 	139
f 866 	867 	80
f 139 	866 	80
f 868 	80 	867
f 869 	870 	80
f 870 	614 	80
f 615 	80 	614
f 871 	872 	873
f 871 	873 	874
f 877 	878 	876
f 879 	880 	881
f 886 	877 	885
f 884 	885 	876
f 888 	877 	887
f 889 	877 	888
f 887 	877 	886
f 892 	893 	875
f 893 	883 	875
f 891 	875 	890
f 872 	875 	883
f 892 	875 	891
f 890 	877 	889
f 876 	885 	877
f 877 	890 	875
f 903 	872 	902
f 904 	872 	903
f 897 	872 	905
f 895 	897 	905
f 896 	897 	895
f 905 	872 	904
f 898 	872 	894
f 872 	898 	899
f 872 	899 	900
f 872 	900 	901
f 901 	902 	872
f 894 	872 	883
f 908 	879 	907
f 909 	879 	908
f 910 	879 	909
f 911 	880 	910
f 879 	910 	880
f 914 	882 	913
f 916 	879 	915
f 915 	882 	914
f 907 	879 	916
f 912 	882 	906
f 913 	882 	912
f 906 	882 	929
f 879 	882 	915
f 882 	1631 	929
f 920 	873 	919
f 921 	873 	920
f 918 	919 	873
f 922 	873 	921
f 917 	873 	923
f 926 	928 	925
f 924 	925 	928
f 927 	873 	926
f 918 	873 	927
f 928 	926 	873
f 922 	923 	873
f 906 	929 	917
f 873 	917 	929
f 872 	897 	928
f 872 	928 	873
f 929 	930 	931
f 937 	1263 	936
f 935 	936 	1263
f 938 	1263 	937
f 940 	369 	939
f 941 	369 	940
f 942 	369 	941
f 939 	369 	938
f 943 	369 	942
f 944 	369 	943
f 946 	1625 	945
f 952 	1625 	951
f 953 	1625 	952
f 955 	1625 	954
f 930 	929 	956
f 1625 	955 	929
f 934 	935 	1263
f 1263 	938 	369
f 944 	945 	369
f 947 	1625 	946
f 948 	1625 	947
f 949 	1625 	948
f 951 	1625 	950
f 369 	945 	1625
f 953 	954 	1625
f 956 	929 	955
f 959 	874 	957
f 960 	874 	959
f 341 	1027 	958
f 963 	873 	962
f 891 	890 	342
f 891 	342 	341
f 970 	200 	969
f 974 	969 	200
f 991 	990 	200
f 893 	892 	958
f 973 	958 	1028
f 976 	965 	975
f 808 	78 	978
f 994 	982 	78
f 978 	78 	979
f 979 	78 	981
f 981 	78 	982
f 967 	966 	980
f 251 	250 	82
f 983 	251 	82
f 983 	82 	984
f 200 	986 	82
f 1184 	967 	985
f 980 	985 	967
f 201 	82 	986
f 989 	988 	200
f 976 	1369 	980
f 986 	200 	987
f 980 	1370 	985
f 987 	200 	988
f 1186 	1184 	399
f 989 	200 	990
f 975 	451 	976
f 1370 	980 	1369
f 1371 	985 	1370
f 991 	200 	992
f 970 	993 	200
f 1360 	399 	1371
f 992 	200 	993
f 78 	995 	994
f 995 	78 	996
f 996 	78 	997
f 997 	78 	998
f 273 	998 	78
f 255 	82 	107
f 255 	254 	82
f 342 	1026 	341
f 107 	82 	108
f 1028 	958 	1027
f 923 	922 	1000
f 999 	923 	1000
f 1195 	1009 	1197
f 921 	920 	1009
f 922 	921 	1004
f 1022 	1198 	1015
f 342 	1025 	1026
f 1197 	1015 	1198
f 1027 	341 	1026
f 1015 	1009 	920
f 973 	1028 	1029
f 1198 	1022 	1199
f 1544 	890 	889
f 1022 	1015 	919
f 920 	919 	1015
f 1009 	1004 	921
f 893 	958 	973
f 1462 	886 	885
f 1462 	1541 	886
f 1544 	342 	890
f 341 	892 	891
f 341 	958 	892
f 1030 	1022 	918
f 893 	973 	883
f 1031 	1201 	1030
f 1031 	1030 	927
f 918 	927 	1030
f 1033 	1204 	1032
f 1276 	894 	366
f 927 	926 	1031
f 1035 	756 	1034
f 1041 	1039 	756
f 1034 	756 	1039
f 1041 	756 	1042
f 1043 	756 	1044
f 837 	961 	1040
f 1044 	756 	1049
f 1059 	1058 	756
f 1047 	1048 	1063
f 1048 	1050 	1063
f 1050 	1051 	1063
f 1051 	1052 	1063
f 1052 	1053 	1063
f 1053 	1054 	1063
f 1054 	1055 	1063
f 1056 	1063 	1055
f 1057 	1063 	1056
f 1036 	1063 	1057
f 1049 	756 	1058
f 926 	925 	1032
f 1032 	1031 	926
f 1061 	1060 	756
f 1059 	756 	1060
f 1036 	1037 	1063
f 1061 	756 	1067
f 1046 	1063 	1064
f 1046 	1064 	1065
f 1046 	1065 	1066
f 1046 	1066 	1068
f 1046 	1068 	1069
f 1070 	1045 	1069
f 1046 	1069 	1045
f 756 	335 	757
f 757 	1074 	1071
f 1074 	757 	335
f 1072 	1038 	395
f 1075 	335 	1076
f 1076 	335 	1077
f 1077 	335 	1078
f 1078 	335 	1080
f 1022 	919 	918
f 1080 	335 	1081
f 1083 	1081 	335
f 1086 	556 	1084
f 1004 	1000 	922
f 1089 	556 	1086
f 1088 	197 	1090
f 1091 	1090 	197
f 923 	999 	917
f 1084 	557 	1123
f 1033 	924 	1040
f 1093 	1111 	1629
f 1105 	1638 	1108
f 1096 	1095 	1629
f 1619 	1629 	1111
f 1095 	1092 	1629
f 1096 	1629 	1098
f 1562 	1563 	1104
f 1098 	1629 	1099
f 1102 	1101 	1629
f 1099 	1629 	1101
f 1561 	1562 	1104
f 1033 	925 	924
f 1033 	1032 	925
f 1082 	1560 	1104
f 1638 	1619 	1108
f 1111 	1109 	1619
f 398 	1378 	960
f 398 	562 	1378
f 1116 	197 	1117
f 1118 	1082 	1115
f 1119 	1638 	1121
f 1120 	1082 	1118
f 806 	1363 	396
f 1123 	557 	1120
f 1365 	397 	1364
f 396 	1364 	397
f 1638 	1106 	1124
f 1124 	1122 	1638
f 397 	1365 	398
f 562 	398 	1365
f 1369 	976 	451
f 1125 	1126 	1300
f 338 	197 	1127
f 1133 	1130 	197
f 1127 	197 	1130
f 1128 	883 	1125
f 1136 	197 	1114
f 1114 	197 	1113
f 1134 	1133 	197
f 1116 	1113 	197
f 1146 	1158 	1143
f 1154 	1151 	1308
f 1151 	1158 	1149
f 1094 	1097 	1564
f 1308 	1094 	1154
f 1100 	1103 	1563
f 1084 	1123 	1284
f 1084 	1284 	1285
f 1084 	1285 	1086
f 1089 	1086 	1286
f 1285 	1286 	1086
f 1288 	1097 	1094
f 1097 	1288 	1100
f 1378 	1131 	1129
f 1100 	1290 	1103
f 1104 	1103 	1291
f 1290 	1291 	1103
f 1292 	1107 	1291
f 1104 	1291 	1107
f 1391 	1144 	1142
f 1145 	1144 	1391
f 1396 	1152 	1150
f 1396 	1153 	1152
f 1397 	1402 	1153
f 1131 	1378 	1379
f 1132 	1131 	1382
f 1379 	1382 	1131
f 1132 	1382 	1135
f 1166 	196 	1168
f 1167 	196 	1166
f 1138 	1387 	1139
f 1170 	335 	1171
f 1388 	1389 	1139
f 1141 	1389 	1142
f 1168 	196 	1169
f 1147 	1393 	1148
f 1394 	1395 	1148
f 1173 	335 	1174
f 1175 	1174 	335
f 1397 	1153 	1396
f 1175 	335 	1176
f 335 	1177 	1176
f 1155 	1153 	1402
f 1156 	1155 	1402
f 1408 	1157 	1156
f 1159 	1157 	1408
f 340 	60 	1179
f 1410 	1160 	1159
f 1179 	60 	1180
f 1161 	1160 	1410
f 1180 	60 	1181
f 1181 	60 	1182
f 1163 	1162 	1415
f 1185 	60 	1188
f 1420 	1421 	1163
f 967 	874 	966
f 1184 	874 	967
f 1183 	60 	1185
f 965 	966 	874
f 1187 	874 	1186
f 1193 	1191 	60
f 1189 	874 	1187
f 1190 	874 	1189
f 1184 	1186 	874
f 1188 	60 	1191
f 957 	874 	1190
f 1193 	60 	1196
f 1198 	873 	1197
f 1196 	60 	1200
f 1200 	60 	1202
f 1205 	1202 	60
f 1205 	60 	59
f 1207 	199 	1206
f 1216 	77 	1217
f 1206 	199 	1208
f 873 	1062 	1192
f 873 	1192 	1194
f 1195 	873 	1194
f 1195 	1197 	873
f 873 	1198 	1199
f 1199 	1201 	873
f 1203 	873 	1201
f 961 	873 	1204
f 1208 	199 	1209
f 1209 	199 	1210
f 1135 	1212 	1132
f 1138 	1212 	1135
f 1213 	196 	1214
f 1141 	1212 	1139
f 1142 	1212 	1141
f 1144 	1212 	1142
f 1233 	1235 	1148
f 1138 	1139 	1212
f 1150 	1152 	1232
f 1231 	1232 	1152
f 807 	77 	1216
f 1153 	1155 	1230
f 1217 	199 	1218
f 1218 	199 	1207
f 1220 	1239 	77
f 1160 	929 	1159
f 929 	1316 	1156
f 1161 	929 	1160
f 1162 	929 	1161
f 1221 	77 	1222
f 1157 	1159 	929
f 1162 	1163 	929
f 1222 	77 	1223
f 1164 	1165 	929
f 1163 	1164 	929
f 1223 	77 	1224
f 873 	929 	1165
f 873 	1165 	1062
f 1224 	77 	1225
f 1229 	1227 	77
f 1131 	1132 	874
f 874 	1132 	1212
f 1129 	1131 	874
f 960 	1129 	874
f 1225 	77 	1227
f 1243 	1244 	1212
f 1147 	1148 	1235
f 1145 	1147 	1235
f 59 	77 	1234
f 1234 	77 	1237
f 77 	1221 	1219
f 1239 	1237 	77
f 1243 	1212 	1242
f 610 	611 	1251
f 1226 	1263 	1244
f 1018 	1017 	1001
f 1017 	1016 	1001
f 1016 	1014 	1001
f 1014 	1013 	1001
f 1013 	1012 	1001
f 1012 	1011 	1001
f 1011 	1010 	1001
f 1010 	1008 	1001
f 1008 	1007 	1001
f 1007 	1006 	1001
f 1006 	1005 	1001
f 1005 	1003 	1001
f 1002 	1001 	1003
f 1027 	1026 	1001
f 1026 	1025 	1001
f 1025 	1024 	1001
f 1024 	1023 	1001
f 1023 	1021 	1001
f 1021 	1020 	1001
f 1020 	1019 	1001
f 1019 	1018 	1001
f 1028 	1027 	1001
f 1249 	1250 	1247
f 1248 	1247 	1250
f 1250 	1625 	1248
f 1248 	1628 	1254
f 1253 	1249 	1247
f 1253 	1247 	1252
f 1248 	67 	1247
f 1249 	69 	1250
f 868 	869 	80
f 66 	80 	1251
f 1251 	80 	618
f 618 	619 	1251
f 619 	620 	1251
f 607 	608 	1251
f 1250 	63 	1251
f 1254 	81 	1248
f 75 	1252 	1247
f 1249 	1253 	69
f 76 	69 	1253
f 1252 	75 	1253
f 76 	1253 	75
f 67 	1248 	81
f 649 	676 	1254
f 670 	81 	673
f 668 	81 	670
f 1254 	673 	81
f 668 	666 	81
f 690 	81 	691
f 556 	1355 	871
f 557 	556 	871
f 555 	554 	559
f 555 	559 	558
f 553 	552 	561
f 553 	561 	560
f 1263 	563 	562
f 1263 	562 	874
f 566 	578 	497
f 565 	566 	497
f 567 	565 	497
f 568 	567 	497
f 569 	568 	497
f 563 	1263 	572
f 574 	573 	1263
f 572 	1263 	573
f 574 	1263 	576
f 576 	1263 	578
f 578 	1263 	497
f 1486 	540 	1261
f 571 	570 	497
f 585 	582 	497
f 587 	586 	497
f 586 	585 	497
f 587 	497 	588
f 590 	588 	641
f 641 	653 	590
f 593 	590 	653
f 595 	593 	651
f 895 	1264 	896
f 639 	641 	497
f 642 	639 	497
f 561 	552 	646
f 597 	595 	650
f 651 	650 	595
f 644 	642 	497
f 1266 	1503 	1267
f 664 	662 	497
f 1504 	1268 	1267
f 1497 	1266 	1496
f 1270 	1515 	1271
f 1271 	1516 	1272
f 1517 	1272 	1516
f 1272 	1517 	1266
f 1497 	1272 	1266
f 1497 	1498 	1272
f 1500 	1269 	1270
f 1500 	1501 	1269
f 1257 	1507 	1258
f 1262 	1510 	1261
f 1273 	1261 	1511
f 1273 	1511 	1512
f 1273 	1512 	1274
f 1513 	1274 	1512
f 1269 	1274 	1513
f 1269 	1513 	1514
f 1501 	1274 	1269
f 1501 	1502 	1274
f 1486 	1261 	1273
f 1519 	1518 	1276
f 898 	1276 	1275
f 1521 	1278 	1277
f 899 	1277 	900
f 1521 	1522 	1278
f 1279 	1278 	1522
f 1522 	1523 	1279
f 900 	1278 	901
f 1524 	1281 	1280
f 1279 	901 	1278
f 1280 	902 	1279
f 1281 	903 	1280
f 1282 	1281 	1525
f 1524 	1525 	1281
f 1525 	1526 	1282
f 905 	1282 	1283
f 1107 	1292 	1110
f 1110 	1294 	1112
f 1112 	1294 	1115
f 1115 	1296 	1118
f 1296 	1120 	1118
f 1298 	1123 	1120
f 1299 	1125 	1300
f 1299 	1301 	1125
f 1128 	1125 	1301
f 1128 	1301 	1137
f 1301 	1302 	1137
f 1303 	1140 	1137
f 1303 	1137 	1302
f 1303 	1304 	1140
f 1143 	1140 	1304
f 1143 	1304 	1146
f 1305 	1146 	1304
f 1146 	1305 	1149
f 1149 	1307 	1151
f 1151 	1307 	1308
f 1284 	1123 	1298
f 1094 	1287 	1288
f 1288 	1289 	1100
f 1100 	1289 	1290
f 1292 	1293 	1110
f 1110 	1293 	1294
f 1294 	1295 	1115
f 1115 	1295 	1296
f 1296 	1297 	1120
f 1120 	1297 	1298
f 1306 	1149 	1305
f 1307 	1149 	1306
f 1287 	1094 	1308
f 1137 	1158 	1128
f 1140 	1158 	1137
f 1143 	1158 	1140
f 1149 	1158 	1146
f 883 	1128 	1158
f 1284 	1298 	1287
f 1298 	1297 	1287
f 1304 	1303 	1284
f 1297 	1296 	1287
f 1296 	1295 	1287
f 1288 	1287 	1295
f 1288 	1295 	1294
f 1288 	1294 	1293
f 1288 	1293 	1292
f 1288 	1292 	1291
f 1290 	1289 	1291
f 1288 	1291 	1289
f 1302 	1301 	1284
f 1300 	1286 	1299
f 1301 	1299 	1284
f 1302 	1284 	1303
f 1307 	1284 	1308
f 1287 	1308 	1284
f 1306 	1284 	1307
f 1305 	1284 	1306
f 1304 	1284 	1305
f 1154 	1094 	1565
f 1565 	1566 	1158
f 1569 	1570 	1158
f 1151 	1154 	1565
f 1309 	1564 	1100
f 1563 	1309 	1100
f 1560 	1561 	1104
f 1082 	1104 	1107
f 1112 	1082 	1110
f 1107 	1110 	1082
f 1115 	1082 	1112
f 1082 	1120 	557
f 1315 	929 	1313
f 606 	1407 	1312
f 1312 	1407 	1314
f 1232 	1233 	1148
f 1152 	1153 	1230
f 1321 	880 	1322
f 929 	931 	1245
f 929 	1245 	1246
f 929 	1246 	1310
f 929 	1310 	1311
f 1313 	929 	1311
f 1316 	929 	1315
f 1319 	1230 	1155
f 1144 	1145 	1235
f 1212 	1144 	1235
f 1236 	1212 	1235
f 1212 	1236 	1238
f 1240 	1212 	1238
f 1241 	1212 	1240
f 1242 	1212 	1241
f 1212 	1244 	1263
f 1148 	1150 	1232
f 1230 	1231 	1152
f 1317 	1319 	1155
f 1155 	1156 	1317
f 1316 	1317 	1156
f 1156 	1157 	929
f 932 	1263 	1228
f 1228 	1263 	1226
f 1212 	1263 	874
f 933 	1263 	932
f 933 	934 	1263
f 1203 	1204 	873
f 961 	962 	873
f 964 	874 	963
f 965 	874 	964
f 873 	963 	874
f 880 	1320 	1407
f 911 	1323 	880
f 880 	1323 	1322
f 1318 	1407 	1320
f 1314 	1407 	1318
f 1321 	1320 	880
f 651 	1324 	650
f 688 	650 	1324
f 1324 	651 	653
f 1324 	653 	1325
f 641 	679 	653
f 1325 	653 	679
f 871 	471 	872
f 682 	644 	1326
f 655 	1326 	644
f 657 	1327 	1326
f 657 	1326 	655
f 658 	444 	657
f 1327 	657 	444
f 444 	658 	1328
f 659 	1328 	658
f 662 	400 	1328
f 662 	1328 	659
f 400 	662 	401
f 664 	401 	662
f 665 	402 	401
f 665 	401 	664
f 402 	665 	403
f 667 	403 	665
f 404 	403 	667
f 671 	405 	404
f 672 	406 	405
f 672 	405 	671
f 406 	672 	407
f 674 	407 	672
f 407 	674 	408
f 675 	408 	674
f 409 	408 	675
f 554 	410 	409
f 841 	837 	928
f 968 	841 	928
f 971 	453 	972
f 453 	971 	968
f 975 	972 	453
f 411 	1334 	412
f 1333 	412 	1334
f 928 	837 	1040
f 1335 	415 	412
f 1335 	412 	1333
f 415 	1335 	416
f 1336 	416 	1335
f 1337 	418 	416
f 1337 	416 	1336
f 924 	928 	1040
f 418 	1337 	419
f 1338 	419 	1337
f 419 	1338 	1339
f 419 	1339 	421
f 421 	1339 	422
f 1340 	422 	1339
f 422 	1340 	424
f 1341 	424 	1340
f 1342 	426 	1341
f 424 	1341 	426
f 429 	428 	1343
f 559 	1343 	428
f 451 	975 	453
f 1344 	430 	1343
f 429 	1343 	430
f 430 	1344 	1345
f 430 	1345 	432
f 1346 	433 	1345
f 432 	1345 	433
f 1357 	931 	1356
f 1356 	931 	930
f 433 	1346 	1347
f 433 	1347 	435
f 1334 	411 	1347
f 435 	1347 	411
f 933 	932 	1359
f 1358 	1359 	932
f 563 	1359 	1358
f 1450 	934 	1359
f 1354 	1426 	1353
f 1355 	1425 	1354
f 556 	1255 	1355
f 1532 	1533 	949
f 1379 	562 	1382
f 1135 	1382 	1386
f 562 	563 	1382
f 1135 	1386 	1387
f 1135 	1387 	1138
f 1388 	1139 	1387
f 470 	1385 	446
f 1141 	1139 	1389
f 446 	1366 	1367
f 446 	1367 	448
f 1368 	449 	1367
f 448 	1367 	449
f 1387 	1386 	563
f 1386 	1382 	563
f 1369 	451 	1368
f 449 	1368 	451
f 1389 	1390 	1142
f 1390 	1391 	1142
f 455 	553 	456
f 1372 	456 	553
f 1391 	1392 	1145
f 1373 	457 	456
f 1373 	456 	1372
f 563 	1439 	1389
f 457 	1373 	459
f 1374 	459 	1373
f 1147 	1145 	1393
f 1392 	1393 	1145
f 1375 	460 	459
f 1375 	459 	1374
f 1438 	1437 	1389
f 1439 	1438 	1389
f 460 	1375 	461
f 1376 	461 	1375
f 1377 	463 	461
f 1377 	461 	1376
f 1394 	1148 	1393
f 1377 	1380 	463
f 465 	463 	1380
f 1150 	1148 	1395
f 1381 	466 	1380
f 465 	1380 	466
f 1391 	1390 	1436
f 1437 	1436 	1390
f 1383 	468 	1381
f 466 	1381 	468
f 468 	1383 	1384
f 468 	1384 	469
f 1150 	1395 	1396
f 469 	1384 	1385
f 469 	1385 	470
f 1366 	446 	1385
f 1156 	1402 	1405
f 1327 	444 	1407
f 1405 	1408 	1156
f 1330 	877 	875
f 1330 	875 	1329
f 1332 	882 	879
f 1332 	879 	1331
f 1430 	1429 	1396
f 1159 	1408 	1409
f 1409 	1410 	1159
f 1161 	1410 	1413
f 1412 	1406 	1411
f 1414 	1406 	1412
f 1162 	1161 	1415
f 1413 	1415 	1161
f 1410 	1444 	1413
f 1409 	1446 	1410
f 1413 	906 	1415
f 1420 	1163 	1415
f 1415 	906 	1420
f 1164 	1163 	1421
f 906 	917 	1420
f 1421 	1422 	1164
f 1165 	1164 	1422
f 426 	1411 	1406
f 1165 	999 	1062
f 876 	1406 	1416
f 1417 	876 	1416
f 1419 	876 	1418
f 1417 	1418 	876
f 884 	876 	1419
f 1414 	1416 	1406
f 1257 	897 	1256
f 897 	1257 	1258
f 1260 	544 	1259
f 1258 	1259 	544
f 999 	1165 	1422
f 1260 	1262 	544
f 1262 	540 	544
f 1422 	1421 	917
f 999 	1422 	917
f 1421 	1420 	917
f 960 	1378 	1129
f 1256 	897 	1265
f 896 	1265 	897
f 1388 	1387 	563
f 1378 	562 	1379
f 1228 	1428 	932
f 1126 	973 	1300
f 1029 	1300 	973
f 1126 	1125 	883
f 973 	1126 	883
f 1089 	1286 	1255
f 1001 	1255 	1286
f 557 	1084 	556
f 1255 	556 	1089
f 1285 	1299 	1286
f 1285 	1284 	1299
f 1029 	1286 	1300
f 1029 	1028 	1001
f 1001 	1286 	1029
f 1342 	1423 	426
f 1411 	426 	1423
f 1440 	1226 	1244
f 1441 	1245 	931
f 1245 	1441 	1246
f 1442 	1246 	1441
f 1444 	1445 	1311
f 1447 	1448 	1316
f 1448 	1449 	1317
f 1018 	1418 	1417
f 1019 	1424 	1018
f 1419 	1424 	884
f 885 	884 	1424
f 1425 	1255 	1002
f 1001 	1002 	1255
f 1002 	1003 	1425
f 1426 	1425 	1003
f 1425 	1355 	1255
f 1428 	1228 	1226
f 1231 	1430 	1232
f 1235 	1434 	1236
f 1236 	1434 	1238
f 1238 	1436 	1240
f 1240 	1436 	1241
f 1241 	1437 	1242
f 1243 	1242 	1439
f 1438 	1439 	1242
f 1243 	1439 	1440
f 1243 	1440 	1244
f 1444 	1311 	1310
f 1313 	1311 	1445
f 1315 	1313 	1445
f 1319 	1317 	1449
f 1319 	1449 	1230
f 1430 	1231 	1230
f 1430 	1431 	1232
f 1232 	1431 	1233
f 1233 	1433 	1235
f 1235 	1433 	1434
f 1434 	1435 	1238
f 1238 	1435 	1436
f 1436 	1437 	1241
f 1438 	1242 	1437
f 931 	1357 	1441
f 1442 	1310 	1246
f 1446 	1315 	1445
f 1315 	1446 	1316
f 1447 	1316 	1446
f 1317 	1316 	1448
f 1230 	1449 	1429
f 1440 	1427 	1226
f 1226 	1427 	1428
f 932 	1428 	1358
f 1428 	1427 	563
f 1427 	1440 	563
f 1230 	1429 	1430
f 1449 	1448 	1405
f 1429 	1449 	1402
f 1405 	1402 	1449
f 1233 	1431 	1432
f 1432 	1433 	1233
f 1395 	1394 	1431
f 1396 	1395 	1431
f 1432 	1431 	1394
f 1433 	1432 	1394
f 1435 	1434 	1392
f 1394 	1393 	1433
f 1393 	1392 	1433
f 1434 	1433 	1392
f 1440 	1439 	563
f 1390 	1389 	1437
f 1441 	906 	1442
f 1310 	1442 	1443
f 1443 	1444 	1310
f 1443 	1413 	1444
f 1445 	1410 	1446
f 1408 	1405 	1447
f 1447 	1446 	1408
f 1448 	1447 	1405
f 1356 	906 	1357
f 1444 	1410 	1445
f 1413 	1443 	906
f 1442 	906 	1443
f 1357 	906 	1441
f 1392 	1391 	1435
f 1436 	1435 	1391
f 1431 	1430 	1396
f 1397 	1396 	1429
f 1402 	1397 	1429
f 1408 	1446 	1409
f 1358 	1428 	563
f 1389 	1388 	563
f 537 	428 	410
f 537 	410 	518
f 488 	439 	441
f 488 	441 	455
f 609 	1407 	605
f 606 	605 	1407
f 443 	1407 	609
f 622 	1407 	621
f 627 	1407 	625
f 632 	633 	688
f 633 	636 	687
f 636 	637 	685
f 627 	629 	1407
f 687 	688 	633
f 1324 	1325 	630
f 632 	1324 	630
f 439 	685 	637
f 685 	687 	636
f 678 	1407 	679
f 681 	1407 	678
f 1407 	629 	679
f 682 	1407 	681
f 1326 	1407 	682
f 688 	1324 	632
f 629 	630 	679
f 1325 	679 	630
f 1406 	1407 	444
f 444 	1328 	1406
f 1328 	400 	1406
f 945 	1320 	946
f 1321 	1322 	946
f 933 	1359 	934
f 1450 	935 	934
f 942 	1455 	943
f 1314 	1318 	943
f 945 	944 	1320
f 1321 	946 	1320
f 947 	946 	1322
f 1322 	1323 	947
f 1534 	951 	950
f 1534 	1535 	951
f 1537 	954 	953
f 1537 	1538 	954
f 1359 	572 	1450
f 935 	1450 	1451
f 1450 	572 	573
f 1450 	573 	1451
f 1528 	1451 	574
f 939 	1452 	940
f 1453 	940 	1452
f 566 	565 	1452
f 1454 	941 	1453
f 940 	1453 	941
f 1453 	1452 	565
f 565 	567 	1453
f 1455 	942 	1454
f 941 	1454 	942
f 1314 	943 	1312
f 1455 	1312 	943
f 944 	943 	1318
f 667 	665 	497
f 665 	664 	497
f 669 	1347 	671
f 671 	1346 	672
f 672 	1346 	674
f 1347 	667 	497
f 1334 	1347 	497
f 1333 	1334 	497
f 1335 	1333 	497
f 1336 	1335 	497
f 559 	554 	1343
f 1345 	674 	1346
f 1346 	671 	1347
f 1342 	1341 	498
f 1348 	1342 	498
f 471 	871 	498
f 1349 	1348 	498
f 1349 	498 	1350
f 1350 	498 	1351
f 1351 	498 	1352
f 1352 	498 	1353
f 1353 	498 	1354
f 1354 	498 	1355
f 1355 	498 	871
f 675 	674 	1345
f 1345 	1344 	675
f 1344 	1343 	675
f 677 	675 	1343
f 554 	677 	1343
f 653 	651 	593
f 650 	647 	597
f 647 	646 	597
f 598 	597 	646
f 552 	598 	646
f 369 	497 	1263
f 1354 	1425 	1426
f 1010 	1456 	1457
f 1008 	1010 	1457
f 1458 	1456 	1011
f 1010 	1011 	1456
f 1458 	1348 	1456
f 1456 	1349 	1457
f 1011 	1012 	1458
f 1423 	1458 	1012
f 1423 	1342 	1458
f 1350 	1457 	1349
f 1423 	1013 	1411
f 1412 	1411 	1013
f 1423 	1012 	1013
f 1349 	1456 	1348
f 1013 	1414 	1412
f 1414 	1013 	1014
f 1348 	1458 	1342
f 1014 	1016 	1414
f 1416 	1414 	1016
f 1416 	1016 	1417
f 1017 	1417 	1016
f 1417 	1017 	1018
f 1459 	1426 	1005
f 1003 	1005 	1426
f 1460 	1459 	1006
f 1459 	1005 	1006
f 1460 	1352 	1459
f 1459 	1353 	1426
f 1006 	1007 	1460
f 1461 	1460 	1007
f 1461 	1351 	1460
f 1007 	1008 	1461
f 1457 	1461 	1008
f 1351 	1461 	1350
f 1457 	1350 	1461
f 1352 	1460 	1351
f 1353 	1459 	1352
f 1418 	1018 	1419
f 1419 	1018 	1424
f 1476 	1477 	516
f 516 	1477 	1463
f 495 	1465 	472
f 472 	1398 	1399
f 472 	1399 	473
f 1400 	476 	1399
f 473 	1399 	476
f 476 	1400 	1401
f 476 	1401 	479
f 1403 	482 	1401
f 479 	1401 	482
f 482 	1403 	1404
f 482 	1404 	485
f 560 	488 	1404
f 485 	1404 	488
f 489 	1463 	1464
f 489 	1464 	492
f 1465 	495 	1464
f 492 	1464 	495
f 1398 	472 	1465
f 521 	1479 	501
f 1467 	502 	501
f 1467 	501 	1466
f 502 	1467 	503
f 1468 	503 	1467
f 1469 	504 	503
f 1469 	503 	1468
f 1470 	505 	1469
f 504 	1469 	505
f 1471 	507 	1470
f 505 	1470 	507
f 507 	1471 	1472
f 507 	1472 	509
f 1473 	510 	1472
f 509 	1472 	510
f 510 	1473 	1474
f 510 	1474 	511
f 1475 	512 	1474
f 511 	1474 	512
f 512 	1475 	1476
f 512 	1476 	513
f 513 	1476 	516
f 1463 	489 	516
f 518 	555 	519
f 1478 	519 	555
f 1479 	521 	519
f 1479 	519 	1478
f 1466 	501 	1479
f 1267 	1268 	1495
f 1496 	1267 	1495
f 549 	1494 	525
f 525 	1480 	1481
f 525 	1481 	528
f 1482 	529 	1481
f 528 	1481 	529
f 529 	1482 	1483
f 529 	1483 	530
f 1484 	533 	1483
f 530 	1483 	533
f 533 	1484 	1485
f 533 	1485 	535
f 558 	537 	1485
f 535 	1485 	537
f 541 	540 	1487
f 1486 	1487 	540
f 541 	1487 	1488
f 541 	1488 	542
f 1489 	543 	1488
f 542 	1488 	543
f 543 	1489 	1490
f 543 	1490 	545
f 1491 	546 	1490
f 545 	1490 	546
f 546 	1491 	1492
f 546 	1492 	547
f 1493 	548 	1492
f 547 	1492 	548
f 548 	1493 	1494
f 548 	1494 	549
f 1480 	525 	1494
f 1264 	1506 	1265
f 1283 	895 	905
f 1269 	1514 	1270
f 1515 	1270 	1514
f 1516 	1271 	1515
f 1507 	1257 	1256
f 1258 	1508 	1259
f 1259 	1509 	1260
f 1260 	1510 	1262
f 1275 	1276 	1518
f 1518 	1520 	1275
f 1280 	1279 	1523
f 1280 	1523 	1524
f 1283 	1527 	1264
f 1527 	1506 	1264
f 1266 	1517 	1503
f 1504 	1267 	1503
f 1504 	1505 	1268
f 1256 	1265 	1506
f 1256 	1506 	1507
f 1258 	1507 	1508
f 1509 	1259 	1508
f 1509 	1510 	1260
f 1511 	1261 	1510
f 1277 	1275 	1520
f 1521 	1277 	1520
f 1283 	1282 	1526
f 1283 	1526 	1527
f 1276 	366 	395
f 1519 	1276 	395
f 883 	1573 	894
f 1265 	896 	1264
f 898 	1275 	899
f 1277 	899 	1275
f 1278 	900 	1277
f 901 	1279 	902
f 1282 	904 	1281
f 903 	1281 	904
f 904 	1282 	905
f 1264 	895 	1283
f 898 	894 	1276
f 606 	1312 	1455
f 944 	1318 	1320
f 935 	1451 	936
f 1528 	936 	1451
f 936 	1528 	937
f 1529 	937 	1528
f 574 	576 	1528
f 937 	1529 	938
f 1530 	938 	1529
f 938 	1530 	939
f 1452 	939 	1530
f 578 	1530 	1529
f 1530 	578 	566
f 1530 	566 	1452
f 948 	947 	1531
f 1323 	1531 	947
f 1531 	1532 	948
f 1532 	949 	948
f 950 	949 	1533
f 908 	1533 	909
f 909 	1532 	910
f 1531 	910 	1532
f 1533 	1534 	950
f 1533 	908 	1534
f 1532 	909 	1533
f 1323 	911 	1531
f 952 	951 	1535
f 1535 	1536 	952
f 953 	952 	1536
f 915 	1536 	916
f 1536 	1537 	953
f 1534 	907 	1535
f 955 	954 	1538
f 1536 	915 	1537
f 1535 	916 	1536
f 1538 	1539 	955
f 956 	955 	1539
f 1539 	1356 	956
f 930 	956 	1356
f 1538 	913 	1539
f 1537 	914 	1538
f 916 	1535 	907
f 1534 	908 	907
f 910 	1531 	911
f 913 	1538 	914
f 1341 	1340 	498
f 1340 	1339 	498
f 1339 	1338 	498
f 497 	498 	1338
f 1338 	1337 	497
f 1337 	1336 	497
f 667 	1347 	669
f 662 	659 	497
f 659 	658 	497
f 658 	657 	497
f 657 	655 	497
f 655 	644 	497
f 641 	588 	497
f 582 	580 	497
f 580 	571 	497
f 570 	569 	497
f 1361 	1360 	874
f 1362 	1361 	874
f 1363 	1362 	874
f 1364 	1363 	874
f 1365 	1364 	874
f 1368 	874 	1369
f 1370 	1369 	874
f 874 	1360 	1371
f 1404 	1403 	1373
f 1376 	1375 	1540
f 1377 	1376 	1540
f 1380 	1377 	1540
f 1383 	1381 	1540
f 1381 	1380 	1540
f 1540 	1385 	1384
f 1384 	1383 	1540
f 1400 	1540 	1401
f 1540 	1375 	1401
f 1424 	1019 	1462
f 1462 	1019 	1020
f 885 	1424 	1462
f 1020 	1541 	1462
f 1541 	1020 	1021
f 1023 	1542 	1021
f 1541 	1021 	1542
f 887 	886 	1541
f 888 	887 	1542
f 1541 	1542 	887
f 1542 	1023 	1543
f 1024 	1543 	1023
f 1543 	1024 	1544
f 1025 	1544 	1024
f 1025 	342 	1544
f 889 	888 	1543
f 1542 	1543 	888
f 1544 	889 	1543
f 906 	1356 	912
f 1539 	912 	1356
f 1539 	913 	912
f 1537 	915 	914
f 1454 	1453 	567
f 1455 	1454 	568
f 567 	568 	1454
f 1455 	568 	606
f 1359 	563 	572
f 573 	574 	1451
f 1529 	1528 	576
f 1529 	576 	578
f 398 	960 	959
f 961 	837 	962
f 841 	968 	962
f 963 	971 	964
f 964 	971 	965
f 1194 	1004 	1195
f 1015 	1197 	1009
f 1201 	1031 	1203
f 1032 	1204 	1203
f 806 	396 	1190
f 959 	957 	397
f 396 	397 	957
f 959 	397 	398
f 1187 	1186 	551
f 399 	551 	1186
f 551 	564 	1187
f 841 	962 	837
f 963 	962 	968
f 963 	968 	971
f 971 	972 	965
f 966 	965 	976
f 972 	975 	965
f 976 	980 	966
f 985 	399 	1184
f 1000 	1192 	999
f 1062 	999 	1192
f 1192 	1000 	1194
f 1004 	1194 	1000
f 1009 	1195 	1004
f 1030 	1199 	1022
f 1199 	1030 	1201
f 1032 	1203 	1031
f 1040 	961 	1033
f 1204 	1033 	961
f 1280 	903 	902
f 1504 	1508 	1505
f 1063 	1037 	1038
f 1063 	1038 	1073
f 1046 	1047 	1063
f 1073 	1038 	1072
f 1506 	1527 	1505
f 1527 	1526 	1505
f 1507 	1506 	1505
f 1504 	1503 	1508
f 1508 	1503 	1517
f 1508 	1517 	1516
f 1508 	1516 	1515
f 1508 	1515 	1514
f 1508 	1514 	1513
f 1508 	1513 	1512
f 1508 	1512 	1511
f 1508 	1511 	1510
f 1508 	1510 	1509
f 1508 	1507 	1505
f 1526 	1525 	1505
f 1525 	1524 	1505
f 1524 	1523 	1505
f 1523 	1522 	1505
f 1522 	1521 	1505
f 1521 	1520 	1505
f 1520 	1518 	1505
f 1518 	1519 	1505
f 1038 	1505 	1519
f 395 	1038 	1519
f 968 	928 	897
f 1258 	512 	897
f 512 	500 	897
f 544 	543 	1258
f 550 	1258 	543
f 512 	1258 	550
f 968 	897 	500
f 500 	446 	968
f 453 	968 	446
f 1545 	1546 	1547
f 1633 	1548 	1547
f 1545 	1547 	1548
f 1268 	1505 	1079
f 1550 	1551 	1549
f 1551 	1552 	1549
f 1552 	1630 	1549
f 1079 	1505 	1038
f 557 	1268 	1079
f 1262 	1261 	540
f 557 	1495 	1268
f 1496 	1266 	1267
f 1271 	1272 	1498
f 1498 	1499 	1271
f 1270 	1271 	1499
f 1500 	1270 	1499
f 1273 	1274 	1502
f 1502 	1486 	1273
f 1554 	557 	1553
f 1079 	1553 	557
f 1554 	1036 	1555
f 557 	1555 	1082
f 1557 	1082 	1556
f 1558 	1082 	1557
f 1558 	1559 	1082
f 1097 	1100 	1564
f 1556 	1082 	1555
f 1554 	1555 	557
f 1556 	1555 	1057
f 1560 	1082 	1559
f 1103 	1104 	1563
f 1564 	1565 	1094
f 1158 	1151 	1565
f 1566 	1070 	1567
f 1069 	1068 	1567
f 1567 	1158 	1566
f 1569 	1158 	1568
f 1570 	1571 	1158
f 1571 	1572 	1158
f 1064 	1063 	1571
f 1567 	1568 	1158
f 883 	1158 	1572
f 1574 	894 	1573
f 1573 	883 	1572
f 366 	894 	1574
f 1038 	1553 	1079
f 1036 	1554 	1553
f 1057 	1555 	1036
f 1057 	1056 	1556
f 1556 	1056 	1055
f 1556 	1055 	1557
f 1054 	1558 	1055
f 1557 	1055 	1558
f 1054 	1053 	1558
f 1052 	1560 	1559
f 1560 	1052 	1561
f 1050 	1562 	1561
f 1562 	1050 	1563
f 1048 	1563 	1050
f 1048 	1047 	1563
f 1047 	1564 	1309
f 1045 	1565 	1564
f 1045 	1070 	1565
f 1566 	1565 	1070
f 1069 	1567 	1070
f 1568 	1567 	1068
f 1568 	1068 	1569
f 1066 	1569 	1068
f 1570 	1569 	1066
f 1064 	1571 	1570
f 1572 	1571 	1063
f 1572 	1073 	1573
f 1063 	1073 	1572
f 1573 	1073 	1574
f 1072 	1574 	1073
f 1072 	395 	1574
f 366 	1574 	395
f 1038 	1037 	1553
f 1553 	1037 	1036
f 1559 	1558 	1053
f 1559 	1053 	1052
f 1051 	1561 	1052
f 1050 	1561 	1051
f 1309 	1563 	1047
f 1046 	1564 	1047
f 1045 	1564 	1046
f 1065 	1570 	1066
f 1064 	1570 	1065
f 1463 	1540 	1464
f 1540 	1399 	1398
f 1540 	1398 	1465
f 1465 	1464 	1540
f 1467 	1575 	1468
f 1484 	1483 	1466
f 1575 	1469 	1468
f 1469 	1575 	1470
f 1471 	1470 	1575
f 1473 	1472 	1575
f 1472 	1471 	1575
f 1474 	1473 	1575
f 1575 	871 	1474
f 1478 	555 	1485
f 1479 	1484 	1466
f 1481 	1575 	1482
f 1483 	1482 	1575
f 1575 	1467 	1483
f 1467 	1466 	1483
f 871 	1487 	1486
f 1487 	871 	1488
f 1491 	1575 	1492
f 1493 	1492 	1575
f 1480 	1575 	1481
f 1494 	1575 	1480
f 1494 	1493 	1575
f 1498 	1497 	871
f 1499 	1498 	871
f 1501 	1500 	871
f 1499 	871 	1500
f 1502 	1501 	871
f 1486 	1502 	871
f 1496 	871 	1497
f 1496 	1495 	871
f 557 	871 	1495
f 558 	1485 	555
f 1479 	1478 	1485
f 1485 	1484 	1479
f 1373 	1372 	1404
f 1374 	1373 	1403
f 560 	1404 	1372
f 553 	560 	1372
f 1403 	1401 	1374
f 1375 	1374 	1401
f 1400 	1399 	1540
f 562 	1365 	874
f 1371 	1370 	874
f 1368 	1367 	874
f 874 	1367 	1366
f 874 	1366 	1385
f 874 	1385 	1540
f 1463 	1477 	1540
f 1477 	1476 	1540
f 874 	1540 	1476
f 874 	1476 	1475
f 1474 	871 	1475
f 1491 	1490 	1575
f 871 	1575 	1490
f 871 	1490 	1489
f 1489 	1488 	871
f 874 	1475 	871
f 498 	499 	471
f 369 	490 	496
f 496 	497 	369
f 499 	496 	490
f 490 	493 	499
f 471 	499 	493
f 369 	484 	491
f 494 	491 	484
f 484 	486 	494
f 471 	494 	486
f 369 	478 	483
f 484 	369 	483
f 487 	483 	478
f 478 	480 	487
f 471 	487 	480
f 369 	368 	477
f 481 	477 	368
f 368 	474 	481
f 471 	481 	474
f 536 	538 	369
f 538 	539 	369
f 539 	575 	369
f 575 	577 	369
f 515 	517 	367
f 1251 	536 	369
f 1546 	1545 	1576
f 1551 	1550 	1578
f 1576 	1577 	1546
f 1578 	1579 	1551
f 1579 	1578 	1577
f 1579 	1577 	1576
f 1580 	1581 	1582
f 1582 	1632 	1583
f 1580 	1582 	1583
f 1585 	1586 	1584
f 1586 	1587 	1584
f 1587 	1596 	1631
f 1580 	1588 	1589
f 1580 	1589 	1581
f 1585 	1590 	1591
f 1585 	1591 	1586
f 1591 	1590 	1589
f 1591 	1589 	1588
f 1592 	1593 	1594
f 1627 	1595 	1594
f 1592 	1594 	1595
f 1597 	1598 	1596
f 1598 	1599 	1596
f 1625 	1596 	1599
f 1592 	1600 	1601
f 1592 	1601 	1593
f 1597 	1602 	1603
f 1597 	1603 	1598
f 1603 	1602 	1601
f 1603 	1601 	1600
f 1604 	1605 	1606
f 1627 	1607 	1606
f 1604 	1606 	1607
f 1599 	1608 	1625
f 1609 	1610 	1608
f 1610 	1611 	1608
f 1625 	1608 	1611
f 1604 	1612 	1613
f 1604 	1613 	1605
f 1609 	1614 	1615
f 1609 	1615 	1610
f 1615 	1614 	1613
f 1615 	1613 	1612
f 442 	1628 	445
f 645 	643 	1254
f 1616 	467 	1628
f 1617 	1618 	1639
f 1618 	1619 	1639
f 1638 	1639 	1619
f 1092 	1093 	1629
f 1616 	1621 	1617
f 1620 	1617 	1621
f 1622 	1618 	1623
f 1622 	1619 	1618
f 1624 	1248 	1625
f 1621 	1624 	1620
f 1624 	1625 	1620
f 1611 	1620 	1625
f 753 	752 	1627
f 1626 	1623 	1627
f 1622 	1623 	1626
f 1623 	1607 	1627
f 369 	1625 	1251
f 1250 	1251 	1625
f 1624 	1628 	1248
f 1621 	1628 	1624
f 1616 	1628 	1621
f 1627 	471 	753
f 1629 	1619 	1626
f 1622 	1626 	1619
f 1627 	1606 	1595
f 1625 	1631 	1596
f 1583 	1632 	1594
f 879 	881 	1630
f 1630 	1584 	1631
f 1552 	1584 	1630
f 1584 	1587 	1631
f 1582 	1548 	1633
f 1582 	1633 	1632
f 1627 	1594 	1632
f 1630 	1634 	879
f 1631 	1635 	1634
f 1631 	1634 	1630
f 1633 	1330 	1637
f 1637 	1330 	1636
f 1636 	1632 	1633
f 1636 	1633 	1637
f 1549 	1630 	881
f 1625 	929 	1631
f 875 	872 	1632
f 1627 	1632 	872
f 1547 	878 	1633
f 877 	1633 	878
f 950 	1625 	949
f 879 	1634 	1331
f 1631 	882 	1635
f 1332 	1635 	882
f 1634 	1635 	1331
f 1332 	1331 	1635
f 872 	471 	1627
f 1632 	1636 	1329
f 1632 	1329 	875
f 1633 	877 	1330
f 1330 	1329 	1636
f 1639 	269 	1617
f 413 	1616 	417
f 1109 	1108 	1619
f 1106 	1638 	1105
f 417 	1616 	420
f 420 	1616 	423
f 1638 	1640 	1641
f 1638 	1641 	1639
f 1121 	1638 	1122
f 1638 	1117 	197
f 1136 	1134 	197
f 1119 	1117 	1638
f 1640 	1638 	198
f 197 	198 	1638
f 624 	436 	269
f 269 	1639 	1641
f 198 	339 	1640
f 337 	1641 	1642
f 1641 	1640 	1643
f 1641 	1643 	1642
f 337 	1642 	140
f 2 	140 	1642
f 1643 	1 	2
f 1643 	2 	1642
# 2443 faces

 #end of obj_0

