# Object Export From Tinkercad Server 2015

mtllib obj.mtl

o obj_0
v 18.4 		50.9 		3.2
v 18.4 		41.103 		1.598
v 18.4 		41.103 		3.2
v 18.4 		29.098 		3.2
v 18.4 		29.098 		1.598
v 18.4 		19.3 		3.2
v 18.4 		50.9 		0
v 18.4 		19.3 		0
v 22.307 		23.277 		1.598
v 19.998 		48.302 		3.2
v 20.2 		49.2 		3.2
v 20.2 		50 		3.2
v 19.998 		21.898 		3.2
v 20.2 		20.2 		3.2
v 20.2 		21 		3.2
v 21.307 		46.046 		1.598
v 21.3047 		46.08 		1.598
v 19.998 		41.103 		3.2
v 19.998 		29.098 		3.2
v 22.204 		23.257 		1.598
v 22.406 		23.311 		1.598
v 58.3 		23.25 		1.598
v 58.196 		23.257 		1.598
v 22.5 		23.357 		1.598
v 22.528 		23.3757 		1.598
v 21.327 		45.943 		1.598
v 21.534 		23.484 		1.598
v 21.4746 		23.552 		1.598
v 21.361 		45.844 		1.598
v 21.407 		45.75 		1.598
v 21.613 		23.415 		1.598
v 21.465 		45.663 		1.598
v 19.998 		48.302 		1.598
v 21.504 		45.6183 		1.598
v 19.998 		21.898 		1.598
v 101.368 		32.132 		3.2
v 19.998 		41.103 		1.598
v 19.998 		29.098 		1.598
v 101.289 		32.063 		3.2
v 60.2 		21 		3.2
v 60.2 		20.2 		3.2
v 101.202 		32.005 		3.2
v 101.108 		31.958 		3.2
v 20.2 		50 		4.8
v 20.2 		49.2 		4.8
v 20.2 		21 		4.8
v 20.2 		20.2 		4.8
v 101.009 		31.925 		3.2
v 100.906 		31.904 		3.2
v 60.2 		20.2 		4.8
v 100.802 		31.898 		3.2
v 60.2 		21 		4.8
v 21.3 		46.15 		0
v 21.3 		45.35 		0
v 101.542 		32.392 		3.2
v 101.544 		32.398 		3.2
v 21.3 		24.05 		0
v 101.495 		32.298 		3.2
v 58.3 		23.25 		0
v 101.437 		32.211 		3.2
v 57.5 		21.898 		1.598
v 59.1 		46.15 		0
v 21.3 		24.05 		1.598
v 57.5 		24.05 		0
v 57.507 		23.946 		0
v 101.542 		37.195 		1.598
v 101.495 		37.102 		1.598
v 57.527 		23.843 		0
v 57.561 		23.744 		0
v 101.437 		37.014 		1.598
v 57.607 		23.65 		0
v 57.665 		23.563 		0
v 101.368 		36.936 		1.598
v 57.6746 		23.552 		0
v 60.403 		21.898 		3.2
v 62 		19.3 		3.2
v 101.289 		36.867 		1.598
v 62 		19.3 		0
v 57.507 		24.154 		0
v 57.527 		24.257 		0
v 57.561 		24.356 		0
v 57.607 		24.45 		0
v 57.665 		24.537 		0
v 57.6991 		24.576 		0
v 58.368 		23.2546 		0
v 60.403 		21.898 		1.598
v 57.734 		23.484 		0
v 57.813 		23.415 		0
v 57.9 		23.357 		0
v 95.694 		36.708 		0
v 95.798 		36.701 		0
v 57.994 		23.311 		0
v 95.591 		36.729 		0
v 58.093 		23.277 		0
v 58.196 		23.257 		0
v 95.492 		36.762 		0
v 95.398 		36.809 		0
v 102.4 		40.3 		0
v 102.4 		40.3 		3.2
v 102.4 		29.9 		3.2
v 102.4 		29.9 		0
v 95.0563 		37.803 		3.2
v 95.058 		37.808 		3.2
v 95.311 		36.867 		0
v 95.232 		36.936 		0
v 95.163 		37.014 		0
v 95.105 		37.902 		3.2
v 95.105 		37.102 		0
v 95.163 		37.989 		3.2
v 95.058 		37.195 		0
v 95.232 		38.068 		3.2
v 95.025 		37.295 		0
v 100.802 		38.303 		0
v 95.004 		37.397 		0
v 95.311 		38.137 		3.2
v 94.998 		37.502 		0
v 95.398 		38.195 		3.2
v 95.004 		37.606 		0
v 95.492 		38.242 		3.2
v 95.025 		37.709 		0
v 95.591 		38.275 		3.2
v 95.058 		37.808 		0
v 95.694 		38.296 		3.2
v 95.798 		38.303 		3.2
v 95.105 		37.902 		0
v 95.798 		36.701 		1.598
v 95.163 		37.989 		0
v 100.802 		36.701 		0
v 101.542 		37.808 		3.2
v 95.232 		38.068 		0
v 101.5437 		37.803 		3.2
v 21.7 		23.357 		1.598
v 95.311 		38.137 		0
v 95.398 		38.195 		0
v 21.794 		23.311 		1.598
v 95.492 		38.242 		0
v 95.591 		38.275 		0
v 21.893 		23.277 		1.598
v 100.802 		36.701 		1.598
v 95.694 		38.296 		0
v 95.798 		38.303 		0
v 95.798 		31.898 		3.2
v 101.603 		37.803 		3.2
v 100.802 		38.303 		3.2
v 100.906 		38.296 		3.2
v 101.202 		36.809 		0
v 101.009 		38.275 		3.2
v 101.108 		36.762 		0
v 101.108 		38.242 		3.2
v 101.009 		36.729 		0
v 101.202 		38.195 		3.2
v 100.906 		36.708 		0
v 101.289 		38.137 		3.2
v 101.368 		38.068 		3.2
v 101.542 		37.808 		0
v 21.996 		23.257 		1.598
v 101.575 		37.709 		0
v 22.1 		23.25 		1.598
v 101.596 		37.606 		0
v 101.603 		37.502 		0
v 101.596 		37.397 		0
v 101.575 		37.295 		0
v 57.5 		46.15 		0
v 101.542 		37.195 		0
v 22.9 		46.15 		0
v 101.495 		37.102 		0
v 101.437 		37.014 		0
v 22.1 		46.95 		0
v 101.368 		36.936 		0
v 22.8953 		46.08 		0
v 101.289 		36.867 		0
v 22.893 		46.254 		0
v 101.603 		32.698 		1.598
v 22.873 		46.357 		0
v 22.839 		46.456 		0
v 101.596 		32.594 		1.598
v 22.793 		46.55 		0
v 100.906 		38.296 		0
v 22.735 		46.637 		0
v 101.575 		32.491 		1.598
v 101.009 		38.275 		0
v 22.666 		46.716 		0
v 22.587 		46.785 		0
v 101.108 		38.242 		0
v 101.544 		32.398 		1.598
v 22.528 		46.8243 		0
v 101.202 		38.195 		0
v 101.289 		38.137 		0
v 101.368 		38.068 		0
v 22.5 		46.843 		0
v 101.437 		37.989 		0
v 22.406 		46.889 		0
v 101.495 		37.902 		0
v 22.307 		46.923 		0
v 22.204 		46.943 		0
v 21.996 		46.943 		0
v 21.893 		46.923 		0
v 21.794 		46.889 		0
v 95.694 		36.708 		1.598
v 21.7 		46.843 		0
v 21.613 		46.785 		0
v 95.591 		36.729 		1.598
v 95.163 		34.613 		0
v 95.232 		34.534 		0
v 21.534 		46.716 		0
v 95.492 		36.762 		1.598
v 95.105 		34.7 		0
v 21.504 		46.6817 		0
v 95.398 		36.809 		1.598
v 95.058 		34.794 		0
v 95.694 		34.306 		0
v 21.3 		46.15 		1.598
v 95.798 		34.299 		0
v 95.591 		34.327 		0
v 21.465 		46.637 		0
v 95.492 		34.36 		0
v 21.407 		46.55 		0
v 95.398 		34.407 		0
v 21.361 		46.456 		0
v 21.327 		46.357 		0
v 95.311 		34.465 		0
v 21.307 		46.254 		0
v 21.3047 		46.08 		0
v 95.025 		34.893 		0
v 95.004 		34.996 		0
v 94.998 		35.1 		0
v 22.528 		45.4757 		0
v 22.587 		45.515 		0
v 95.004 		35.205 		0
v 22.666 		45.584 		0
v 95.025 		35.307 		0
v 22.735 		45.663 		0
v 22.1 		23.25 		0
v 95.058 		35.406 		0
v 22.793 		45.75 		0
v 22.839 		45.844 		0
v 95.105 		35.5 		0
v 22.873 		45.943 		0
v 95.163 		35.587 		0
v 22.893 		46.046 		0
v 95.232 		35.666 		0
v 95.311 		35.735 		0
v 95.398 		35.793 		0
v 22.1 		45.35 		0
v 22.204 		45.357 		0
v 95.492 		35.84 		0
v 22.307 		45.377 		0
v 22.406 		45.411 		0
v 95.591 		35.873 		0
v 22.5 		45.457 		0
v 95.694 		35.894 		0
v 21.504 		45.6183 		0
v 21.534 		45.584 		0
v 95.798 		35.901 		0
v 21.613 		45.515 		0
v 22.9 		24.05 		0
v 21.7 		45.457 		0
v 21.794 		45.411 		0
v 21.893 		45.377 		0
v 21.996 		45.357 		0
v 101.368 		34.534 		0
v 22.1 		24.85 		0
v 101.289 		34.465 		0
v 22.7009 		24.576 		0
v 22.666 		24.616 		0
v 101.202 		34.407 		0
v 22.587 		24.685 		0
v 101.108 		34.36 		0
v 22.5 		24.743 		0
v 101.009 		34.327 		0
v 22.406 		24.789 		0
v 21.307 		46.046 		0
v 100.906 		34.306 		0
v 22.307 		24.823 		0
v 21.327 		45.943 		0
v 22.204 		24.843 		0
v 21.361 		45.844 		0
v 100.802 		34.299 		0
v 21.407 		45.75 		0
v 101.542 		34.794 		0
v 21.996 		24.843 		0
v 21.465 		45.663 		0
v 21.893 		24.823 		0
v 101.495 		34.7 		0
v 21.794 		24.789 		0
v 101.437 		34.613 		0
v 21.7 		24.743 		0
v 21.613 		24.685 		0
v 21.534 		24.616 		0
v 21.4991 		24.576 		0
v 100.906 		35.894 		0
v 100.802 		35.901 		0
v 22.9 		48.302 		1.598
v 101.009 		35.873 		0
v 101.108 		35.84 		0
v 22.9 		46.15 		1.598
v 101.202 		35.793 		0
v 57.5 		46.15 		1.598
v 101.289 		35.735 		0
v 22.528 		23.3757 		0
v 22.587 		23.415 		0
v 101.368 		35.666 		0
v 22.666 		23.484 		0
v 22.735 		23.563 		0
v 22.793 		23.65 		0
v 22.839 		23.744 		0
v 101.437 		35.587 		0
v 22.873 		23.843 		0
v 22.893 		23.946 		0
v 101.495 		35.5 		0
v 101.542 		35.406 		0
v 22.893 		24.154 		0
v 22.873 		24.257 		0
v 101.575 		35.307 		0
v 22.839 		24.356 		0
v 101.596 		35.205 		0
v 22.793 		24.45 		0
v 101.603 		35.1 		0
v 22.735 		24.537 		0
v 101.603 		35.901 		0
v 22.1 		46.95 		1.598
v 101.596 		34.996 		0
v 101.575 		34.893 		0
v 21.465 		24.537 		0
v 21.407 		24.45 		0
v 21.361 		24.356 		0
v 95.163 		32.211 		0
v 21.327 		24.257 		0
v 95.232 		32.132 		0
v 21.307 		24.154 		0
v 95.105 		32.298 		0
v 21.307 		23.946 		0
v 95.058 		32.392 		0
v 21.327 		23.843 		0
v 95.025 		32.491 		0
v 21.361 		23.744 		0
v 21.407 		23.65 		0
v 95.004 		32.594 		0
v 95.311 		36.867 		1.598
v 21.465 		23.563 		0
v 94.998 		32.698 		0
v 62 		50.9 		0
v 95.694 		31.904 		0
v 95.798 		31.898 		0
v 22.793 		46.55 		3.2
v 22.735 		46.637 		3.2
v 22.666 		46.716 		3.2
v 22.587 		46.785 		3.2
v 95.591 		31.925 		0
v 58.3 		46.95 		0
v 22.9 		46.15 		3.2
v 22.893 		46.254 		3.2
v 22.873 		46.357 		3.2
v 22.839 		46.456 		3.2
v 59.0953 		46.08 		0
v 95.492 		31.958 		0
v 59.093 		46.254 		0
v 95.398 		32.005 		0
v 59.073 		46.357 		0
v 22.1 		46.95 		3.2
v 21.996 		46.943 		3.2
v 21.893 		46.923 		3.2
v 21.794 		46.889 		3.2
v 21.7 		46.843 		3.2
v 21.613 		46.785 		3.2
v 21.534 		46.716 		3.2
v 101.437 		37.989 		3.2
v 22.5 		46.843 		3.2
v 22.406 		46.889 		3.2
v 22.307 		46.923 		3.2
v 22.204 		46.943 		3.2
v 101.495 		37.902 		3.2
v 21.465 		46.637 		3.2
v 21.407 		46.55 		3.2
v 21.361 		46.456 		3.2
v 21.327 		46.357 		3.2
v 21.307 		46.254 		3.2
v 21.3 		46.15 		3.2
v 22.873 		45.943 		3.2
v 22.893 		46.046 		3.2
v 22.587 		45.515 		3.2
v 21.4746 		23.552 		0
v 94.2 		39.5 		3.2
v 94.2 		38.7 		3.2
v 95.232 		32.132 		3.2
v 95.163 		32.211 		3.2
v 22.204 		23.257 		0
v 95.105 		32.298 		3.2
v 22.307 		23.277 		0
v 22.406 		23.311 		0
v 95.058 		32.392 		3.2
v 22.5 		23.357 		0
v 95.056 		32.398 		3.2
v 21.534 		23.484 		0
v 21.613 		23.415 		0
v 95.694 		31.904 		3.2
v 21.7 		23.357 		0
v 95.591 		31.925 		3.2
v 21.794 		23.311 		0
v 95.492 		31.958 		3.2
v 21.893 		23.277 		0
v 95.398 		32.005 		3.2
v 21.996 		23.257 		0
v 95.311 		32.063 		3.2
v 22.666 		45.584 		3.2
v 22.735 		45.663 		3.2
v 22.793 		45.75 		3.2
v 22.839 		45.844 		3.2
v 22.9 		24.05 		1.598
v 21.996 		45.357 		3.2
v 22.1 		45.35 		3.2
v 57.5 		24.05 		1.598
v 22.204 		45.357 		3.2
v 22.307 		45.377 		3.2
v 22.406 		45.411 		3.2
v 22.5 		45.457 		3.2
v 21.534 		45.584 		3.2
v 21.613 		45.515 		3.2
v 21.7 		45.457 		3.2
v 21.794 		45.411 		3.2
v 21.893 		45.377 		3.2
v 22.1 		24.85 		1.598
v 21.327 		45.943 		3.2
v 21.361 		45.844 		3.2
v 21.407 		45.75 		3.2
v 21.465 		45.663 		3.2
v 22.1 		45.35 		1.598
v 21.307 		46.046 		3.2
v 95.163 		34.613 		1.598
v 95.232 		34.534 		1.598
v 95.105 		34.7 		1.598
v 95.058 		34.794 		1.598
v 22.1 		24.85 		3.2
v 21.996 		24.843 		3.2
v 21.893 		24.823 		3.2
v 21.794 		24.789 		3.2
v 21.7 		24.743 		3.2
v 21.613 		24.685 		3.2
v 21.534 		24.616 		3.2
v 22.666 		24.616 		3.2
v 22.587 		24.685 		3.2
v 22.5 		24.743 		3.2
v 22.406 		24.789 		3.2
v 22.307 		24.823 		3.2
v 22.204 		24.843 		3.2
v 95.694 		34.306 		1.598
v 95.798 		34.299 		1.598
v 95.591 		34.327 		1.598
v 22.9 		24.05 		3.2
v 22.893 		24.154 		3.2
v 22.873 		24.257 		3.2
v 22.839 		24.356 		3.2
v 22.793 		24.45 		3.2
v 22.735 		24.537 		3.2
v 22.587 		23.415 		3.2
v 22.666 		23.484 		3.2
v 95.492 		34.36 		1.598
v 22.735 		23.563 		3.2
v 22.793 		23.65 		3.2
v 22.839 		23.744 		3.2
v 22.873 		23.843 		3.2
v 22.893 		23.946 		3.2
v 95.398 		34.407 		1.598
v 21.3 		24.05 		3.2
v 21.307 		23.946 		3.2
v 21.327 		23.843 		3.2
v 21.361 		23.744 		3.2
v 95.311 		34.465 		1.598
v 21.407 		23.65 		3.2
v 21.465 		23.563 		3.2
v 21.465 		24.537 		3.2
v 21.407 		24.45 		3.2
v 21.361 		24.356 		3.2
v 21.327 		24.257 		3.2
v 21.307 		24.154 		3.2
v 95.025 		34.893 		1.598
v 21.996 		23.257 		3.2
v 22.1 		23.25 		3.2
v 22.204 		23.257 		3.2
v 22.307 		23.277 		3.2
v 22.406 		23.311 		3.2
v 22.5 		23.357 		3.2
v 95.004 		34.996 		1.598
v 21.534 		23.484 		3.2
v 21.613 		23.415 		3.2
v 21.7 		23.357 		3.2
v 21.794 		23.311 		3.2
v 21.893 		23.277 		3.2
v 94.998 		35.1 		1.598
v 95.004 		35.205 		1.598
v 95.025 		35.307 		1.598
v 95.058 		35.406 		1.598
v 95.105 		35.5 		1.598
v 95.163 		35.587 		1.598
v 95.232 		35.666 		1.598
v 95.311 		35.735 		1.598
v 95.398 		35.793 		1.598
v 95.492 		35.84 		1.598
v 95.591 		35.873 		1.598
v 95.694 		35.894 		1.598
v 95.798 		35.901 		1.598
v 101.603 		32.398 		3.2
v 94.998 		29.9 		3.2
v 94.2 		31.5 		3.2
v 94.2 		30.7 		3.2
v 22.8953 		46.08 		1.598
v 95.311 		32.063 		0
v 95.232 		36.936 		1.598
v 95.004 		32.803 		0
v 95.163 		37.014 		1.598
v 95.025 		32.905 		0
v 95.058 		33.005 		0
v 95.105 		37.102 		1.598
v 95.105 		33.098 		0
v 95.058 		37.195 		1.598
v 95.163 		33.186 		0
v 95.025 		37.295 		1.598
v 95.0563 		37.803 		1.598
v 95.004 		37.397 		1.598
v 95.232 		33.264 		0
v 94.998 		37.502 		1.598
v 95.311 		33.333 		0
v 95.004 		37.606 		1.598
v 95.398 		33.391 		0
v 95.025 		37.709 		1.598
v 95.492 		33.438 		0
v 95.591 		33.471 		0
v 95.694 		33.492 		0
v 95.798 		33.499 		0
v 101.202 		36.809 		1.598
v 101.108 		36.762 		1.598
v 101.603 		36.864 		1.598
v 101.009 		36.729 		1.598
v 100.906 		36.708 		1.598
v 101.368 		32.132 		0
v 101.289 		32.063 		0
v 101.202 		32.005 		0
v 100.906 		33.492 		1.598
v 100.802 		33.499 		1.598
v 101.108 		31.958 		0
v 101.009 		31.925 		0
v 101.009 		33.471 		1.598
v 100.906 		31.904 		0
v 101.108 		33.438 		1.598
v 100.802 		31.898 		0
v 101.603 		32.698 		0
v 101.202 		33.391 		1.598
v 101.596 		32.594 		0
v 101.289 		33.333 		1.598
v 101.575 		32.491 		0
v 101.542 		32.392 		0
v 101.368 		33.264 		1.598
v 101.495 		32.298 		0
v 101.437 		32.211 		0
v 101.437 		33.186 		1.598
v 100.906 		33.492 		0
v 100.802 		33.499 		0
v 101.495 		33.098 		1.598
v 101.009 		33.471 		0
v 22.666 		24.616 		1.598
v 22.7009 		24.576 		1.598
v 101.542 		33.005 		1.598
v 101.108 		33.438 		0
v 101.202 		33.391 		0
v 101.575 		32.905 		1.598
v 101.289 		33.333 		0
v 101.596 		32.803 		1.598
v 22.587 		24.685 		1.598
v 101.368 		33.264 		0
v 22.5 		24.743 		1.598
v 101.437 		33.186 		0
v 101.495 		33.098 		0
v 22.406 		24.789 		1.598
v 101.542 		33.005 		0
v 101.575 		32.905 		0
v 22.307 		24.823 		1.598
v 101.596 		32.803 		0
v 101.603 		33.499 		0
v 22.204 		24.843 		1.598
v 21.996 		24.843 		1.598
v 101.5437 		37.803 		1.598
v 101.575 		37.709 		1.598
v 101.596 		37.606 		1.598
v 21.893 		24.823 		1.598
v 101.603 		37.502 		1.598
v 101.603 		37.803 		1.598
v 101.596 		37.397 		1.598
v 21.794 		24.789 		1.598
v 101.575 		37.295 		1.598
v 21.7 		24.743 		1.598
v 21.613 		24.685 		1.598
v 21.534 		24.616 		1.598
v 21.4991 		24.576 		1.598
v 22.893 		46.254 		1.598
v 22.587 		23.415 		1.598
v 22.873 		46.357 		1.598
v 22.839 		46.456 		1.598
v 22.666 		23.484 		1.598
v 22.793 		46.55 		1.598
v 22.735 		23.563 		1.598
v 22.735 		46.637 		1.598
v 22.793 		23.65 		1.598
v 22.666 		46.716 		1.598
v 22.587 		46.785 		1.598
v 22.839 		23.744 		1.598
v 22.528 		46.8243 		1.598
v 22.873 		23.843 		1.598
v 22.5 		46.843 		1.598
v 22.893 		23.946 		1.598
v 22.406 		46.889 		1.598
v 22.307 		46.923 		1.598
v 22.893 		24.154 		1.598
v 22.204 		46.943 		1.598
v 22.873 		24.257 		1.598
v 22.839 		24.356 		1.598
v 21.996 		46.943 		1.598
v 22.793 		24.45 		1.598
v 21.893 		46.923 		1.598
v 101.368 		34.534 		1.598
v 21.794 		46.889 		1.598
v 22.735 		24.537 		1.598
v 101.289 		34.465 		1.598
v 101.202 		34.407 		1.598
v 21.7 		46.843 		1.598
v 101.108 		34.36 		1.598
v 101.009 		34.327 		1.598
v 21.613 		46.785 		1.598
v 100.906 		34.306 		1.598
v 21.465 		24.537 		1.598
v 100.802 		34.299 		1.598
v 21.534 		46.716 		1.598
v 101.542 		34.794 		1.598
v 101.495 		34.7 		1.598
v 21.407 		24.45 		1.598
v 21.504 		46.6817 		1.598
v 101.437 		34.613 		1.598
v 21.361 		24.356 		1.598
v 21.465 		46.637 		1.598
v 100.802 		35.901 		1.598
v 100.906 		35.894 		1.598
v 21.327 		24.257 		1.598
v 101.009 		35.873 		1.598
v 21.407 		46.55 		1.598
v 101.108 		35.84 		1.598
v 101.202 		35.793 		1.598
v 21.307 		24.154 		1.598
v 21.361 		46.456 		1.598
v 101.289 		35.735 		1.598
v 21.327 		46.357 		1.598
v 101.368 		35.666 		1.598
v 21.307 		46.254 		1.598
v 101.437 		35.587 		1.598
v 21.307 		23.946 		1.598
v 101.495 		35.5 		1.598
v 101.542 		35.406 		1.598
v 21.327 		23.843 		1.598
v 101.575 		35.307 		1.598
v 101.596 		35.205 		1.598
v 22.587 		45.515 		1.598
v 21.361 		23.744 		1.598
v 22.528 		45.4757 		1.598
v 101.603 		35.1 		1.598
v 101.596 		34.996 		1.598
v 22.666 		45.584 		1.598
v 21.407 		23.65 		1.598
v 22.735 		45.663 		1.598
v 21.465 		23.563 		1.598
v 22.793 		45.75 		1.598
v 22.839 		45.844 		1.598
v 22.873 		45.943 		1.598
v 22.893 		46.046 		1.598
v 22.204 		45.357 		1.598
v 22.307 		45.377 		1.598
v 22.406 		45.411 		1.598
v 22.5 		45.457 		1.598
v 21.534 		45.584 		1.598
v 21.613 		45.515 		1.598
v 21.7 		45.457 		1.598
v 21.794 		45.411 		1.598
v 21.893 		45.377 		1.598
v 21.996 		45.357 		1.598
v 101.603 		32.398 		1.598
v 101.603 		33.499 		1.598
v 94.2 		31.5 		4.8
v 94.2 		30.7 		4.8
v 94.2 		39.5 		4.8
v 94.2 		38.7 		4.8
v 60.4 		29.9 		1.598
v 60.4 		32.398 		1.598
v 60.4 		37.803 		1.598
v 60.4 		40.3 		1.598
v 59.1 		24.05 		1.598
v 60.4 		40.3 		3.2
v 60.4 		37.803 		3.2
v 60.4 		32.398 		3.2
v 60.4 		29.9 		3.2
v 62 		29.9 		3.2
v 60.403 		29.9 		3.2
v 62 		40.3 		3.2
v 60.403 		40.3 		3.2
v 74.2 		38.7 		3.2
v 74.2 		39.5 		3.2
v 74.2 		30.7 		3.2
v 74.2 		31.5 		3.2
v 62 		29.9 		0
v 60.403 		29.9 		1.598
v 62 		40.3 		0
v 60.403 		40.3 		1.598
v 74.2 		31.5 		4.8
v 74.2 		30.7 		4.8
v 74.2 		39.5 		4.8
v 74.2 		38.7 		4.8
v 58.3 		24.85 		1.598
v 58.3 		45.35 		1.598
v 58.3 		24.85 		3.2
v 58.196 		24.843 		3.2
v 58.093 		24.823 		3.2
v 57.994 		24.789 		3.2
v 57.9 		24.743 		3.2
v 57.813 		24.685 		3.2
v 57.734 		24.616 		3.2
v 58.866 		24.616 		3.2
v 58.787 		24.685 		3.2
v 58.7 		24.743 		3.2
v 58.606 		24.789 		3.2
v 58.507 		24.823 		3.2
v 58.404 		24.843 		3.2
v 59.1 		24.05 		3.2
v 59.093 		24.154 		3.2
v 59.073 		24.257 		3.2
v 59.039 		24.356 		3.2
v 58.993 		24.45 		3.2
v 58.935 		24.537 		3.2
v 58.935 		23.563 		3.2
v 58.993 		23.65 		3.2
v 59.039 		23.744 		3.2
v 59.073 		23.843 		3.2
v 59.093 		23.946 		3.2
v 58.606 		23.311 		3.2
v 58.7 		23.357 		3.2
v 58.787 		23.415 		3.2
v 58.866 		23.484 		3.2
v 58.404 		23.257 		3.2
v 58.507 		23.277 		3.2
v 57.5 		24.05 		3.2
v 57.507 		23.946 		3.2
v 57.527 		23.843 		3.2
v 57.561 		23.744 		3.2
v 57.607 		23.65 		3.2
v 57.665 		23.563 		3.2
v 57.665 		24.537 		3.2
v 57.607 		24.45 		3.2
v 57.561 		24.356 		3.2
v 57.527 		24.257 		3.2
v 57.507 		24.154 		3.2
v 58.196 		23.257 		3.2
v 58.3 		23.25 		3.2
v 57.734 		23.484 		3.2
v 57.813 		23.415 		3.2
v 57.9 		23.357 		3.2
v 57.994 		23.311 		3.2
v 58.093 		23.277 		3.2
v 95.056 		32.398 		1.598
v 58.866 		24.616 		1.598
v 58.9009 		24.576 		1.598
v 58.787 		24.685 		1.598
v 58.7 		24.743 		1.598
v 58.606 		24.789 		1.598
v 58.507 		24.823 		1.598
v 58.404 		24.843 		1.598
v 58.196 		24.843 		1.598
v 58.093 		24.823 		1.598
v 57.994 		24.789 		1.598
v 57.9 		24.743 		1.598
v 57.813 		24.685 		1.598
v 57.734 		24.616 		1.598
v 57.6991 		24.576 		1.598
v 58.935 		23.563 		1.598
v 58.9254 		23.552 		1.598
v 58.993 		23.65 		1.598
v 59.039 		23.744 		1.598
v 59.073 		23.843 		1.598
v 59.093 		23.946 		1.598
v 59.093 		24.154 		1.598
v 59.073 		24.257 		1.598
v 59.039 		24.356 		1.598
v 58.993 		24.45 		1.598
v 58.935 		24.537 		1.598
v 58.404 		23.257 		1.598
v 58.368 		23.2546 		1.598
v 58.507 		23.277 		1.598
v 58.606 		23.311 		1.598
v 58.7 		23.357 		1.598
v 58.787 		23.415 		1.598
v 58.866 		23.484 		1.598
v 57.665 		24.537 		1.598
v 57.607 		24.45 		1.598
v 57.561 		24.356 		1.598
v 57.527 		24.257 		1.598
v 57.507 		24.154 		1.598
v 57.507 		23.946 		1.598
v 57.527 		23.843 		1.598
v 57.561 		23.744 		1.598
v 57.607 		23.65 		1.598
v 57.665 		23.563 		1.598
v 57.6746 		23.552 		1.598
v 57.734 		23.484 		1.598
v 57.813 		23.415 		1.598
v 57.9 		23.357 		1.598
v 57.994 		23.311 		1.598
v 58.093 		23.277 		1.598
v 59.039 		46.456 		0
v 58.993 		46.55 		0
v 58.935 		46.637 		0
v 58.866 		46.716 		0
v 58.787 		46.785 		0
v 101.575 		34.893 		1.598
v 59.1 		24.05 		0
v 58.3 		24.85 		0
v 58.3 		45.35 		0
v 58.9009 		24.576 		0
v 58.866 		24.616 		0
v 58.787 		24.685 		0
v 58.7 		24.743 		0
v 58.606 		24.789 		0
v 58.507 		24.823 		0
v 58.404 		24.843 		0
v 58.196 		24.843 		0
v 95.025 		32.491 		1.598
v 58.093 		24.823 		0
v 95.004 		32.594 		1.598
v 57.994 		24.789 		0
v 94.998 		32.698 		1.598
v 57.9 		24.743 		0
v 57.813 		24.685 		0
v 57.734 		24.616 		0
v 95.004 		32.803 		1.598
v 95.025 		32.905 		1.598
v 95.058 		33.005 		1.598
v 95.105 		33.098 		1.598
v 95.163 		33.186 		1.598
v 95.232 		33.264 		1.598
v 58.9254 		23.552 		0
v 58.935 		23.563 		0
v 58.993 		23.65 		0
v 95.311 		33.333 		1.598
v 59.039 		23.744 		0
v 59.073 		23.843 		0
v 95.398 		33.391 		1.598
v 59.093 		23.946 		0
v 95.492 		33.438 		1.598
v 59.093 		24.154 		0
v 95.591 		33.471 		1.598
v 59.073 		24.257 		0
v 59.039 		24.356 		0
v 95.694 		33.492 		1.598
v 58.993 		24.45 		0
v 95.798 		33.499 		1.598
v 58.935 		24.537 		0
v 58.7 		46.843 		0
v 58.606 		46.889 		0
v 58.507 		46.923 		0
v 58.404 		46.943 		0
v 58.368 		46.9454 		0
v 58.196 		46.943 		0
v 58.093 		46.923 		0
v 57.994 		46.889 		0
v 57.9 		46.843 		0
v 57.813 		46.785 		0
v 58.404 		23.257 		0
v 58.507 		23.277 		0
v 58.606 		23.311 		0
v 58.7 		23.357 		0
v 58.787 		23.415 		0
v 58.866 		23.484 		0
v 57.734 		46.716 		0
v 57.665 		46.637 		0
v 57.607 		46.55 		0
v 57.561 		46.456 		0
v 57.527 		46.357 		0
v 57.507 		46.254 		0
v 57.5047 		46.08 		0
v 58.368 		45.3546 		0
v 58.404 		45.357 		0
v 58.507 		45.377 		0
v 58.606 		45.411 		0
v 58.7 		45.457 		0
v 58.787 		45.515 		0
v 58.866 		45.584 		0
v 58.935 		45.663 		0
v 58.993 		45.75 		0
v 59.039 		45.844 		0
v 59.073 		45.943 		0
v 59.093 		46.046 		0
v 57.507 		46.046 		0
v 57.527 		45.943 		0
v 57.561 		45.844 		0
v 57.607 		45.75 		0
v 57.665 		45.663 		0
v 57.734 		45.584 		0
v 57.813 		45.515 		0
v 57.9 		45.457 		0
v 57.994 		45.411 		0
v 58.093 		45.377 		0
v 58.196 		45.357 		0
v 60.2 		50 		3.2
v 60.2 		49.2 		3.2
v 60.2 		50 		4.8
v 60.2 		49.2 		4.8
v 59.1 		46.15 		1.598
v 60.403 		48.302 		3.2
v 62 		50.9 		3.2
v 60.403 		48.302 		1.598
v 58.3 		46.95 		1.598
v 58.507 		46.923 		3.2
v 58.404 		46.943 		3.2
v 59.1 		46.15 		3.2
v 59.093 		46.254 		3.2
v 59.073 		46.357 		3.2
v 59.039 		46.456 		3.2
v 58.993 		46.55 		3.2
v 58.935 		46.637 		3.2
v 58.866 		46.716 		3.2
v 58.787 		46.785 		3.2
v 58.7 		46.843 		3.2
v 58.606 		46.889 		3.2
v 58.3 		46.95 		3.2
v 58.196 		46.943 		3.2
v 58.093 		46.923 		3.2
v 57.994 		46.889 		3.2
v 57.9 		46.843 		3.2
v 57.813 		46.785 		3.2
v 57.734 		46.716 		3.2
v 57.665 		46.637 		3.2
v 57.607 		46.55 		3.2
v 57.561 		46.456 		3.2
v 57.527 		46.357 		3.2
v 57.507 		46.254 		3.2
v 57.5 		46.15 		3.2
v 59.073 		45.943 		3.2
v 59.093 		46.046 		3.2
v 58.404 		45.357 		3.2
v 58.507 		45.377 		3.2
v 58.606 		45.411 		3.2
v 58.7 		45.457 		3.2
v 58.787 		45.515 		3.2
v 58.866 		45.584 		3.2
v 58.935 		45.663 		3.2
v 58.993 		45.75 		3.2
v 59.039 		45.844 		3.2
v 58.196 		45.357 		3.2
v 58.3 		45.35 		3.2
v 57.507 		46.046 		3.2
v 57.527 		45.943 		3.2
v 57.561 		45.844 		3.2
v 57.607 		45.75 		3.2
v 57.665 		45.663 		3.2
v 57.734 		45.584 		3.2
v 57.813 		45.515 		3.2
v 57.9 		45.457 		3.2
v 57.994 		45.411 		3.2
v 58.093 		45.377 		3.2
v 59.0953 		46.08 		1.598
v 59.093 		46.254 		1.598
v 59.073 		46.357 		1.598
v 59.039 		46.456 		1.598
v 58.993 		46.55 		1.598
v 58.935 		46.637 		1.598
v 58.866 		46.716 		1.598
v 58.787 		46.785 		1.598
v 58.7 		46.843 		1.598
v 58.606 		46.889 		1.598
v 58.507 		46.923 		1.598
v 58.404 		46.943 		1.598
v 58.368 		46.9454 		1.598
v 58.196 		46.943 		1.598
v 58.093 		46.923 		1.598
v 57.994 		46.889 		1.598
v 57.9 		46.843 		1.598
v 57.813 		46.785 		1.598
v 57.734 		46.716 		1.598
v 57.665 		46.637 		1.598
v 57.607 		46.55 		1.598
v 57.561 		46.456 		1.598
v 57.527 		46.357 		1.598
v 57.507 		46.254 		1.598
v 57.5047 		46.08 		1.598
v 58.404 		45.357 		1.598
v 58.368 		45.3546 		1.598
v 58.507 		45.377 		1.598
v 58.606 		45.411 		1.598
v 58.7 		45.457 		1.598
v 58.787 		45.515 		1.598
v 58.866 		45.584 		1.598
v 58.935 		45.663 		1.598
v 58.993 		45.75 		1.598
v 59.039 		45.844 		1.598
v 59.073 		45.943 		1.598
v 59.093 		46.046 		1.598
v 57.507 		46.046 		1.598
v 57.527 		45.943 		1.598
v 57.561 		45.844 		1.598
v 57.607 		45.75 		1.598
v 57.665 		45.663 		1.598
v 57.734 		45.584 		1.598
v 57.813 		45.515 		1.598
v 57.9 		45.457 		1.598
v 57.994 		45.411 		1.598
v 58.093 		45.377 		1.598
v 58.196 		45.357 		1.598
# 1010 vertices

g group_0_15277357

usemtl color_15277357
s 0

f 1 	2 	3
f 8 	6 	5
f 4 	5 	6
f 2 	7 	5
f 1 	7 	2
f 8 	5 	7
f 12 	1 	11
f 10 	11 	1
f 14 	15 	6
f 13 	6 	15
f 3 	18 	10
f 3 	10 	1
f 19 	4 	13
f 4 	6 	13
f 9 	61 	21
f 16 	37 	26
f 26 	37 	29
f 35 	27 	28
f 35 	28 	667
f 665 	35 	667
f 656 	35 	660
f 653 	35 	656
f 185 	55 	56
f 29 	37 	30
f 27 	35 	31
f 30 	37 	32
f 32 	37 	34
f 38 	675 	37
f 18 	37 	33
f 18 	33 	10
f 35 	38 	19
f 35 	19 	13
f 41 	76 	40
f 3 	2 	37
f 3 	37 	18
f 38 	5 	4
f 38 	4 	19
f 37 	2 	5
f 37 	5 	38
f 44 	12 	11
f 44 	11 	45
f 46 	15 	14
f 46 	14 	47
f 688 	766 	706
f 50 	41 	40
f 50 	40 	52
f 53 	223 	7
f 223 	272 	7
f 54 	328 	8
f 394 	395 	8
f 92 	94 	78
f 94 	95 	78
f 95 	59 	78
f 85 	870 	78
f 61 	790 	22
f 61 	22 	23
f 61 	23 	811
f 61 	811 	810
f 810 	809 	61
f 41 	14 	76
f 69 	306 	68
f 65 	68 	309
f 71 	306 	69
f 72 	304 	71
f 74 	304 	72
f 75 	40 	76
f 75 	76 	697
f 76 	78 	697
f 61 	75 	86
f 87 	303 	74
f 88 	89 	303
f 89 	92 	303
f 86 	75 	706
f 78 	303 	92
f 90 	249 	93
f 91 	251 	90
f 59 	85 	78
f 98 	99 	100
f 98 	100 	101
f 97 	242 	104
f 103 	384 	102
f 104 	705 	105
f 109 	111 	384
f 107 	384 	103
f 108 	106 	705
f 106 	105 	705
f 111 	115 	384
f 110 	108 	705
f 112 	110 	705
f 383 	384 	115
f 121 	123 	383
f 707 	120 	118
f 123 	124 	383
f 122 	120 	707
f 99 	383 	124
f 707 	125 	122
f 144 	99 	124
f 125 	707 	127
f 132 	35 	135
f 130 	707 	133
f 126 	139 	128
f 137 	707 	140
f 707 	98 	140
f 146 	171 	320
f 148 	146 	320
f 153 	99 	151
f 297 	295 	148
f 320 	297 	148
f 138 	35 	156
f 98 	159 	157
f 157 	155 	98
f 881 	174 	880
f 882 	895 	240
f 165 	172 	163
f 172 	174 	881
f 166 	164 	320
f 162 	320 	164
f 175 	880 	174
f 194 	195 	7
f 168 	196 	7
f 196 	197 	7
f 165 	163 	170
f 169 	167 	320
f 167 	166 	320
f 177 	878 	175
f 171 	169 	320
f 179 	878 	177
f 113 	98 	178
f 176 	550 	180
f 182 	877 	179
f 183 	186 	876
f 183 	876 	182
f 186 	190 	876
f 550 	551 	185
f 180 	550 	185
f 7 	876 	192
f 190 	192 	876
f 187 	98 	188
f 195 	168 	7
f 194 	7 	192
f 189 	98 	191
f 193 	98 	155
f 191 	98 	193
f 197 	198 	7
f 189 	188 	98
f 184 	98 	187
f 181 	178 	98
f 141 	140 	98
f 184 	181 	98
f 113 	141 	98
f 201 	205 	7
f 209 	339 	496
f 705 	203 	204
f 205 	208 	7
f 495 	496 	339
f 207 	203 	705
f 35 	63 	646
f 641 	38 	646
f 637 	38 	641
f 35 	646 	38
f 17 	33 	16
f 643 	638 	33
f 357 	342 	62
f 707 	62 	342
f 529 	528 	211
f 213 	529 	211
f 7 	198 	200
f 7 	200 	201
f 208 	215 	7
f 215 	217 	7
f 47 	14 	41
f 217 	219 	7
f 214 	211 	528
f 219 	220 	7
f 528 	527 	214
f 7 	220 	222
f 7 	222 	53
f 221 	520 	204
f 218 	216 	526
f 272 	275 	7
f 210 	207 	705
f 224 	210 	705
f 225 	224 	705
f 836 	84 	236
f 236 	238 	836
f 47 	50 	46
f 52 	46 	50
f 835 	836 	238
f 834 	835 	238
f 397 	399 	8
f 401 	403 	8
f 403 	233 	8
f 233 	387 	8
f 387 	389 	8
f 8 	390 	78
f 231 	705 	234
f 229 	705 	231
f 238 	900 	834
f 900 	901 	834
f 78 	76 	8
f 6 	8 	76
f 234 	705 	237
f 240 	170 	882
f 75 	61 	13
f 35 	13 	61
f 163 	882 	170
f 243 	97 	246
f 242 	241 	104
f 705 	104 	241
f 242 	97 	243
f 705 	241 	239
f 239 	237 	705
f 61 	9 	35
f 35 	158 	156
f 135 	35 	138
f 132 	31 	35
f 6 	76 	14
f 267 	269 	250
f 265 	267 	250
f 47 	41 	50
f 232 	235 	84
f 15 	40 	13
f 75 	13 	40
f 235 	236 	84
f 246 	96 	249
f 96 	93 	249
f 46 	52 	15
f 40 	15 	52
f 253 	255 	54
f 249 	90 	251
f 255 	257 	54
f 274 	276 	245
f 245 	247 	274
f 83 	82 	319
f 317 	319 	82
f 80 	79 	312
f 256 	312 	79
f 79 	64 	256
f 64 	65 	309
f 88 	303 	87
f 247 	248 	271
f 254 	251 	91
f 96 	246 	97
f 269 	271 	248
f 275 	277 	54
f 282 	252 	54
f 271 	274 	247
f 248 	250 	269
f 244 	245 	276
f 259 	260 	276
f 258 	259 	276
f 54 	257 	276
f 262 	281 	54
f 260 	244 	276
f 230 	232 	84
f 261 	578 	263
f 266 	263 	578
f 257 	258 	276
f 8 	7 	54
f 54 	7 	275
f 277 	279 	54
f 282 	54 	279
f 276 	262 	54
f 281 	283 	54
f 283 	285 	54
f 252 	253 	54
f 285 	287 	54
f 287 	288 	54
f 280 	578 	284
f 288 	289 	54
f 289 	290 	54
f 578 	564 	268
f 268 	266 	578
f 578 	261 	286
f 286 	284 	578
f 392 	78 	390
f 303 	78 	301
f 506 	298 	296
f 671 	987 	506
f 669 	1001 	670
f 668 	1001 	669
f 986 	296 	298
f 668 	666 	1001
f 299 	297 	320
f 152 	150 	294
f 304 	74 	303
f 305 	71 	304
f 306 	71 	305
f 320 	302 	299
f 308 	68 	306
f 309 	68 	308
f 84 	83 	319
f 44 	45 	909
f 264 	265 	84
f 319 	264 	84
f 307 	302 	320
f 265 	250 	84
f 310 	320 	311
f 250 	227 	84
f 10 	293 	911
f 227 	228 	84
f 228 	230 	84
f 314 	320 	316
f 320 	98 	316
f 624 	620 	33
f 613 	293 	321
f 33 	616 	293
f 603 	601 	293
f 293 	10 	33
f 323 	578 	280
f 578 	323 	322
f 45 	11 	909
f 91 	126 	128
f 314 	311 	320
f 310 	307 	320
f 295 	294 	150
f 294 	291 	152
f 128 	152 	291
f 292 	128 	291
f 150 	148 	295
f 290 	324 	54
f 324 	325 	54
f 325 	326 	54
f 128 	292 	254
f 128 	254 	91
f 203 	429 	430
f 203 	430 	204
f 326 	328 	54
f 207 	429 	203
f 8 	328 	330
f 210 	432 	207
f 329 	705 	327
f 8 	330 	57
f 57 	332 	8
f 327 	705 	331
f 8 	332 	334
f 334 	336 	8
f 336 	337 	8
f 8 	337 	340
f 8 	340 	382
f 813 	814 	342
f 814 	815 	342
f 816 	860 	342
f 864 	342 	863
f 350 	865 	342
f 865 	866 	342
f 355 	62 	707
f 359 	812 	342
f 342 	357 	359
f 213 	211 	447
f 211 	214 	448
f 131 	143 	129
f 448 	214 	216
f 216 	218 	463
f 99 	144 	145
f 99 	145 	147
f 99 	147 	149
f 149 	151 	99
f 99 	153 	154
f 154 	367 	99
f 372 	99 	367
f 221 	468 	218
f 463 	218 	468
f 204 	430 	221
f 468 	221 	430
f 117 	383 	115
f 119 	121 	383
f 117 	119 	383
f 107 	109 	384
f 384 	701 	102
f 388 	391 	504
f 300 	78 	392
f 389 	390 	8
f 476 	224 	483
f 225 	483 	224
f 391 	393 	504
f 225 	226 	483
f 489 	483 	226
f 704 	504 	393
f 301 	78 	300
f 695 	704 	393
f 489 	226 	229
f 231 	491 	229
f 8 	382 	394
f 397 	8 	395
f 491 	231 	492
f 234 	492 	231
f 401 	8 	399
f 237 	492 	234
f 504 	505 	404
f 404 	385 	504
f 241 	495 	239
f 385 	386 	504
f 242 	495 	241
f 243 	497 	242
f 497 	243 	498
f 246 	498 	243
f 249 	499 	498
f 249 	498 	246
f 499 	249 	251
f 615 	614 	799
f 800 	799 	614
f 560 	561 	797
f 570 	568 	797
f 38 	570 	797
f 776 	38 	777
f 501 	251 	254
f 422 	579 	38
f 576 	573 	38
f 561 	621 	797
f 590 	588 	38
f 661 	675 	38
f 427 	37 	672
f 681 	37 	427
f 679 	37 	680
f 207 	431 	429
f 432 	431 	207
f 210 	476 	432
f 447 	211 	446
f 446 	211 	448
f 216 	457 	448
f 457 	216 	463
f 210 	224 	476
f 229 	490 	489
f 491 	490 	229
f 237 	493 	492
f 493 	237 	494
f 239 	494 	237
f 495 	494 	239
f 242 	496 	495
f 497 	496 	242
f 251 	500 	499
f 500 	251 	501
f 43 	100 	42
f 48 	100 	43
f 42 	100 	39
f 49 	100 	48
f 36 	39 	100
f 58 	502 	55
f 56 	55 	502
f 60 	36 	100
f 58 	60 	100
f 639 	501 	254
f 100 	49 	51
f 142 	503 	51
f 396 	503 	142
f 398 	503 	396
f 398 	400 	503
f 400 	402 	503
f 100 	51 	503
f 503 	402 	505
f 402 	404 	505
f 129 	143 	372
f 99 	372 	143
f 99 	143 	502
f 502 	58 	100
f 99 	502 	100
f 101 	503 	705
f 503 	101 	100
f 356 	705 	358
f 507 	705 	329
f 358 	705 	507
f 689 	495 	508
f 510 	689 	508
f 509 	705 	511
f 513 	689 	510
f 515 	689 	513
f 512 	705 	514
f 517 	689 	515
f 519 	689 	517
f 705 	204 	520
f 705 	520 	516
f 514 	705 	516
f 521 	690 	519
f 522 	520 	221
f 524 	522 	221
f 221 	218 	524
f 526 	524 	218
f 640 	642 	533
f 639 	640 	534
f 534 	139 	639
f 527 	526 	216
f 216 	214 	527
f 536 	101 	537
f 559 	542 	538
f 544 	542 	559
f 541 	101 	543
f 551 	101 	553
f 540 	537 	101
f 101 	536 	535
f 101 	535 	554
f 554 	553 	101
f 557 	278 	556
f 801 	412 	409
f 614 	612 	800
f 273 	270 	559
f 621 	617 	797
f 570 	38 	573
f 571 	578 	572
f 574 	578 	575
f 577 	575 	578
f 576 	38 	579
f 574 	572 	578
f 571 	569 	578
f 578 	569 	566
f 566 	564 	578
f 278 	273 	556
f 529 	213 	557
f 559 	556 	273
f 563 	559 	270
f 270 	268 	563
f 564 	563 	268
f 278 	557 	213
f 583 	586 	582
f 581 	582 	586
f 580 	422 	38
f 585 	586 	583
f 335 	333 	705
f 333 	331 	705
f 705 	356 	349
f 349 	343 	705
f 344 	101 	343
f 545 	101 	344
f 543 	101 	545
f 541 	540 	101
f 705 	343 	101
f 584 	580 	38
f 589 	532 	587
f 585 	587 	532
f 66 	532 	589
f 67 	532 	66
f 588 	584 	38
f 70 	532 	67
f 73 	532 	70
f 590 	38 	591
f 77 	532 	73
f 642 	644 	531
f 591 	38 	592
f 431 	689 	429
f 592 	38 	593
f 430 	429 	689
f 296 	986 	594
f 594 	985 	596
f 596 	985 	597
f 24 	61 	25
f 595 	25 	61
f 598 	595 	61
f 597 	983 	599
f 293 	604 	603
f 842 	846 	468
f 457 	463 	849
f 689 	842 	430
f 598 	61 	600
f 599 	983 	601
f 468 	430 	842
f 600 	61 	602
f 601 	983 	293
f 483 	689 	476
f 602 	61 	605
f 489 	689 	483
f 606 	604 	293
f 605 	61 	607
f 493 	689 	492
f 606 	293 	608
f 607 	61 	609
f 495 	689 	494
f 608 	293 	610
f 610 	293 	611
f 409 	609 	61
f 493 	494 	689
f 496 	497 	209
f 61 	806 	409
f 611 	293 	613
f 499 	500 	199
f 498 	499 	202
f 806 	805 	409
f 126 	199 	500
f 199 	202 	499
f 501 	126 	500
f 805 	804 	409
f 321 	293 	616
f 804 	803 	409
f 616 	33 	618
f 202 	206 	498
f 639 	126 	501
f 206 	209 	498
f 497 	498 	209
f 339 	508 	495
f 618 	33 	620
f 803 	802 	409
f 802 	801 	409
f 623 	683 	622
f 624 	33 	627
f 538 	542 	626
f 619 	622 	683
f 626 	628 	538
f 630 	539 	628
f 593 	38 	629
f 637 	634 	38
f 633 	683 	632
f 629 	38 	634
f 636 	683 	633
f 619 	683 	636
f 631 	33 	635
f 631 	627 	33
f 638 	635 	33
f 643 	33 	647
f 648 	532 	645
f 647 	33 	649
f 648 	650 	532
f 649 	33 	651
f 37 	16 	33
f 63 	35 	653
f 651 	33 	212
f 212 	33 	17
f 655 	532 	654
f 658 	532 	657
f 532 	658 	662
f 659 	661 	38
f 674 	37 	675
f 660 	35 	665
f 38 	1001 	659
f 666 	664 	1001
f 664 	659 	1001
f 158 	35 	20
f 670 	1000 	671
f 51 	545 	344
f 20 	35 	9
f 24 	21 	61
f 672 	37 	673
f 673 	37 	674
f 51 	344 	142
f 694 	518 	102
f 34 	37 	676
f 143 	131 	586
f 676 	37 	677
f 131 	581 	586
f 677 	37 	678
f 678 	37 	679
f 680 	37 	681
f 586 	585 	143
f 532 	143 	585
f 532 	662 	143
f 502 	143 	662
f 662 	683 	502
f 683 	173 	502
f 173 	682 	502
f 504 	684 	685
f 504 	685 	505
f 109 	127 	111
f 383 	686 	687
f 383 	687 	384
f 111 	130 	115
f 988 	989 	691
f 990 	988 	691
f 791 	789 	86
f 706 	784 	86
f 693 	691 	690
f 693 	690 	694
f 695 	689 	688
f 695 	688 	696
f 697 	698 	75
f 700 	694 	699
f 693 	694 	700
f 702 	699 	701
f 694 	701 	699
f 103 	102 	518
f 696 	698 	695
f 698 	697 	695
f 703 	704 	697
f 695 	697 	704
f 697 	78 	705
f 75 	698 	706
f 696 	688 	706
f 696 	706 	698
f 342 	912 	707
f 134 	117 	115
f 700 	708 	691
f 700 	691 	693
f 119 	117 	134
f 709 	704 	703
f 709 	703 	710
f 711 	702 	701
f 711 	701 	712
f 684 	709 	710
f 684 	710 	685
f 686 	711 	712
f 686 	712 	687
f 699 	99 	707
f 518 	694 	690
f 689 	519 	690
f 697 	503 	703
f 505 	703 	503
f 697 	705 	503
f 710 	703 	505
f 710 	505 	685
f 694 	102 	701
f 386 	388 	504
f 684 	504 	704
f 684 	704 	709
f 712 	701 	384
f 712 	384 	687
f 99 	699 	702
f 99 	702 	383
f 98 	707 	99
f 686 	383 	702
f 686 	702 	711
f 770 	688 	713
f 714 	1010 	691
f 1010 	1009 	691
f 1009 	1008 	691
f 691 	1008 	38
f 775 	774 	38
f 776 	775 	38
f 1004 	38 	1005
f 1005 	38 	1006
f 1003 	38 	1004
f 1002 	38 	1003
f 1007 	1006 	38
f 189 	154 	153
f 154 	189 	191
f 372 	367 	193
f 193 	129 	372
f 581 	131 	129
f 178 	145 	144
f 147 	145 	178
f 154 	191 	367
f 191 	193 	367
f 141 	113 	124
f 113 	144 	124
f 185 	502 	682
f 502 	185 	56
f 689 	695 	763
f 695 	393 	763
f 788 	706 	765
f 689 	38 	688
f 765 	706 	764
f 764 	706 	766
f 767 	688 	768
f 766 	688 	767
f 768 	688 	769
f 769 	688 	770
f 713 	688 	771
f 690 	691 	38
f 771 	688 	772
f 763 	393 	391
f 772 	688 	773
f 142 	344 	343
f 773 	688 	774
f 688 	38 	774
f 778 	86 	780
f 142 	343 	396
f 396 	343 	398
f 780 	86 	781
f 781 	86 	782
f 400 	358 	402
f 402 	358 	404
f 782 	86 	783
f 692 	783 	86
f 692 	86 	784
f 787 	706 	788
f 784 	706 	785
f 42 	537 	540
f 48 	540 	541
f 785 	706 	786
f 48 	541 	543
f 48 	543 	49
f 786 	706 	787
f 49 	543 	51
f 551 	55 	185
f 551 	553 	55
f 58 	55 	553
f 553 	60 	58
f 60 	554 	535
f 60 	535 	36
f 790 	61 	789
f 36 	535 	536
f 36 	536 	39
f 39 	536 	42
f 61 	86 	789
f 795 	794 	86
f 42 	540 	43
f 791 	86 	792
f 43 	540 	48
f 792 	86 	793
f 795 	86 	779
f 793 	86 	794
f 266 	268 	625
f 778 	779 	86
f 625 	268 	270
f 270 	273 	628
f 628 	273 	278
f 777 	38 	796
f 632 	280 	284
f 796 	38 	797
f 284 	286 	636
f 291 	639 	292
f 568 	560 	797
f 617 	615 	797
f 302 	650 	299
f 798 	797 	615
f 310 	311 	655
f 655 	311 	314
f 318 	322 	663
f 663 	322 	323
f 632 	323 	280
f 619 	636 	261
f 61 	808 	807
f 61 	807 	806
f 612 	409 	412
f 799 	798 	615
f 412 	800 	612
f 263 	622 	261
f 619 	261 	622
f 622 	263 	266
f 622 	266 	623
f 623 	266 	625
f 808 	61 	809
f 625 	270 	626
f 626 	270 	628
f 278 	630 	628
f 137 	136 	707
f 136 	134 	707
f 134 	133 	707
f 130 	127 	707
f 707 	118 	116
f 116 	114 	707
f 114 	112 	705
f 226 	705 	229
f 225 	705 	226
f 511 	705 	512
f 341 	705 	509
f 338 	705 	341
f 338 	335 	705
f 707 	114 	705
f 812 	813 	342
f 816 	342 	815
f 861 	342 	860
f 817 	683 	663
f 662 	663 	683
f 551 	550 	101
f 101 	550 	548
f 546 	577 	101
f 578 	322 	101
f 577 	578 	101
f 98 	101 	318
f 322 	318 	101
f 318 	316 	98
f 162 	161 	320
f 98 	320 	161
f 160 	98 	161
f 160 	159 	98
f 548 	546 	101
f 632 	683 	817
f 284 	633 	632
f 633 	284 	636
f 286 	261 	636
f 872 	873 	78
f 850 	818 	78
f 818 	852 	705
f 825 	826 	705
f 291 	640 	639
f 294 	642 	640
f 294 	640 	291
f 642 	294 	644
f 295 	644 	294
f 297 	645 	644
f 297 	644 	295
f 645 	297 	648
f 299 	648 	297
f 902 	903 	834
f 828 	830 	903
f 903 	705 	819
f 830 	832 	903
f 905 	707 	904
f 820 	707 	905
f 883 	707 	820
f 884 	707 	883
f 650 	648 	299
f 823 	824 	705
f 822 	823 	705
f 821 	822 	705
f 824 	825 	705
f 302 	307 	650
f 826 	827 	705
f 652 	650 	307
f 126 	639 	139
f 533 	534 	640
f 531 	533 	642
f 530 	531 	644
f 77 	530 	644
f 532 	77 	644
f 645 	532 	644
f 650 	652 	532
f 654 	532 	652
f 657 	532 	655
f 310 	654 	307
f 652 	307 	654
f 832 	834 	903
f 901 	902 	834
f 654 	310 	655
f 831 	689 	829
f 314 	657 	655
f 833 	689 	831
f 315 	317 	82
f 657 	314 	316
f 657 	316 	658
f 82 	81 	315
f 318 	662 	316
f 658 	316 	662
f 81 	80 	315
f 662 	318 	663
f 663 	323 	817
f 841 	842 	689
f 817 	323 	632
f 844 	845 	78
f 840 	841 	689
f 853 	856 	446
f 845 	847 	78
f 847 	848 	78
f 848 	850 	78
f 849 	463 	846
f 705 	78 	818
f 463 	468 	846
f 852 	854 	705
f 639 	254 	292
f 854 	855 	705
f 855 	857 	705
f 857 	859 	705
f 859 	821 	705
f 447 	446 	856
f 446 	448 	853
f 858 	447 	856
f 539 	630 	858
f 851 	853 	448
f 448 	457 	851
f 849 	851 	457
f 432 	689 	431
f 861 	862 	342
f 863 	342 	862
f 180 	682 	176
f 173 	176 	682
f 682 	180 	185
f 350 	342 	864
f 866 	867 	342
f 7 	342 	867
f 867 	868 	7
f 868 	869 	7
f 876 	7 	869
f 549 	683 	547
f 872 	78 	871
f 870 	871 	78
f 683 	623 	547
f 874 	78 	873
f 552 	683 	549
f 447 	630 	213
f 278 	213 	630
f 875 	78 	874
f 875 	843 	78
f 844 	78 	843
f 555 	683 	552
f 562 	683 	558
f 565 	683 	562
f 558 	683 	555
f 567 	683 	565
f 313 	315 	80
f 312 	313 	80
f 829 	763 	335
f 173 	683 	567
f 829 	335 	831
f 338 	831 	335
f 833 	831 	338
f 833 	338 	341
f 309 	256 	64
f 539 	538 	628
f 625 	626 	542
f 542 	544 	625
f 623 	625 	544
f 544 	547 	623
f 341 	837 	833
f 447 	858 	630
f 509 	837 	341
f 511 	837 	509
f 520 	842 	516
f 522 	842 	520
f 524 	849 	522
f 526 	849 	524
f 527 	853 	526
f 528 	853 	527
f 385 	329 	386
f 327 	386 	329
f 331 	388 	327
f 386 	327 	388
f 763 	829 	689
f 689 	833 	837
f 689 	837 	838
f 689 	838 	839
f 839 	840 	689
f 432 	476 	689
f 490 	689 	489
f 491 	492 	689
f 490 	491 	689
f 523 	690 	521
f 525 	690 	523
f 518 	690 	525
f 331 	333 	388
f 391 	388 	333
f 91 	90 	199
f 91 	199 	126
f 391 	333 	763
f 333 	335 	763
f 199 	90 	93
f 199 	93 	202
f 202 	93 	96
f 96 	97 	209
f 398 	343 	349
f 104 	105 	508
f 400 	398 	356
f 349 	356 	398
f 106 	508 	105
f 400 	356 	358
f 108 	513 	106
f 404 	358 	507
f 110 	513 	108
f 404 	507 	329
f 404 	329 	385
f 112 	517 	110
f 517 	112 	114
f 511 	838 	837
f 838 	511 	839
f 512 	839 	511
f 514 	840 	839
f 514 	839 	512
f 840 	514 	841
f 516 	841 	514
f 842 	841 	516
f 522 	846 	842
f 849 	846 	522
f 526 	851 	849
f 127 	107 	125
f 853 	851 	526
f 528 	856 	853
f 111 	127 	130
f 856 	528 	529
f 856 	529 	858
f 133 	115 	130
f 877 	182 	876
f 878 	179 	877
f 879 	175 	878
f 880 	175 	879
f 163 	172 	881
f 238 	240 	895
f 529 	557 	539
f 202 	96 	206
f 206 	96 	209
f 705 	904 	707
f 885 	707 	884
f 886 	707 	885
f 104 	339 	97
f 209 	97 	339
f 887 	707 	886
f 888 	707 	887
f 858 	529 	539
f 889 	707 	888
f 339 	104 	508
f 890 	707 	889
f 827 	819 	705
f 890 	891 	707
f 106 	510 	508
f 891 	892 	707
f 513 	510 	106
f 892 	893 	707
f 42 	536 	537
f 110 	515 	513
f 707 	893 	894
f 517 	515 	110
f 707 	894 	355
f 114 	519 	517
f 519 	114 	116
f 519 	116 	521
f 51 	543 	545
f 118 	523 	521
f 118 	521 	116
f 895 	896 	238
f 896 	897 	238
f 567 	577 	173
f 897 	898 	238
f 898 	899 	238
f 120 	525 	523
f 120 	523 	118
f 900 	238 	899
f 173 	546 	548
f 173 	548 	176
f 120 	122 	518
f 525 	120 	518
f 103 	518 	122
f 176 	548 	550
f 819 	828 	903
f 122 	125 	103
f 107 	103 	125
f 904 	705 	903
f 554 	60 	553
f 127 	109 	107
f 556 	538 	539
f 556 	539 	557
f 538 	556 	559
f 563 	544 	559
f 911 	912 	907
f 906 	907 	912
f 544 	563 	547
f 564 	547 	563
f 115 	133 	134
f 566 	549 	547
f 566 	547 	564
f 119 	134 	136
f 549 	566 	552
f 569 	552 	566
f 119 	136 	121
f 137 	121 	136
f 906 	908 	909
f 906 	909 	907
f 571 	555 	569
f 137 	140 	121
f 123 	121 	140
f 552 	569 	555
f 141 	124 	140
f 123 	140 	124
f 555 	571 	572
f 555 	572 	558
f 574 	562 	572
f 558 	572 	562
f 562 	574 	575
f 562 	575 	565
f 913 	910 	963
f 963 	999 	913
f 998 	708 	999
f 708 	993 	691
f 991 	990 	691
f 577 	567 	575
f 565 	575 	567
f 11 	10 	907
f 546 	173 	577
f 912 	911 	699
f 700 	699 	911
f 699 	707 	912
f 911 	913 	708
f 911 	708 	700
f 908 	44 	909
f 1 	912 	7
f 77 	171 	530
f 530 	146 	148
f 914 	975 	913
f 970 	913 	971
f 977 	976 	913
f 977 	293 	978
f 911 	907 	10
f 913 	911 	293
f 11 	907 	909
f 906 	912 	12
f 1 	12 	912
f 342 	7 	912
f 155 	129 	193
f 908 	906 	12
f 908 	12 	44
f 160 	161 	587
f 587 	161 	162
f 162 	164 	66
f 166 	67 	164
f 66 	164 	67
f 67 	166 	167
f 67 	167 	70
f 169 	73 	167
f 70 	167 	73
f 73 	169 	171
f 73 	171 	77
f 146 	530 	171
f 144 	113 	178
f 147 	178 	181
f 147 	181 	149
f 184 	149 	181
f 184 	187 	149
f 151 	149 	187
f 188 	153 	151
f 188 	151 	187
f 153 	188 	189
f 148 	531 	530
f 150 	533 	148
f 531 	148 	533
f 533 	150 	152
f 533 	152 	534
f 128 	139 	152
f 534 	152 	139
f 582 	581 	157
f 155 	157 	581
f 129 	155 	581
f 582 	157 	159
f 582 	159 	583
f 160 	585 	159
f 583 	159 	585
f 585 	160 	587
f 162 	589 	587
f 589 	162 	66
f 910 	913 	964
f 964 	913 	965
f 965 	913 	966
f 967 	913 	968
f 966 	913 	967
f 970 	969 	913
f 968 	913 	969
f 971 	913 	972
f 972 	913 	973
f 913 	975 	974
f 973 	913 	974
f 914 	913 	976
f 913 	293 	977
f 978 	293 	979
f 979 	293 	980
f 980 	293 	981
f 981 	293 	982
f 982 	293 	983
f 983 	597 	984
f 984 	597 	985
f 985 	594 	986
f 298 	506 	987
f 989 	714 	691
f 991 	691 	992
f 992 	691 	993
f 913 	999 	708
f 993 	708 	994
f 994 	708 	995
f 997 	708 	998
f 995 	708 	996
f 996 	708 	997
f 1007 	38 	1008
f 1000 	670 	1001
f 987 	671 	1000
f 1001 	38 	1002
f 690 	38 	689
# 1238 faces

g group_0_16089887

usemtl color_16089887
s 0

f 21 	481 	9
f 481 	21 	482
f 24 	482 	21
f 482 	24 	25
f 424 	26 	29
f 29 	30 	425
f 29 	425 	424
f 30 	32 	426
f 30 	426 	425
f 32 	34 	426
f 71 	69 	72
f 74 	72 	69
f 74 	69 	68
f 74 	68 	65
f 74 	65 	64
f 74 	64 	79
f 74 	79 	80
f 74 	80 	81
f 74 	81 	82
f 74 	82 	83
f 74 	83 	84
f 92 	84 	94
f 95 	94 	84
f 89 	84 	92
f 88 	84 	89
f 87 	84 	88
f 74 	84 	87
f 59 	95 	84
f 59 	84 	85
f 486 	31 	132
f 132 	135 	487
f 132 	487 	486
f 488 	487 	138
f 135 	138 	487
f 138 	156 	488
f 200 	183 	182
f 200 	182 	179
f 200 	179 	177
f 200 	177 	175
f 200 	175 	174
f 200 	174 	172
f 200 	172 	165
f 200 	165 	170
f 205 	201 	208
f 200 	208 	201
f 197 	196 	198
f 196 	168 	198
f 168 	195 	198
f 200 	198 	195
f 200 	195 	194
f 200 	194 	192
f 200 	192 	190
f 200 	190 	186
f 186 	183 	200
f 222 	200 	53
f 220 	200 	222
f 219 	200 	220
f 217 	200 	219
f 215 	200 	217
f 208 	200 	215
f 223 	53 	200
f 236 	200 	238
f 240 	238 	200
f 235 	200 	236
f 232 	200 	235
f 230 	200 	232
f 228 	200 	230
f 227 	200 	228
f 170 	240 	200
f 258 	200 	259
f 260 	259 	200
f 257 	200 	258
f 255 	200 	257
f 253 	200 	255
f 252 	200 	253
f 244 	260 	200
f 227 	250 	200
f 250 	248 	200
f 248 	247 	200
f 245 	200 	247
f 244 	200 	245
f 277 	200 	279
f 282 	279 	200
f 275 	200 	277
f 272 	200 	275
f 223 	200 	272
f 252 	282 	200
f 290 	289 	288
f 290 	288 	287
f 290 	287 	285
f 290 	285 	283
f 290 	283 	281
f 290 	281 	262
f 290 	262 	276
f 290 	276 	274
f 290 	274 	271
f 290 	271 	269
f 290 	269 	267
f 265 	264 	290
f 324 	290 	264
f 267 	265 	290
f 317 	315 	319
f 264 	319 	315
f 264 	315 	313
f 264 	313 	312
f 264 	312 	256
f 264 	256 	309
f 264 	309 	308
f 264 	308 	306
f 264 	306 	305
f 264 	305 	304
f 264 	304 	303
f 300 	264 	301
f 303 	301 	264
f 300 	392 	264
f 348 	351 	347
f 346 	347 	351
f 345 	346 	351
f 352 	354 	351
f 353 	354 	352
f 345 	351 	354
f 363 	348 	362
f 361 	362 	348
f 364 	348 	363
f 365 	348 	364
f 366 	348 	365
f 373 	348 	366
f 348 	368 	361
f 368 	369 	361
f 360 	361 	369
f 370 	371 	369
f 360 	369 	371
f 375 	348 	374
f 376 	348 	375
f 377 	348 	376
f 378 	348 	377
f 336 	264 	337
f 340 	337 	264
f 334 	264 	336
f 332 	264 	334
f 57 	264 	332
f 330 	264 	57
f 328 	264 	330
f 326 	264 	328
f 325 	264 	326
f 324 	264 	325
f 394 	382 	264
f 399 	264 	401
f 401 	264 	403
f 397 	264 	399
f 395 	264 	397
f 394 	264 	395
f 382 	340 	264
f 392 	390 	264
f 403 	264 	233
f 390 	389 	264
f 387 	264 	389
f 233 	264 	387
f 351 	348 	380
f 379 	380 	348
f 381 	405 	348
f 405 	406 	348
f 406 	407 	348
f 408 	348 	407
f 379 	348 	408
f 413 	348 	411
f 414 	348 	413
f 415 	348 	414
f 416 	348 	415
f 381 	348 	416
f 410 	411 	348
f 373 	374 	348
f 417 	418 	348
f 418 	419 	348
f 419 	420 	348
f 420 	421 	348
f 410 	348 	421
f 426 	348 	425
f 424 	425 	348
f 417 	348 	426
f 424 	348 	423
f 428 	348 	378
f 423 	348 	428
f 436 	440 	435
f 434 	435 	440
f 437 	452 	436
f 438 	452 	437
f 439 	452 	438
f 440 	441 	434
f 441 	442 	434
f 442 	443 	434
f 433 	434 	443
f 444 	445 	443
f 433 	443 	445
f 603 	347 	346
f 452 	439 	451
f 450 	451 	439
f 453 	436 	452
f 454 	436 	453
f 440 	436 	454
f 439 	471 	450
f 471 	472 	450
f 459 	460 	465
f 464 	465 	460
f 460 	461 	464
f 462 	464 	461
f 449 	475 	462
f 603 	604 	348
f 603 	348 	347
f 604 	606 	348
f 348 	606 	368
f 467 	456 	466
f 465 	466 	456
f 469 	456 	467
f 470 	456 	469
f 456 	458 	465
f 458 	459 	465
f 472 	473 	450
f 449 	450 	473
f 473 	474 	449
f 475 	449 	474
f 464 	462 	475
f 608 	369 	368
f 479 	485 	478
f 480 	485 	479
f 481 	485 	480
f 455 	485 	482
f 456 	485 	455
f 481 	482 	485
f 470 	484 	456
f 484 	485 	456
f 477 	478 	485
f 477 	485 	486
f 477 	486 	487
f 477 	487 	488
f 371 	613 	360
f 440 	568 	441
f 321 	616 	360
f 568 	442 	441
f 363 	624 	364
f 624 	365 	364
f 580 	434 	433
f 580 	435 	434
f 436 	590 	437
f 375 	649 	376
f 590 	438 	437
f 649 	377 	376
f 438 	592 	439
f 592 	593 	439
f 378 	17 	428
f 598 	456 	455
f 458 	456 	598
f 607 	461 	460
f 462 	461 	607
f 614 	451 	450
f 452 	451 	614
f 671 	380 	379
f 671 	506 	380
f 413 	411 	427
f 34 	676 	417
f 418 	417 	676
f 427 	411 	410
f 423 	428 	26
f 16 	26 	428
f 26 	424 	423
f 34 	417 	426
f 474 	646 	475
f 646 	464 	475
f 478 	158 	20
f 478 	20 	479
f 479 	20 	480
f 9 	480 	20
f 481 	480 	9
f 470 	28 	484
f 484 	27 	485
f 31 	485 	27
f 486 	485 	31
f 156 	477 	488
f 477 	156 	478
f 158 	478 	156
f 454 	561 	440
f 560 	440 	561
f 560 	568 	440
f 442 	568 	570
f 570 	573 	443
f 570 	443 	442
f 444 	443 	576
f 573 	576 	443
f 576 	579 	445
f 576 	445 	444
f 433 	445 	422
f 579 	422 	445
f 433 	422 	580
f 435 	580 	584
f 436 	435 	588
f 584 	588 	435
f 588 	590 	436
f 590 	591 	438
f 591 	592 	438
f 506 	296 	351
f 471 	439 	593
f 352 	351 	594
f 296 	594 	351
f 353 	352 	596
f 594 	596 	352
f 482 	25 	455
f 595 	455 	25
f 354 	353 	597
f 596 	597 	353
f 595 	598 	455
f 597 	599 	345
f 597 	345 	354
f 458 	598 	600
f 601 	346 	345
f 601 	345 	599
f 600 	602 	459
f 600 	459 	458
f 346 	601 	603
f 460 	459 	605
f 602 	605 	459
f 608 	368 	606
f 605 	607 	460
f 462 	607 	609
f 369 	608 	610
f 609 	409 	449
f 609 	449 	462
f 610 	611 	370
f 610 	370 	369
f 612 	450 	449
f 612 	449 	409
f 371 	370 	613
f 611 	613 	370
f 450 	612 	614
f 321 	360 	613
f 615 	452 	614
f 361 	360 	616
f 452 	615 	453
f 617 	453 	615
f 616 	618 	362
f 616 	362 	361
f 363 	362 	620
f 618 	620 	362
f 453 	617 	454
f 621 	454 	617
f 620 	624 	363
f 454 	621 	561
f 624 	627 	365
f 593 	629 	471
f 627 	631 	366
f 627 	366 	365
f 472 	471 	634
f 629 	634 	471
f 631 	635 	366
f 373 	366 	635
f 634 	637 	473
f 634 	473 	472
f 635 	638 	373
f 474 	473 	641
f 637 	641 	473
f 374 	373 	643
f 638 	643 	373
f 375 	374 	647
f 643 	647 	374
f 641 	646 	474
f 647 	649 	375
f 464 	646 	63
f 377 	649 	651
f 653 	465 	63
f 464 	63 	465
f 651 	212 	378
f 651 	378 	377
f 16 	428 	17
f 212 	17 	378
f 466 	465 	656
f 653 	656 	465
f 467 	466 	660
f 656 	660 	466
f 416 	661 	381
f 659 	664 	405
f 659 	405 	381
f 660 	665 	469
f 660 	469 	467
f 406 	405 	666
f 664 	666 	405
f 470 	469 	667
f 665 	667 	469
f 666 	668 	407
f 666 	407 	406
f 408 	407 	669
f 668 	669 	407
f 27 	484 	28
f 667 	28 	470
f 669 	670 	379
f 669 	379 	408
f 379 	670 	671
f 351 	380 	506
f 672 	413 	427
f 413 	672 	414
f 673 	414 	672
f 674 	415 	414
f 674 	414 	673
f 415 	674 	416
f 675 	416 	674
f 675 	661 	416
f 659 	381 	661
f 676 	677 	418
f 419 	418 	678
f 677 	678 	418
f 678 	679 	420
f 678 	420 	419
f 421 	420 	680
f 679 	680 	420
f 680 	681 	410
f 680 	410 	421
f 681 	427 	410
f 718 	722 	717
f 716 	717 	722
f 719 	731 	718
f 720 	731 	719
f 721 	731 	720
f 722 	723 	716
f 723 	724 	716
f 724 	725 	716
f 715 	716 	725
f 726 	727 	725
f 715 	725 	727
f 731 	721 	730
f 729 	730 	721
f 732 	718 	731
f 733 	718 	732
f 722 	718 	733
f 728 	729 	721
f 751 	752 	736
f 721 	751 	736
f 736 	737 	721
f 738 	721 	737
f 728 	721 	738
f 741 	734 	740
f 742 	734 	741
f 739 	740 	734
f 743 	744 	734
f 739 	734 	744
f 748 	734 	747
f 746 	747 	734
f 749 	734 	748
f 750 	734 	749
f 745 	746 	734
f 752 	753 	736
f 735 	736 	753
f 734 	735 	753
f 753 	754 	734
f 755 	734 	754
f 745 	734 	755
f 743 	734 	757
f 756 	757 	734
f 750 	758 	734
f 758 	759 	734
f 759 	760 	734
f 760 	761 	734
f 761 	762 	734
f 756 	734 	762
f 771 	716 	715
f 771 	717 	716
f 718 	774 	719
f 720 	719 	775
f 774 	775 	719
f 775 	721 	720
f 778 	734 	779
f 780 	735 	734
f 780 	734 	778
f 736 	735 	780
f 791 	744 	743
f 739 	744 	791
f 734 	742 	779
f 755 	800 	745
f 412 	801 	745
f 22 	790 	757
f 23 	756 	762
f 756 	23 	757
f 22 	757 	23
f 733 	765 	722
f 764 	722 	765
f 764 	766 	723
f 764 	723 	722
f 724 	723 	767
f 766 	767 	723
f 767 	768 	725
f 767 	725 	724
f 726 	725 	769
f 768 	769 	725
f 769 	770 	727
f 769 	727 	726
f 715 	727 	713
f 770 	713 	727
f 715 	713 	771
f 717 	771 	772
f 718 	717 	773
f 772 	773 	717
f 773 	774 	718
f 775 	776 	721
f 776 	777 	721
f 751 	721 	777
f 736 	780 	781
f 781 	782 	737
f 781 	737 	736
f 738 	737 	783
f 782 	783 	737
f 783 	692 	728
f 783 	728 	738
f 784 	729 	728
f 784 	728 	692
f 729 	784 	730
f 785 	730 	784
f 786 	731 	730
f 786 	730 	785
f 731 	786 	732
f 787 	732 	786
f 788 	733 	732
f 788 	732 	787
f 733 	788 	765
f 790 	789 	743
f 789 	791 	743
f 739 	791 	792
f 739 	792 	740
f 793 	740 	792
f 794 	741 	740
f 794 	740 	793
f 741 	794 	742
f 795 	742 	794
f 779 	742 	795
f 777 	796 	751
f 752 	751 	797
f 796 	797 	751
f 753 	752 	798
f 797 	798 	752
f 798 	799 	754
f 798 	754 	753
f 755 	754 	800
f 799 	800 	754
f 412 	745 	800
f 746 	745 	801
f 801 	802 	747
f 801 	747 	746
f 748 	747 	803
f 802 	803 	747
f 803 	804 	749
f 803 	749 	748
f 750 	749 	805
f 804 	805 	749
f 758 	750 	806
f 805 	806 	750
f 743 	757 	790
f 806 	807 	758
f 807 	808 	759
f 807 	759 	758
f 760 	759 	809
f 808 	809 	759
f 809 	810 	761
f 809 	761 	760
f 762 	761 	811
f 810 	811 	761
f 811 	23 	762
f 84 	836 	835
f 84 	835 	834
f 84 	834 	832
f 84 	832 	830
f 84 	830 	828
f 84 	828 	819
f 84 	819 	827
f 84 	827 	826
f 84 	826 	825
f 84 	825 	824
f 84 	824 	823
f 84 	823 	822
f 821 	84 	822
f 863 	862 	882
f 861 	882 	862
f 816 	884 	860
f 815 	884 	816
f 814 	884 	815
f 813 	884 	814
f 812 	884 	813
f 359 	884 	812
f 357 	884 	359
f 62 	884 	357
f 355 	884 	62
f 855 	84 	857
f 859 	857 	84
f 854 	84 	855
f 852 	84 	854
f 818 	84 	852
f 850 	84 	818
f 848 	84 	850
f 847 	84 	848
f 845 	84 	847
f 844 	84 	845
f 843 	84 	844
f 821 	859 	84
f 874 	84 	875
f 873 	84 	874
f 872 	84 	873
f 871 	84 	872
f 870 	84 	871
f 85 	84 	870
f 843 	875 	84
f 882 	163 	881
f 882 	881 	880
f 882 	880 	879
f 882 	879 	878
f 882 	878 	877
f 882 	877 	876
f 882 	876 	869
f 882 	869 	868
f 882 	868 	867
f 882 	867 	866
f 882 	866 	865
f 882 	865 	350
f 864 	863 	882
f 350 	864 	882
f 893 	892 	894
f 355 	894 	892
f 355 	892 	891
f 355 	891 	890
f 355 	890 	889
f 355 	889 	888
f 355 	888 	887
f 355 	887 	886
f 355 	886 	885
f 355 	885 	884
f 883 	861 	884
f 861 	860 	884
f 903 	861 	904
f 905 	904 	861
f 902 	861 	903
f 901 	861 	902
f 900 	861 	901
f 899 	861 	900
f 898 	861 	899
f 897 	861 	898
f 896 	861 	897
f 895 	861 	896
f 882 	861 	895
f 820 	905 	861
f 820 	861 	883
f 917 	918 	916
f 915 	916 	918
f 919 	926 	918
f 920 	926 	919
f 921 	926 	920
f 922 	926 	921
f 923 	926 	922
f 924 	926 	923
f 925 	926 	924
f 915 	918 	926
f 929 	930 	928
f 927 	928 	930
f 927 	930 	931
f 927 	931 	932
f 927 	932 	933
f 927 	933 	934
f 927 	934 	935
f 927 	935 	936
f 927 	936 	937
f 927 	937 	938
f 939 	916 	938
f 927 	938 	916
f 917 	916 	941
f 940 	941 	916
f 952 	942 	916
f 942 	943 	916
f 943 	944 	916
f 944 	945 	916
f 945 	946 	916
f 946 	947 	916
f 947 	948 	916
f 948 	949 	916
f 950 	916 	949
f 940 	916 	950
f 951 	952 	916
f 939 	953 	916
f 953 	954 	916
f 954 	955 	916
f 955 	956 	916
f 956 	957 	916
f 957 	958 	916
f 958 	959 	916
f 959 	960 	916
f 960 	961 	916
f 961 	962 	916
f 951 	916 	962
f 967 	921 	920
f 922 	921 	967
f 923 	970 	924
f 970 	925 	924
f 925 	972 	926
f 972 	915 	926
f 915 	974 	916
f 916 	975 	927
f 974 	975 	916
f 927 	914 	928
f 929 	978 	930
f 978 	931 	930
f 933 	982 	934
f 982 	935 	934
f 937 	986 	938
f 986 	939 	938
f 994 	947 	946
f 948 	947 	994
f 999 	963 	941
f 963 	910 	917
f 910 	964 	918
f 910 	918 	917
f 919 	918 	965
f 964 	965 	918
f 920 	919 	966
f 965 	966 	919
f 966 	967 	920
f 922 	967 	968
f 968 	969 	923
f 968 	923 	922
f 969 	970 	923
f 925 	970 	971
f 971 	972 	925
f 972 	973 	915
f 973 	974 	915
f 914 	927 	975
f 914 	976 	928
f 929 	928 	977
f 976 	977 	928
f 977 	978 	929
f 931 	978 	979
f 979 	980 	932
f 979 	932 	931
f 933 	932 	981
f 980 	981 	932
f 981 	982 	933
f 935 	982 	983
f 983 	984 	936
f 983 	936 	935
f 937 	936 	985
f 984 	985 	936
f 985 	986 	937
f 939 	986 	298
f 953 	939 	987
f 298 	987 	939
f 952 	989 	942
f 988 	990 	943
f 988 	943 	942
f 944 	943 	991
f 990 	991 	943
f 991 	992 	945
f 991 	945 	944
f 946 	945 	993
f 992 	993 	945
f 993 	994 	946
f 948 	994 	995
f 995 	996 	949
f 995 	949 	948
f 950 	949 	997
f 996 	997 	949
f 997 	998 	940
f 997 	940 	950
f 999 	941 	940
f 999 	940 	998
f 917 	941 	963
f 952 	714 	989
f 988 	942 	989
f 987 	1000 	953
f 954 	953 	1001
f 1000 	1001 	953
f 1001 	1002 	955
f 1001 	955 	954
f 956 	955 	1003
f 1002 	1003 	955
f 1003 	1004 	957
f 1003 	957 	956
f 958 	957 	1005
f 1004 	1005 	957
f 1005 	1006 	959
f 1005 	959 	958
f 960 	959 	1007
f 1006 	1007 	959
f 1007 	1008 	961
f 1007 	961 	960
f 962 	961 	1009
f 1008 	1009 	961
f 1009 	1010 	951
f 1009 	951 	962
f 1010 	714 	952
f 1010 	952 	951
# 790 faces

 #end of obj_0

